<?xml version="1.0" encoding="utf-8"?>
<!-- Generator: Adobe Illustrator 15.1.0, SVG Export Plug-In . SVG Version: 6.00 Build 0)  -->
<!DOCTYPE svg PUBLIC "-//W3C//DTD SVG 1.1//EN" "http://www.w3.org/Graphics/SVG/1.1/DTD/svg11.dtd">
<svg version="1.1" id="Layer_1" xmlns="http://www.w3.org/2000/svg" xmlns:xlink="http://www.w3.org/1999/xlink" x="0px" y="0px"
	 width="46.598px" height="32.16px" viewBox="0 7.959 46.598 32.16" enable-background="new 0 7.959 46.598 32.16"
	 xml:space="preserve">
<title>mobile-phone</title>
<g transform="translate(0,-952.36218)">
	<path fill="#FFFFFF" d="M5.611,960.321c-2.645,0-4.824,2.18-4.824,4.824v22.513c0,2.645,2.18,4.823,4.824,4.823h35.375
		c2.645,0,4.824-2.179,4.824-4.823v-22.513c0-2.645-2.18-4.824-4.824-4.824H5.611z M5.879,963.538h34.823l-16.314,15.058
		c-0.765,0.705-1.448,0.705-2.211,0L5.879,963.538z M4.003,966.167l15.979,14.79c1.844,1.705,4.755,1.703,6.6,0l16.013-14.79v21.491
		c0,0.918-0.689,1.607-1.608,1.607H5.611c-0.918,0-1.608-0.689-1.608-1.607V966.167z"/>
</g>
</svg>
