<?xml version="1.0" encoding="utf-8"?>
<!-- Generator: Adobe Illustrator 25.3.1, SVG Export Plug-In . SVG Version: 6.00 Build 0)  -->
<svg version="1.1" id="Layer_1" xmlns:v="https://vecta.io/nano"
	 xmlns="http://www.w3.org/2000/svg" xmlns:xlink="http://www.w3.org/1999/xlink" x="0px" y="0px" viewBox="0 0 24.3 23.7"
	 style="enable-background:new 0 0 24.3 23.7;" xml:space="preserve">
<style type="text/css">
	.st0{fill-rule:evenodd;clip-rule:evenodd;fill:#FFFFFF;}
</style>
<path class="st0" d="M12.2,0c-6,0-11,4.3-12,10.2c-1,5.9,2.5,11.6,8.1,13.5c0.2,0.1,0.4,0,0.6-0.1s0.3-0.3,0.3-0.5l0-2.1
	C5.8,21.8,5,19.4,5,19.4c-0.2-0.7-0.7-1.4-1.3-1.8c-1.1-0.8,0.1-0.7,0.1-0.7c0.8,0.1,1.5,0.6,1.9,1.2c0.3,0.6,0.9,1.1,1.6,1.2
	s1.4,0.1,2-0.2c0.1-0.6,0.3-1.2,0.8-1.6c-2.7-0.3-5.5-1.4-5.5-6c0-1.2,0.4-2.4,1.2-3.3C5.3,7.2,5.3,6.1,5.8,5c0,0,1-0.3,3.3,1.2
	c2-0.5,4.1-0.5,6.1,0C17.5,4.7,18.5,5,18.5,5c0.4,1,0.5,2.2,0.1,3.2c0.8,0.9,1.3,2.1,1.2,3.3c0,4.7-2.8,5.7-5.5,6
	c0.6,0.6,0.9,1.4,0.8,2.2l0,3.3c0,0.3,0.2,0.6,0.6,0.6c0.1,0,0.2,0,0.2,0c6.4-2.1,9.8-9,7.7-15.4C22,3.3,17.4,0,12.2,0z"/>
</svg>
