<?xml version="1.0" standalone="no"?>
<!DOCTYPE svg PUBLIC "-//W3C//DTD SVG 20010904//EN"
 "http://www.w3.org/TR/2001/REC-SVG-20010904/DTD/svg10.dtd">
<svg version="1.0" xmlns="http://www.w3.org/2000/svg"
 width="260.000000pt" height="260.000000pt" viewBox="0 0 260.000000 260.000000"
 preserveAspectRatio="xMidYMid meet">
<metadata>
Created by potrace 1.14, written by Peter Selinger 2001-2017
</metadata>
<g transform="translate(0.000000,260.000000) scale(0.100000,-0.100000)"
fill="#000000" stroke="none">
<path d="M534 2571 c-85 -39 -139 -149 -115 -237 23 -85 76 -136 181 -175 l57
-21 -23 -62 c-12 -34 -30 -99 -40 -144 -17 -81 -18 -82 -48 -82 -17 0 -76 -16
-130 -34 -87 -30 -106 -41 -148 -85 -46 -49 -56 -69 -40 -85 4 -4 7 -18 7 -29
0 -13 9 -26 22 -32 12 -5 24 -17 26 -27 5 -17 37 -25 50 -12 4 4 22 8 42 10
43 4 74 25 143 97 45 48 52 53 52 33 0 -13 3 -43 6 -68 l6 -45 -53 -29 c-30
-17 -83 -41 -118 -55 -35 -13 -73 -34 -85 -45 -55 -56 -76 -82 -76 -95 0 -8
-25 -39 -56 -69 -30 -30 -87 -96 -125 -146 l-69 -90 0 -522 1 -522 1299 0
1300 0 0 522 0 521 -57 76 c-31 42 -85 106 -120 142 -45 47 -62 71 -57 83 6
16 -7 34 -72 100 -12 11 -50 32 -85 45 -35 13 -88 35 -118 48 l-54 23 7 53 c3
28 6 62 6 74 0 18 9 13 52 -34 69 -72 100 -93 143 -97 20 -2 38 -6 42 -10 13
-13 45 -5 50 12 2 10 14 22 26 27 13 6 22 19 22 32 0 11 3 25 8 29 15 16 5 36
-41 85 -42 44 -61 55 -148 85 -54 18 -113 34 -130 34 -30 0 -31 1 -48 82 -10
45 -28 110 -40 143 l-22 62 50 17 c88 31 142 72 170 129 34 67 34 127 1 194
-36 72 -89 106 -171 111 -84 6 -134 -19 -214 -104 l-60 -65 -28 19 c-190 134
-513 154 -728 43 -33 -16 -68 -36 -79 -44 -19 -15 -24 -12 -83 50 -35 35 -82
73 -105 84 -53 24 -130 24 -183 0z m849 -135 c18 -7 47 -29 64 -49 92 -105 27
-268 -113 -283 -154 -17 -252 168 -151 283 53 60 129 79 200 49z m-319 -210
c49 -21 78 -67 78 -127 0 -57 -19 -91 -65 -119 -93 -57 -207 9 -207 120 0 105
95 167 194 126z m657 -35 c35 -35 39 -44 39 -91 0 -100 -52 -145 -164 -141
-19 1 -41 14 -67 40 -36 36 -39 43 -39 96 0 53 3 60 39 96 36 36 43 39 96 39
53 0 60 -3 96 -39z m-471 -117 c57 -21 93 -17 183 21 14 6 17 2 17 -20 0 -40
28 -92 67 -124 27 -22 33 -34 28 -50 -3 -12 -11 -19 -16 -16 -5 3 -6 -1 -3
-10 4 -8 1 -22 -6 -30 -19 -23 -382 -22 -405 1 -9 9 -14 23 -11 31 3 8 1 11
-4 8 -5 -3 -12 5 -16 19 -5 20 1 31 31 57 42 37 65 77 65 115 0 21 3 25 18 19
9 -4 33 -14 52 -21z m-73 -440 c-3 -3 -12 -4 -19 -1 -8 3 -5 6 6 6 11 1 17 -2
13 -5z m300 0 c-3 -3 -12 -4 -19 -1 -8 3 -5 6 6 6 11 1 17 -2 13 -5z m-244
-11 c-7 -2 -21 -2 -30 0 -10 3 -4 5 12 5 17 0 24 -2 18 -5z m200 0 c-7 -2 -21
-2 -30 0 -10 3 -4 5 12 5 17 0 24 -2 18 -5z m-90 -10 c-13 -2 -35 -2 -50 0
-16 2 -5 4 22 4 28 0 40 -2 28 -4z m1067 -878 c0 -8 -4 -15 -10 -15 -5 0 -10
7 -10 15 0 8 5 15 10 15 6 0 10 -7 10 -15z m-1750 -125 c0 -5 -4 -10 -10 -10
-5 0 -10 5 -10 10 0 6 5 10 10 10 6 0 10 -4 10 -10z"/>
<path d="M1249 2341 c-33 -33 -37 -67 -14 -111 28 -54 105 -59 149 -9 23 26
27 38 22 68 -12 79 -101 108 -157 52z m122 -12 c44 -63 18 -129 -51 -129 -60
0 -91 51 -66 111 19 45 24 49 62 49 25 0 38 -7 55 -31z"/>
<path d="M1282 2308 c-7 -7 -12 -21 -12 -33 0 -12 5 -26 12 -33 7 -7 21 -12
33 -12 12 0 26 5 33 12 7 7 12 21 12 33 0 12 -5 26 -12 33 -7 7 -21 12 -33 12
-12 0 -26 -5 -33 -12z"/>
<path d="M950 2150 c-38 -38 -12 -121 38 -120 15 1 14 2 -3 12 -39 22 -45 54
-21 101 17 32 13 34 -14 7z"/>
<path d="M1044 2151 c9 -10 21 -32 26 -47 8 -28 8 -29 9 -4 1 28 -24 70 -41
70 -6 0 -3 -9 6 -19z"/>
<path d="M980 2125 c-26 -31 13 -82 44 -56 19 16 21 42 4 59 -16 16 -33 15
-48 -3z"/>
<path d="M1572 2147 c-46 -49 -10 -129 57 -126 l26 2 -25 4 c-53 10 -72 50
-51 107 7 18 19 26 43 29 l33 4 -31 1 c-20 1 -38 -6 -52 -21z"/>
<path d="M1673 2139 c8 -14 17 -36 20 -50 4 -24 4 -24 6 2 0 15 -8 37 -20 50
l-21 24 15 -26z"/>
<path d="M1594 2116 c-12 -31 0 -51 31 -51 27 0 30 3 30 30 0 25 -4 30 -28 33
-17 2 -29 -2 -33 -12z"/>
<path d="M1669 2043 c-13 -16 -12 -17 4 -4 9 7 17 15 17 17 0 8 -8 3 -21 -13z"/>
</g>
</svg>
