<svg xmlns="http://www.w3.org/2000/svg" xmlns:xlink="http://www.w3.org/1999/xlink" viewBox="0 0 231 231" xmlns:v="https://vecta.io/nano"><g fill="#010101"><path d="M34.1 62.7l4.1-.8 4.3-.7c1.6-.3 3.3-.4 5-.5h2.6l2.5.1 2.3.2 2.1.3c1.3.2 2.3.6 3.1.8l1.2.3-1 2.7s-.4-.1-1-.4c-.7-.2-1.6-.7-2.8-1-.6-.2-1.2-.3-1.9-.5s-1.4-.3-2.2-.5l-2.4-.4-2.5-.2c-1.7 0-3.3-.1-4.9 0-1.6 0-3 .2-4.3.3l-4.2.3z"/><path d="M40.7 51.5l3.1 1.5c1.9.8 4.3 2.2 6.7 3.5l3.6 1.9 3.1 1.6 3.1 1.4L59 64l-3-1.9-3-2-3.3-2.4-6.2-4.3-2.8-1.9zm7.2-6.1s.3.3.8.7l2.1 1.8 3.1 2.4 3.6 2.8c.6.5 1.2 1.1 1.7 1.6.6.5 1 1.2 1.5 1.7.5.6 1 1.1 1.3 1.7.4.6.7 1.2 1 1.7.4.5.5 1.1.7 1.5.2.5.3.9.5 1.2l.4 1-2.6.8-.3-.9c-.1-.3-.2-.7-.3-1.1s-.2-.9-.5-1.4c-.2-.5-.5-1-.7-1.6s-.6-1.1-1-1.7-.7-1.2-1.2-1.7l-1.4-1.7-3.2-3.2-2.8-2.7-1.9-2-.8-.9z"/><path d="M54.8 38.5l2.1 3.4 4.5 7.5 2.2 4.2c.3.7.7 1.3 1 2 .3.6.5 1.2.7 1.8l1.5 3.7-2.7.8-1.1-3.7c-.2-.6-.3-1.2-.5-1.8-.2-.7-.5-1.3-.7-2l-1.6-4.3-3.6-7.9-1.8-3.7zm12.1-1.7s-.1.4-.2 1.2l-.4 3-.4 4.3c0 .8-.1 1.6 0 2.4l.1 2.5.5 2.4c.1.8.5 1.5.7 2.2s.5 1.4.9 2l.9 1.7c.3.5.7.9.9 1.4.3.4.5.7.8 1 .4.6.7.9.7.9L69 63.4s-.2-.4-.6-1c-.2-.3-.4-.7-.7-1.2l-.9-1.6c-.3-.6-.5-1.3-.8-2s-.5-1.5-.7-2.3-.5-1.6-.5-2.5l-.2-2.6.1-2.6c0-.9.2-1.7.3-2.5.2-1.6.6-3 .8-4.3l.7-3c.2-.6.4-1 .4-1zm26.5-4.1s.4.1 1.2.2c.8.2 1.8.3 3.1.7l2.1.6c.7.2 1.5.5 2.3.8s1.6.5 2.4 1l2.4 1.3 2.2 1.6c.8.5 1.3 1.2 2 1.7.6.6 1.3 1.1 1.7 1.8l1.4 1.7c.5.5.7 1.1 1 1.6l.7 1.2.6 1.1-2.6 1.2-.5-1c-.2-.3-.3-.7-.6-1.2-.2-.5-.4-1-.8-1.5l-1.1-1.7c-.3-.6-.9-1.2-1.4-1.8s-1-1.3-1.7-1.8l-1.9-1.7-2.1-1.4c-.7-.5-1.5-.8-2.2-1.2s-1.4-.7-2.1-1l-2-.8c-1.2-.5-2.3-.7-3-1s-1.1-.4-1.1-.4z"/><path d="M111.3 22.9l1.1 4.1 2.2 9 1.4 4.7c.3.7.5 1.5.7 2.1a23.02 23.02 0 0 1 .7 1.9c.4 1.2 1 2 1.2 2.7l.5 1-2.6 1.2s-.2-.4-.4-1.1-.7-1.7-1-3l-.6-2c-.2-.7-.3-1.5-.5-2.3-.4-1.6-.6-3.2-.9-4.9l-1.3-9.2-.5-4.2zm13.2-3.3l-.6 1.1c-.2.3-.4.8-.7 1.2-.3.5-.5 1-.8 1.6-.2.6-.5 1.3-.8 2s-.4 1.5-.7 2.3c-.2.8-.5 1.6-.6 2.5l-.4 2.6-.1 2.6c-.1.8 0 1.7.1 2.5s.1 1.6.3 2.3.3 1.4.4 2 .3 1.2.5 1.7l.5 1.3c.3.7.4 1.1.4 1.1l-2.7 1-.3-1.3c-.1-.4-.2-.9-.4-1.4s-.3-1.2-.3-1.9c-.1-.7-.2-1.4-.2-2.2-.1-.8 0-1.6 0-2.5s0-1.7.2-2.6l.4-2.7.7-2.6c.2-.9.5-1.7.8-2.5s.5-1.6.9-2.3l1-1.9.9-1.6c.3-.5.6-.8.8-1.2l.7-1.1zm4 7.9l1.1 3.9c.7 2.3 1.5 5.4 1.9 8.7.2 1.6.2 3.3.1 4.9l-.4 2.3c-.2.7-.3 1.4-.6 2-.2.6-.5 1.2-.7 1.6-.2.5-.4.9-.6 1.2l-.6 1-2.3-1.7s.2-.3.6-.8c.2-.2.4-.6.6-1s.5-.8.7-1.3c.3-.5.5-1 .7-1.7l.6-2c.3-1.4.4-2.9.5-4.5 0-3.1-.5-6.3-.9-8.7l-.7-3.9z"/><path d="M146.9 36s-.3.3-.9.7l-2.5 2-1.6 1.4c-.6.5-1.1 1.1-1.6 1.6l-1.7 1.8c-.5.7-1.1 1.3-1.6 2l-1.4 2.1c-.5.7-.8 1.4-1.2 2.1-.3.7-.8 1.4-1 2-.2.7-.5 1.3-.7 1.9s-.4 1.1-.4 1.6l-.3 1.3-.2 1.1-2.8-.5s.1-.4.4-1.2l.4-1.4c.1-.5.4-1.1.7-1.7l.9-2c.3-.7.8-1.4 1.3-2.1s.9-1.5 1.5-2.1l1.7-2.1 1.9-1.9c.6-.6 1.3-1.2 1.9-1.7l1.8-1.5 1.7-1.2c1-.8 2-1.3 2.7-1.7l1-.5zm8 5.8s.4.3 1 .9l1.1 1.1c.4.4.9 1 1.4 1.6 1 1.2 2 2.6 3 4.2.5.8 1 1.7 1.4 2.6.5.9.9 1.8 1.3 2.7l1.1 2.9.8 2.9.5 2.8.2 2.5-.1 2.2-.2 1.7-.3 1.5-2.7-.9s.1-.4.4-1.2l.3-1.4c.1-.6.2-1.2.2-1.9.1-.7 0-1.5.1-2.3l-.2-2.6c-.1-.9-.3-1.8-.5-2.8-.2-.9-.5-1.9-.8-2.8l-1-2.8-1.2-2.6c-.8-1.7-1.7-3.2-2.5-4.4-.4-.6-.8-1.2-1.2-1.6l-1-1.2-1.1-1.1zm17.1.9v3.6 1.8c0 .6-.1 1.3-.1 2l-.4 4.3-1.5 11.5-2.8-.5 2.9-11.2.9-4.1c.1-.7.3-1.3.4-1.9l.2-1.7.4-3.8z"/><path d="M184.8 45.6s-.2.5-.7 1.2c-.5.8-1.2 1.8-2.2 3-1.9 2.4-4.7 5.4-7.3 8.5-2.5 3.1-4.8 6.5-5.5 9.2-.2.7-.2 1.2-.2 1.7a3.73 3.73 0 0 0 .2 1.2c.2.6.5.9.4.9l-2.5 1.4s-.4-.6-.6-1.7c-.1-.5-.2-1.2-.1-2 0-.7.2-1.5.5-2.4 1.1-3.3 3.9-6.5 6.7-9.4 2.9-3 5.9-5.7 8-7.9 1.1-1.1 1.9-2.1 2.4-2.8.7-.4.9-.9.9-.9zm5.3 14.5l-.9.3c-.6.2-1.4.5-2.3.9-.5.2-1 .4-1.5.7-.5.2-1.1.6-1.6.8-1.1.6-2.2 1.3-3.4 2.1l-1.6 1.2c-.5.4-1 .9-1.4 1.3s-.9.8-1.2 1.3c-.3.4-.7.8-1 1.2-.6.7-1 1.5-1.3 1.9-.3.5-.5.7-.5.7L171 71s.2-.3.6-.8.9-1.3 1.7-2l1.3-1.2c.4-.4 1-.8 1.5-1.2s1.1-.8 1.7-1.2l1.8-1.1 3.7-1.7c.6-.2 1.2-.5 1.8-.6l1.6-.5 2.4-.6c.7.1 1 0 1 0z"/><path d="M194.5 75.9s-1.6-.2-4-.9l-8.6-2.2-2.3-.3c-.8-.1-1.5 0-2.2 0l-2 .3c-.6.1-1.2.4-1.7.5l-1.4.6c-.4.2-.8.4-1 .6l-.9.5-1.5-2.5 1.1-.5c.4-.2.8-.4 1.3-.5.5-.2 1.1-.4 1.7-.5l2.1-.4c.7-.1 1.5-.1 2.3-.1s1.6.1 2.5.3c.8.1 1.6.3 2.4.6 3.2 1 6.1 2.4 8.4 3.2 2.2.9 3.8 1.3 3.8 1.3zm-33.4.9c-.4.3-.8.6-1.1 1-.2-.6-1.1-1.1-1.7-.5-3.9 3.3-6.6 8.8-10.1 12.6-4.2 4.8-9 11.7-15 14.3-1.8.8-.5 3.5 1.2 3 1.7-.4 3.3-1.4 4.8-2.5-.2.4-.4.7-.6 1.1-1.1 2.1 2.3 3.7 3.3 1.6l9.8-14.8c1.8-2.5 3.8-4.8 5.4-7.4 1.6-2.5 4.1-4.3 5.4-6.9.7-1.2-.4-2.3-1.4-1.5zm-41.6-14.4c-.1-1.1-1.8-1.6-2-.4 0 .2 0 .3-.1.5-.4 0-1 .1-1 .6-.2 7.2-2.1 27.6-3.2 35.5-.2 1.6 1.9 2.2 3 .9.1-.2.3-.4.4-.6v.7c.1 2.2 3.9 2.2 3.9-.1.1-12.2 0-24.8-1-37.1zm-18 41c-4.1-4.3-18-17.3-20.7-19.1-2.2-1.4-3.9-3.7-6.2-4.8-.1-.1-.3-.2-.5-.2H74c-.8-.1-1.4.5-1.5 1.2-.3.3-.5.9-.2 1.3 2.6 4 17.7 16.2 20.3 24.7.7 2.4 4.7.7 3.6-1.6l-.3-.6c.8.7 1.6 1.4 2.5 2.1 2.1 1.6 5-.9 3.1-3z"/><path d="M92 83.8c-1.9-2.5-5.9-3.2-8.7-4.8 2.2-1.3 5-2.6 6.2-4.8-1.8-.5-3.9-.2-5.8.1.8-1.4 6.2-5.1 5.2-6.9-1.3-2.2-5.7.6-7 1.2.7-4.1 5.7-7.1 4.3-11.7-7.5 1.3-9.5 9-11.1-1.9-1.1.8-2.9 1.7-3.8 3.1-2.2-1.9-1.5-5.2-4.5-5.9-.2 1.7-.8 3.5-1.1 5.2-1.1-1.4-2.5-3.2-3.9-4.3.1 1 .1 1.9.2 2.8.1.1 0 .1-.1.1-.7-1.4-1.7-2.1-3.3-2.2-.5 1.8.3 3.7 1.2 5.5-1.5-.9-3.1-1.6-4.8-1.6.6 1 2.1 1.9 3.1 2.7-1.8-.2-3.8-.5-5.6-.1 2 1.3 3.8 2.9 5.8 4.3-2.1.5-4.3.1-6.3 1 .5.2 1.1.3 1.7.5a8.53 8.53 0 0 0-2.5 1.3 5.77 5.77 0 0 0 2.6.9c-1.2.4-2.3.8-3.1 1.3 1.8.5 3.7.8 5.6 1.1-2.7.9-5.1 2.1-5.8 4.6 1.3.3 5-.9 7.3-.8-.8.5-1.7 1-2.5 1.4-1.8.9-3.4 1.9-4.5 3.5 2.8-.6 5.6-1.4 8.4-1.9-1.8 3-6.4 7.3-5.6 10.3 3.7-.4 5.6-4.4 9.2-5.2.7 4-3.4 10.2.7 12.9 1.5-2 1.9-4.5 2.8-6.7 1.3 1.6 1.7 4 2.4 5.9.4-3.5 4-11.1 5.2-2.8.8-1.6 1.1-3.6 1.5-5.5.6.8 2.4 2.6 3.1 3.8.6-1.6 1-3.7 1.2-5.6 1.4 1.1 2.7 3.1 4.6 4 .3-1.8-.6-3.8-1.5-5.4 2.9.4 6.4 1.7 9.2.6zm54.8-19.6c-.8-.7-1.5-1.2-2.2-1.6-1.7-2.2-6-4.1-8.7-5.4 3.9-1.8 9.9-3.7 9.9-5.7 0-2.5-8.4-1-12.8-.5.6-1.4 1.5-3.2 2.3-5 .5-.7.9-1.5 1-2.3.3-.9.7-1.7.8-2.5-2.9-.6-6.6 1.4-9.7 3.6.8-3.5 1.8-8.5-1.2-8.4-1.3 0-2.4 3-3.3 6-1.1-2-2.5-4-3.9-5.4-.3.6-.5 1.3-.7 2.1l-.1-.1c-.7-.7-1-1.5-2-1.8-.5.8-.5 4.5-.2 7.3-2-2.5-4.2-4.7-6.8-4.9.3 2.1.9 4.4 1.6 6.6-3.1-1.5-6.3-2.6-8.9.5h2.8c-.8.2-1.5.5-2.3.8 2 .4 3.7 1.9 5.6 2.7.3.1.5.2.8.3-4.2.9-8.8 1.5-11.3 5.4.9-.1 2.2-.4 3.6-.7-.8.7-1.4 1.4-1.6 1.7 1.2 0 2.5.1 3.7.1-1.7.9-3.3 2-3.5 3.8 1.3-.1 2.7-.1 4.1-.2-1.6 1.2-2.7 2.8-2.8 5.3 1.8-.1 8.4-3.6 9.7-2 1.8 2.3-6.2 9.2-2.7 11.7 2.7 1.9 5.6-7.3 8.9-5.7 2.1 1 .1 6.2 2 7.9 1.3-1.8 2.5-7.5 5.4-7.5 2.3 0 3.3 5.5 4.7 7 .5-2-.5-7.7 2-8.7 2.6-1.1 5.6 4.2 8.3 5.1.3-2.3-3.7-7.1-4.7-9.9 3.4-.1 6.7-.2 10 .4.8.1 1.6.1 2.2 0zm28 11l1.4-1.4 6.9-6.2c-.7-.1-1.4-.1-2.1-.1v-.1c-.3 0-.5.1-.8.1-2.3.2-4.6.9-6.8 1.8.6-3.1 4.9-5.4 3.7-9-2.7-.1-4.2 1.8-5.5 4a20.01 20.01 0 0 0-.8-6.5c-1.6.7-2.3 2.2-2.9 3.8 0 .1 0 .1-.1.2-.6-2.3-1.5-4.3-2.5-5.8-1.5 1.2-2.7 3.3-3.4 5.6-.6-2.3-1.7-4.2-4.1-4.4-.4.8-.4 2-.2 3.2-.6-.8-1.3-1.5-2.2-2-.4 2.2.3 4.8 1.3 7.4l-3-2.2c-.4 1.5.7 3.9 1.7 5.8-2.2-1.9-4.7-3.5-6.7-3 .3 1.7 1.8 2.6 3.4 3.4-2-.5-4-.5-5.8.5 1.1 1.1 2.4 2.2 3.8 3.2-4.3-.1-8.6-.5-12.4 2 2.4 0 5-.4 7.5-.6a10.07 10.07 0 0 0-4.1 2.7c1.6-.1 3.1.2 4.6.6-3.6 1.3-7.5 2.4-7.9 5.8 1.3.1 5.8-1.8 8.8-2.5-1.7 1.2-3.1 2.6-3.1 3.9 1.1.2 2.3 0 3.5-.2-2.1 2-4.9 4.2-5.1 5.8 3.9.5 8.1-4.3 11.9-5.3-.2 3.5-2.7 6.8-3.2 10.3 2.6-1 4.1-4.5 6.6-5.7.4 3.8 1.2 8.2 3.4 8.7 1.4.3 1-2.4 1.2-4 .2-1.3.5-2.7.7-4h.1c1.1 2 5.7 8.8 6.8 9.8.2-3.7-.6-7.8-1.4-11.7 1 1.4 4.3 6.7 5.9 7.6.7-3.1-.3-7.5-1.7-11 3.2.8 6.5 2.2 9.5 3.4-2.1-3.8-6.2-6.7-9.7-9.3 3.6-.7 7.3-1.4 11-1.5-1.8-1.7-5.1-2.5-8.2-3.1z"/></g><g fill="#d42027"><use xlink:href="#B"/><use xlink:href="#B"/></g><path d="M112.4 58.7c-.1 4.6 3.5 8.3 8 8.4s8.1-3.6 8.2-8.2-3.5-8.3-8-8.4c-4.4 0-8.1 3.6-8.2 8.2z" fill="#fff"/><path d="M112.8 56.6c.2 4.3 3.6 7.8 7.9 7.9 3.8.1 6.9-2.5 7.9-6.1v.5c-.1 4.6-3.7 8.2-8.2 8.2-4.5-.1-8-3.8-8-8.4.1-.8.2-1.4.4-2.1z" fill="#e9e8e8"/><path d="M116.5 59.7c0 2.3 1.7 4.2 4 4.2 2.2 0 4.1-1.8 4.1-4.1s-1.7-4.2-4-4.2-4.1 1.9-4.1 4.1z" fill="#010101"/><path d="M121.3 58c0 .8.6 1.5 1.4 1.5s1.4-.6 1.5-1.4c0-.8-.6-1.5-1.4-1.5-.9-.1-1.5.6-1.5 1.4zm-3.5 4.6c0 .5.4.9.9.9s.9-.4.9-.9-.4-.9-.9-.9-.9.4-.9.9z" fill="#fff"/><g fill="#d42027"><use xlink:href="#C"/><use xlink:href="#C"/></g><path d="M64.6 79.3c2.9 3.5 8.1 4 11.5 1.2 3.4-2.9 3.8-8 .9-11.5s-8.1-4-11.5-1.2c-3.5 2.8-3.9 8-.9 11.5z" fill="#fff"/><path d="M63.4 77.5c3 3.2 7.9 3.6 11.2.8 2.9-2.4 3.6-6.4 2-9.7a1.38 1.38 0 0 0 .4.3c2.9 3.5 2.5 8.7-.9 11.5-3.4 2.9-8.6 2.3-11.5-1.2-.5-.4-.9-1.1-1.2-1.7z" fill="#e9e8e8"/><path d="M68.3 77.5c1.5 1.7 4 2 5.7.6s1.9-4 .4-5.8-4-2-5.7-.6c-1.7 1.5-1.9 4-.4 5.8z" fill="#010101"/><path d="M70.8 73c.5.6 1.4.7 2 .2s.7-1.4.2-2-1.4-.7-2-.2c-.7.5-.8 1.4-.2 2zm.4 5.8c.3.4.9.4 1.2.1.4-.3.4-.9.1-1.2-.3-.4-.9-.4-1.2-.1-.4.2-.5.8-.1 1.2z" fill="#fff"/><g fill="#d42027"><use xlink:href="#D"/><use xlink:href="#D"/></g><path d="M154.6 75c-1.9 4.2-.1 9.1 4 10.9s8.9-.1 10.8-4.3.1-9-4-10.9c-4.1-1.8-9 .2-10.8 4.3z" fill="#fff"/><path d="M155.7 73.2c-1.5 4.1.2 8.6 4.2 10.4 3.4 1.5 7.3.4 9.6-2.5-.1.2-.1.3-.2.5-1.9 4.2-6.7 6.1-10.8 4.3s-5.9-6.7-4-10.9l1.2-1.8z" fill="#e9e8e8"/><path d="M157.9 77.6c-.9 2.1 0 4.5 2 5.4s4.4 0 5.4-2.1c.9-2.1 0-4.5-2-5.4-2.1-.9-4.5 0-5.4 2.1z" fill="#010101"/><path d="M163 77.9c-.3.7 0 1.6.7 1.9s1.6 0 1.9-.8c.3-.7 0-1.6-.7-1.9-.8-.3-1.6 0-1.9.8zm-5 2.8c-.2.5 0 1 .4 1.2s1 0 1.2-.5 0-1-.4-1.2c-.5-.1-1 .1-1.2.5z" fill="#fff"/><g fill="#010101"><path d="M110.3 194.5c.7-.4 1.5-.7 2.1-1.4.5-.5.5-1.3.3-1.9 0-.1-.1-.2-.1-.3-.2-.6-.9-1.1-1.5-1.2-.4-.1-.8-.1-1.2-.1-.7-5.4.7-10.9 1.7-16.2.2-1.1-1.3-2-1.9-.9-1.5 2.5-2.5 5.7-3 9-1-2-2.2-4-3.3-6.2-.6-1.1-2.2-.4-1.7.8 2.6 7.1 4.2 13.3 4.7 20.4-.8-.6-1.7-1.2-2.7-1.7-1.1-.7-2.2-1.2-3.6-1.4-1-.1-3 .4-3.8-.3-1.6-1.5-4 .9-2.4 2.5 1.3 1.3 3.2 1.2 4.9 1.1 1.3-.1 2.8.5 4.2 1.2-1.7.3-3.4.9-4.7 1.9-1 .5-1.8 1.5-2.4 2.8-.8 2 2.3 3.9 3.5 1.9 1.5-2.6 5.9-3.3 8.6-2.4 1.1.4 2.8-.4 2.7-1.7l-.3-5.2c-.1-.2-.1-.5-.1-.7zm9.1 0c-.7-.3-1.5-.6-2.2-1.2-.5-.5-.5-1.3-.4-1.9 0-.1.1-.2.1-.3.2-.6.8-1.1 1.4-1.3.4-.1.8-.2 1.2-.2.3-5.4-1.3-10.9-2.7-16.1-.3-1.1 1.2-2.1 1.9-1 1.6 2.4 2.8 5.6 3.6 8.8.9-2.1 1.9-4.1 2.9-6.3.5-1.1 2.1-.5 1.8.7-2.1 7.2-3.4 13.5-3.5 20.7a17.42 17.42 0 0 1 2.6-1.9c1.1-.7 2.2-1.3 3.5-1.6 1-.2 3.1.2 3.8-.5 1.5-1.6 4 .7 2.5 2.3-1.3 1.4-3.1 1.4-4.9 1.4-1.3 0-2.7.7-4.1 1.5 1.7.2 3.4.7 4.8 1.6 1.1.4 1.9 1.4 2.6 2.7 1 2-2.1 4-3.3 2.1-1.6-2.5-6.1-2.9-8.7-1.8-1.1.5-2.8-.2-2.8-1.6 0-1.7-.1-3.4 0-5.2-.1-.4-.1-.7-.1-.9z"/><path d="M163.1 149.8c-1.6-2-3.6-3.6-5.6-5.2l9.9 1c-.2-1.8-.6-3.4-1.3-4.8h.6c-.7-1.9-2.2-3.1-3.9-4a13.68 13.68 0 0 0-5.2-2.7c-1-.6-1.9-1.4-2.5-2.3 3.5-.2 6.9 1.5 10.2 2.2-1.6-2.6-3.9-4.5-6.5-6h.1c1.2-.4 5.3-1 6-2.2.6-1.1-.2-.9-1-1.6-1.7-1.3-3.4-2.4-5.3-3.2 1.7 0 3.4-.1 5.1-.5-1.3-3.8-7.4-4.9-11.1-6 1.7-.4 7.1-1.8 8.7-2.4-4.9-2.6-10.1-3.9-15.5-4.3 2.8-2.5 6.7-2.8 10.2-4.2-4.4-4.3-10-2.2-15.2-2.7 1.6-2.5 4.3-3.9 6.9-5.3-2.4-4-9-.3-11.8 2-.5-3.4.2-7.1-.2-10.5-4.5.5-8 5.6-9.9 9.3-2.1-4-3-9.5-3.2-14-2.9 4.2-4.1 8.4-4.7 13.3-1.3-4.3-2.9-8.3-5.5-12.1-.2-.1-.4-.1-.6-.1-1.9 2.5-3 6.9-3.1 11.1-3.7-4.3-8.1-8.5-13.2-8.1 2.5 5.3 6.3 10.6 8 16.4C98.9 98.6 88.6 90 82 94c6 1.8 9.7 4.1 14.5 8.3-9.7-.5-20.3-5.3-29.2 1.5 5.4.5 10.3.7 14.4 4.9-7.4-1.8-15.7.3-22.5 3.1 2.3-.3 12.1-.3 10.9 3.7-.5 1.6-13.7 5.1-16.3 7.9 2.9-.6 16.8-6 17.3-1 .3 3.6-11 7-12.6 11.1 3.5.7 7.3-1.4 11-1.5.1 5.1-7.7 7.9-8 13.8 3.3.5 6.1-1.8 9.3-2.2-3.1 2.9-5.8 6.5-5.9 9.4 1.3-.3 2.6-.7 3.9-1.3-.7 1.6-1.2 3.1-.6 3.9.2.2.4.4.6.5-.6 2-.8 4-.4 5.9.1.1.3.1.5.1 1.3-2 3.7-4.6 6.3-7-1.3 5.3-.8 12.1.9 16.5 1.8-.5 1.1-1.8 2.4-3.4 1.5-1.8 3-3.3 4.7-4.8h0c.3.2.5.5.7.8-1.6 4.9-1.9 10.6.8 12.8 1.3-1 2.8-2.3 4.4-3.8.6-.4 1.1-.7 1.5-1.1 1.9 3.7.6 8.3 3.1 11.6 1.3-1.2 2.6-5.1 4.6-4.9.1 0 .2.1.3.1-.3 2.3-.2 4.7-.1 7.1.9-1.1 1.8-2.2 2.6-3.3 1 2.3 2 4.9 2.7 5.8 4.1-7.1 6.2-8.1 11.1-.9 1-1.6 1.5-3.8 1.7-6.3 1.7 2.8 3.4 5.6 4.8 8.6 1.4-2.1 2.2-4.6 2.8-7.1.8 1.6 1.6 3.1 2.2 4.8 1.3-1.5 1.9-3.6 2.1-5.9.7 1.7 1.5 3.3 2.4 4.7.3-.9.7-1.8 1-2.7.3.4.6.7.9.8 2.2.7 3.4-2.2 4.2-5.4.7 1.3 1.5 2.6 2.4 3.8.9-1.7 1.4-3.4 1.7-5.1.2.6.5 1.2.8 1.8 1.8-2.1 1.4-5.1 1.3-7.9 1.5 2.3 3.3 4.4 4.9 5.8 1.1-1.9 1.7-5.7 1.7-9.8 2 1.8 4.1 3.5 6 4.9.4-.6.6-1.4.7-2.3.1 0 .2.1.3.1.3-1.1.1-2.2-.2-3.2-.2-2.7-1-5.8-2.2-8.7 3.7.5 6.1 4.3 9.3 5.6 0-4.7-3.7-7.6-6-11 3 .5 6.7 1.5 9.2 2.8-.3-2.5-1.8-4.5-3.8-6.1z"/><path d="M83 151.1c-.5-2.1-3.1-3.9-5.3-3.5-2.9 3.5-6.2 6.7-9 10.2-1.1 1.5-.7 4.2-.9 5.9-.2 2.7-.7 5.3-1.1 8-.9.6-1.6.5-2.7.4-1.4 0-3.2-.3-4.6.2-1.5.5-1.8 1.7-1.6 3.1.1.7.3 1.3.6 1.8a4.67 4.67 0 0 1 .5 1c.2.3.2 1.3.2.3 0 2.9 4.1 2.8 3.9-.1 0-1-.6-1.8-1.1-2.6h1c1 0 2.1.1 3.1-.1v.5c-.8 1.4-2.2 2.3-2.9 3.9-.5 1.2-1.3 2.6-.7 3.9s2.5 1.8 3.5 2.8v.5c.2 2.3 4.3 2 4.1-.3v-.2c.5-2-1.8-3.7-3.7-4.8.5-1 1.9-2.2 2.4-3 .5-.7.7-1.5.9-2.4.1-.1.1-.2.2-.3.1-.4.2-.9.3-1.3 1.1.4 2.1.5 3.3.7.9.1 1.7 0 2.6-.3-.2.6-.2 1.2-.3 1.8-.4 2.3 2.5 3.9 3.9 1.7.3-.5.7-1 1-1.5.5-.8.4-1.6 0-2.2.4-.9.9-1.7.8-2.8-.2-2.6-2.8-3-4.8-2.2-.8.3-1.4 1.1-2.3 1.4-.8.3-2-.1-2.9 0-.2 0-.3-.1-.5-.2.5-3 1.1-5.9 2.5-8.5 2.9-4.6 5.8-8.3 9.6-11.8zm68.2 1c.3-2.2 2.9-4.1 5.1-3.8 3.1 3.3 6.6 6.3 9.6 9.7 1.2 1.4 1 4.2 1.2 5.8.4 2.7 1 5.3 1.6 7.9.9.6 1.7.4 2.7.3 1.4-.1 3.2-.5 4.6-.1 1.5.4 1.9 1.6 1.8 3 0 .7-.2 1.3-.5 1.9-.2.3-.3.7-.5 1-.2.4-.2 1.3-.2.3.2 2.9-3.9 3-3.9.1 0-1 .5-1.8.9-2.6h-.9c-1 0-2.1.2-3.1.1v.5c.9 1.4 2.4 2.1 3.1 3.7.6 1.2 1.4 2.5.9 3.9-.5 1.3-2.4 1.9-3.4 3v.5c-.1 2.4-4.1 2.3-4.2-.1v-.2c-.6-1.9 1.6-3.8 3.5-5.1-.5-1-2-2.1-2.6-2.9-.5-.7-.8-1.5-1.1-2.3-.1-.1-.2-.2-.2-.3-.2-.4-.3-.8-.4-1.3-1.1.4-2 .6-3.2.9-.9.2-1.7.1-2.6-.1.2.6.3 1.2.5 1.8.5 2.3-2.3 4.1-3.8 2-.4-.5-.7-1-1.1-1.5-.6-.7-.5-1.5-.1-2.2-.4-.9-1-1.7-1-2.7 0-2.6 2.7-3.2 4.7-2.5.8.3 1.5 1 2.3 1.3.8.2 2-.2 2.9-.2.2 0 .3-.1.5-.2-.7-2.9-1.4-5.9-3-8.4-3-4.4-6.1-7.9-10.1-11.2zm-120.7-8c-.2-.4-.4-.7-.6-1h.8c.3.3.8.4 1.3.3 15.3-3.5 29.7-5.7 44.4-11.5 1.2-2.8 1.6-6.6-.7-8.2-6.8 2.3-13.2 6.4-19.8 9.2-7.7 3.2-16.5 3.7-24.2 6.8l-.6-.6c.4-.9.7-1.9 1-2.8.4-1.3.6-2.7.7-4.1.1-.6.1-1.1.1-1.7 1.6 1.1 3.6-.9 2.2-2.5-.9-1-2.3-2.8-3.9-1.8-1.9 1.2-1.6 3.1-1.7 5.1 0 1.5-.3 3-.7 4.5-.3-.5-.6-1-.8-1.5-.7-1.2-2.3-3.2-3.8-3.3-1.3-.1-2.3-.5-3.7-.1-.7.2-1.3.9-1.8 1.4-.2.2-.5.6-.8 1-.6-.1-1.2.1-1.6.5-.8.8-.8 2.1-.5 3.2.3.9 1.6 1.5 2.5 1a7.55 7.55 0 0 0 1.4-1.1c-1 1.7-.2 4.2-.3 6-.1 1.9-1 4.6 1.7 5.2 1.2.3 2.6-.3 2.7-1.7 0-.6-.1-1-.2-1.5 0-.4-.1-.8-.3-1.1.1-.8.1-1.6.1-2.4 0-.5-.1-.9-.2-1.4.2.2.4.3.6.4.7.4 1.3.8 1.9 1.2-.1.3-.1.7 0 1 .3 1.1 1.4 2.3 1.9 3.5.1.3.8 2 1.2 3.3h-.1v.1c-.2 0-.4.1-.5.1-2.1.8-1.1 3.7.9 3.7.7.9 2.3.8 3-.1 1.3-1.7.6-3.7-.1-5.5-.7-1.4-1-2.5-1.5-3.6zm-10.1-8.3c.3-.3.5-.6.8-.9 1.3-1.5 2.9-.2 3.8 1.2l.6.9c-1.7-1.3-3.3-2.7-5.2-1.2z"/><path d="M49.9 161c-.4.2-.8.4-1.1.7-.6.3-.9.7-1.1 1.2-.8-.7-1.8-2-2.4-2.5l-2.7-2.5c-.7-.9-1.3-1.9-1.7-2.9h.2c13.9-4.8 34.2-9.3 34.5-9.3 1.4-2 2.5-4.4 1.5-6.8-.9-2.1-2.3-2.9-4-3.2-3.1 1.1-13.9 6-16.6 7-5.9 2.3-11.1 5.6-16.7 8.3-.1 0-.2.1-.2.2l-.3-.3c-.5-.6-.9-1.2-1.4-1.9-.4-.5-.5-1.3-.7-1.9-.4-1.2-1.2-2.5-2.6-2.5-.7 0-1.3.5-1.8 1-.3.3-.5 1.1-.7 1.3-2.2 1.3.5 4.5 2.2 2.8 0 0 .1 0 .1-.1.3.8.9 1.5 1.5 2.2.5.5.9 1.1 1.4 1.5a4.44 4.44 0 0 0-1.1.8c-.9.8-1.6 1.7-2.6 2.4-1.9 1.2-5.1 1.6-6.2 3.7-.3.6-.3 1.3.1 1.8 1.4 1.7 3.7 1.6 5.8 1.6.9.4 1.5.3 2.4-.1 1.8-.8 1.3-3.6-.6-3.8h-.3c.6-.3 1.1-.7 1.7-1.1.8-.6 1.3-1.3 1.9-2 .8 3.5 4.1 6.1 6.5 8.6 1 1.1 2.7 3.1 4.5 2 1.3-.8 3-2.3 3.5-3.7.6-1.7-1.4-3.4-3-2.5zM200 142.4c-.6 1.9-1.2 3.9.2 5.5.7.9 2.3.9 3 0 2-.1 2.9-3.1.7-3.8-.2 0-.4 0-.5-.1v-.1h-.1c.3-1.3.9-3.1 1-3.3.4-1.1 1.4-2.4 1.7-3.6.1-.4.1-.7-.1-1 .6-.4 1.1-.9 1.8-1.4.2-.1.4-.3.6-.4 0 .5-.1.9-.1 1.4 0 .9.1 1.6.2 2.4-.2.3-.3.7-.3 1.1-.1.5-.2.9-.1 1.5.2 1.4 1.6 1.9 2.8 1.5 2.6-.8 1.5-3.4 1.3-5.3-.2-1.8.4-4.3-.7-5.9.4.4.9.8 1.4 1 .9.4 2.2-.3 2.4-1.2.3-1.1.2-2.4-.7-3.2-.5-.4-1.1-.5-1.7-.4-.3-.4-.7-.8-.9-.9-.5-.5-1.2-1.1-1.9-1.3-1.4-.4-2.4.1-3.7.3-1.5.3-3 2.3-3.6 3.6-.2.5-.5 1-.8 1.6-.5-1.5-.9-2.9-1-4.5-.2-1.9 0-3.9-2-4.9-1.7-.9-3 .9-3.8 2-1.3 1.6.8 3.5 2.3 2.4 0 .6.1 1.1.2 1.6.2 1.4.5 2.8 1 4.1.3.9.7 1.9 1.2 2.8l-.6.6c-7.9-2.5-16.7-2.5-24.6-5.3-6.8-2.4-13.4-6.1-20.3-7.9-2.2 1.7-1.6 5.5-.2 8.2 15 4.9 29.5 6.3 45 8.9.5.1 1-.1 1.3-.3h.8c-.2.3-.3.7-.5 1-.1 1-.3 2.2-.7 3.3zm5.6-10.8c.2-.3.4-.6.5-.9.9-1.4 2.4-2.8 3.8-1.4.3.3.6.6.8.9-2.1-1.4-3.6 0-5.1 1.4zm-24 26.9l1.2.6c.6.2 1 .7 1.1 1.2.8-.8 1.7-2.1 2.2-2.7.9-.9 1.8-1.7 2.5-2.7.7-.9 1.1-1.9 1.5-3h-.2c-14.2-4-34.6-7.2-35-7.2-1.6-1.9-2.8-4.3-1.9-6.7.8-2.2 2.2-3 3.8-3.5 3.1.9 14.2 5.1 16.9 6 6 1.9 11.4 4.9 17.2 7.3.1 0 .2.1.2.2l.3-.3c.4-.7.9-1.3 1.3-1.9s.4-1.3.6-2c.4-1.2 1.1-2.6 2.5-2.6.7 0 1.3.4 1.8.8.3.2.5 1.1.8 1.3 2.2 1.2-.2 4.5-2 3 0 0-.1 0-.1-.1-.3.9-.8 1.6-1.4 2.3-.4.6-.8 1.1-1.3 1.6.4.2.8.4 1.1.7 1 .8 1.7 1.6 2.8 2.2 1.9 1.1 5.2 1.3 6.4 3.3.3.5.3 1.3 0 1.8-1.3 1.8-3.6 1.8-5.7 1.9-.9.4-1.5.4-2.4 0-1.8-.7-1.5-3.6.4-3.8.1 0 .2 0 .3-.1-.6-.3-1.2-.6-1.7-1-.8-.5-1.3-1.2-2-1.8-.6 3.5-3.7 6.3-6 9-1 1.1-2.5 3.2-4.4 2.2-1.3-.7-3.1-2.2-3.7-3.5-.5-1.4 1.3-3.3 2.9-2.5z"/></g><path d="M102.5 119c-7.6 9.2-9.5 25.4-2.3 34.1 6.8 8.1 27.1 7.2 33.2 1 6-6 4.2-18 2-25.8-2.1-7.7-5.9-12.2-14-15.1-6.8-2.4-14.3.3-18.9 5.8z" fill="#d42027"/><path d="M129.9 141.9c-4.4-1.1-6.8 1-10.6 1.4-2.2.2-2.7-1.1-5-2-4.6-1.9-13.2.2-17.7 4.6.7 2.7 1.9 5.2 3.6 7.2 6.8 8.1 27.1 7.2 33.2 1 2.2-2.2 3.3-5.1 3.8-8.3-1.9-1.8-4.4-3.1-7.3-3.9zm-9.8-9.9c1.5.4 3.5 2.4 4.8.1 1.3-2.4-3.9-6.4-4.9-8.2-2.3-4-1.4-7.3-.3-11.2-2.6-.6-5.2-.5-7.6.2 1.2 3.3 2.1 6.8 2.5 10.3.5 4.1 0 4.6-2.8 6.9-1.5 1.2-3.5 2.5-1 4.1 2 1.3 3.6-.8 5.1-1.6 2-1.3 1.9-1.2 4.2-.6z" fill="#010101"/><path d="M111.2 148.7c-1.7 1.6-.5 6.2.6 9.9 2.7.4 5.4.5 8.1.3 0-3.9.3-7.8.1-11.8-2.2.1-7.1 0-8.8 1.6zm11.5-.4c-1 1.2 0 6.5 1.2 10 3.5-.7 6.5-1.8 8.6-3.4.5-3.4 0-7-1.1-9.5-2 .5-7.6 1.6-8.7 2.9zm12.8-20c-1.3-4.8-3.3-8.3-6.5-11-2 4.5-4.2 9.5-4.3 14.1-.1 3.3 1 3.3 4.2 4 3.7.8 4.1 1.6 5.7-2 .5-1.1.9-2.2 1.2-3.3 0-.6-.1-1.2-.3-1.8zm-27.6 29.4c.2-3.1-.4-7-.7-8.5-.6-3.3-.4-4.5-3.4-4.9-4.5-.5-5.4 2.9-5 6.8.4.7.9 1.3 1.4 1.9 1.8 2.2 4.6 3.7 7.7 4.7zm8.5-40.9c0 2.2-.7 5 .1 6.9 2.6-1.3 6.3 1 7.9-1.5.8-1.3.8-4.5.5-7.5-1-.5-2.2-1-3.4-1.4-1.8-.6-3.6-.9-5.4-.9 0 1.4.3 3 .3 4.4zm-14.5 18c3.6-2.5 7.3-3.2 6.6-8.1-.5-3.5-1.8-7-3.8-9.9-.8.7-1.5 1.4-2.1 2.2-1.8 2.2-3.4 4.9-4.5 7.7.7 3.1 2 6 3.8 8.1z" fill="#fff"/><defs ><path id="B" d="M120.4 67.6c-5.4-.1-9.7-4.6-9.6-10.2 0-.5.1-1 .2-1.6.8-4.9 4.9-8.4 9.8-8.3 5.4.1 9.7 4.6 9.7 10.2-.2 5.6-4.7 10-10.1 9.9z"/><path id="C" d="M76.4 80.9c-4.1 3.5-10.4 2.8-13.9-1.4-.3-.4-.6-.8-.9-1.3-2.6-4.2-1.7-9.6 2-12.7 4.1-3.5 10.4-2.8 13.9 1.4 3.5 4.3 3.1 10.6-1.1 14z"/><path id="D" d="M158.4 86.4c-4.9-2.2-7.1-8.1-4.8-13.2.2-.4.5-.9.8-1.4 2.7-4.1 7.8-5.7 12.2-3.8 4.9 2.2 7.1 8.1 4.8 13.2s-8.1 7.4-13 5.2z"/></defs></svg>