<svg xmlns="http://www.w3.org/2000/svg" xmlns:xlink="http://www.w3.org/1999/xlink" viewBox="0 0 231 231" xmlns:v="https://vecta.io/nano"><style><![CDATA[.G{fill:#010101}.H{fill:#fff}.I{fill:#d42027}.J{fill:#f0d911}.K{fill:#e9e8e8}]]></style><path d="M66 56.1c-23 20.4-5.1 52.4-14.6 76.6-6 15.3-30.8 17.2-31.2 35.2-.6 23.4 25.9 10.9 37 9.9 16.6-1.5 26.8 14.9 43.1 13.5 6.9-.6 13.3-5.1 20.3-5.1 6.6 0 11.8 3.6 18 5.3 12.6 3.4 26 1.7 39 4.4 17.4 3.6 43.7-8.6 34.2-33.6-9.4-24.5-41.4-10.7-57.5-24-13-10.8-16.8-36.3-19.6-53.2-6.2-37.1-43.9-51-68.7-29z" class="G"/><g class="I"><path d="M50.1 39.4l5.1 1.9 5.1 2.2c.9.5 1.9.8 2.8 1.4S65 46 66 46.6l2.7 2c.9.6 1.6 1.5 2.4 2.2l1.1 1.1.9 1.2 1.6 2.2c.5.7.8 1.4 1.2 2l.9 1.6.7 1.4-3.2 1.3s-.2-.5-.6-1.3a11.64 11.64 0 0 1-.6-1.5c-.3-.6-.5-1.3-.9-1.9l-1.3-2.2c-.2-.4-.5-.8-.7-1.2l-.9-1.1c-.6-.7-1.2-1.6-2-2.3L65 48l-2.6-1.9c-.8-.7-1.8-1.1-2.6-1.7-1.7-1.1-3.4-1.9-4.8-2.7l-4.9-2.3zm18.7-11.2l1 1 1.1 1.2c.4.5.9 1 1.3 1.7.5.6.9 1.4 1.4 2.1l1.4 2.5c.9 1.8 1.6 3.8 2.3 5.8 1.3 4 2.3 8.1 3.1 11.1l1.4 5-3.4.8s-.4-2.1-.9-5.2-1-7.2-1.9-11.3c-.5-2-1-4-1.7-5.8-.4-.9-.7-1.8-1.1-2.6s-.7-1.6-1.2-2.2c-.4-.7-.8-1.3-1.1-1.8-.4-.5-.7-1-1-1.3-.3-.6-.7-1-.7-1z"/><path d="M78 26.4l.8 1.3c.3.4.5.9.8 1.5s.7 1.2.9 2c.3.7.6 1.6.9 2.5l.8 2.8c.5 2 .8 4.1 1.1 6.3.5 4.3.9 8.5 1.5 11.6l.8 3.7c.2.9.4 1.4.4 1.4l-3.4.9s-.1-.6-.3-1.5a28.68 28.68 0 0 1-.5-4c-.3-3.3-.2-7.6-.3-11.9-.1-2.1-.2-4.2-.5-6.2-.2-1-.3-1.9-.5-2.8s-.4-1.7-.6-2.5-.5-1.4-.7-2.1c-.2-.6-.5-1.1-.7-1.5-.2-1-.5-1.5-.5-1.5zm12.4-.2l.4 5.1c.1.8.1 1.6.1 2.5v2.8 3l-.4 3.1c-.7 4-1.3 8-1.1 10.8 0 .7.2 1.3.3 1.8s.3.9.4 1.2.3.4.4.6c.1.1.1.2.1.2l-2.7 2.2s-.1-.1-.3-.4-.5-.7-.6-1.2a8.71 8.71 0 0 1-.5-1.9c-.1-.7-.1-1.5-.1-2.3.1-3.3 1.2-7.3 2.3-11.2.3-1 .5-1.9.7-2.9.2-.9.2-1.9.3-2.9L90 34c.1-.9.2-1.7.2-2.5.2-3.3.2-5.3.2-5.3zm12 2.2l-2 4.5c-1.2 2.7-2.6 6.3-3.7 10.1-.5 1.9-1 3.7-1.3 5.5a28.76 28.76 0 0 0-.4 4.7c.1.7 0 1.3.2 1.8.1.5.1 1 .3 1.3l.3 1.1-3.3 1.1s-.1-.6-.3-1.5c-.1-.5-.1-1.1-.1-1.7-.1-.7 0-1.4.1-2.2.1-1.6.5-3.4 1-5.2a40.54 40.54 0 0 1 2-5.5c1.6-3.7 3.4-7.1 4.9-9.7l2.3-4.3zm8.8 4.9l-.9.9-2.2 2.4c-1.7 2-3.8 5-5.3 8.1l-1 2.4c-.3.8-.5 1.6-.7 2.4s-.3 1.5-.4 2.2-.2 1.4-.1 2c0 .6 0 1.2.1 1.6.1.5.1.9.2 1.2l.3 1-3.4.9s-.1-.5-.2-1.4c-.1-.4-.1-1-.1-1.6s0-1.3.1-2c0-.7.2-1.5.4-2.3s.5-1.6.8-2.5a27.18 27.18 0 0 1 1.1-2.5c.4-.8.9-1.6 1.4-2.4 2-3.1 4.5-5.8 6.5-7.6 1-.9 1.8-1.7 2.5-2.1.5-.5.9-.7.9-.7z"/><path d="M116.2 42.7s-1.4.8-3.2 2.3c-.9.7-2 1.6-3 2.7-1 1-2.1 2.2-3 3.4l-1.2 1.9c-.4.6-.7 1.3-.9 1.9-.3.6-.4 1.3-.5 1.8 0 .6-.2 1.1 0 1.6 0 .2.1.5.1.7s.1.4.2.6c.1.3.2.6.4.8.3.4.4.7.4.7l-2.9 2-.6-1.2c-.2-.4-.3-.9-.5-1.5-.1-.3-.1-.6-.2-.9v-1c0-.7.2-1.5.4-2.2.3-.7.5-1.5 1-2.2.4-.7.8-1.4 1.4-2.1.5-.7 1.1-1.3 1.6-1.9 1.1-1.2 2.4-2.2 3.6-3.1l3.4-2.3 2.5-1.4c.6-.5 1-.6 1-.6zm-2 80.7c-.2.2-.5.5-.9.7l-1 .6c-.1 0-.2.1-.2.1l.4-.5 2.2-2.8-3 1.9-1.8 1-.1-.1 2.9-5-2.9 2.3c0-.2.1-.4.1-.6l.4-2.4.2-1.1s-.3.4-.6.9c-.4.5-.8 1.3-1.3 2.1-.2.4-.5.7-.7 1.1-.1.2-.2.3-.3.5 0 .1-.1.1-.1.2l.2-2.1.2-2.9.2-1.3s-.3.5-.6 1.2l-1.1 2.7c-.4 1-.8 1.9-1.2 2.5-.1.1-.1.2-.2.3-.2-.6-.3-1.5-.4-2.4-.1-.5-.1-.9-.1-1.4 0-.4 0-.8.1-1.2 0-.4.1-.6.2-.9.1-.2.1-.3.1-.3s-.1.1-.2.3-.3.4-.5.7-.4.7-.5 1.2c-.2.4-.3.9-.4 1.4-.1.3-.2.7-.2 1l-.5-1.4c-.1-.5-.3-.9-.4-1.3-.2-.4-.2-.9-.3-1.2l-.2-1.2-.2 1.2c-.1.4-.2.8-.2 1.3s0 1-.1 1.5v1.7-.1c-.5-.9-.8-1.9-1.2-2.6l-.5-1.2s0 .5.1 1.3.1 1.8.2 2.8c0 .2.1.5.1.7-.3-.3-.6-.5-.9-.8l-2.7-1.7-1.2-.8s.4.4.9 1.1c.6.6 1.3 1.5 2 2.4l.8 1.3.3.6c.1.2.1.4.1.6.1.3.1.6.1.8v.3l2.8-.5-.2-.4 1.1-.5-.7-1.3h.4v.3c.1.4.1.6.1.6l2.5-1.2 1.4 1.6s.2-.2.4-.6c.1-.1.1-.2.2-.3 0-.1 0-.2.1-.3v-.2l.1.1h0l-.2.4-.1.2v.1.2.1.1.2c0 .1 0 .1.1.2 0 .1 0 .1.2.4.2.2.4.3.6.4a.45.45 0 0 0 .5 0c.1 0 .3-.1.4-.1h.1 0l.3.5c-.1.1-.2.1-.2.1l1.9 2s.2-.3.6-.8c.3-.5.9-1.2 1.5-1.9.3-.4.5-.8.8-1.1s.4-.7.5-1c.3-.6.4-1 .4-1l-.7.7zm-4.6.9l-.4.4c0-.1.1-.4.2-.7.2.2.2.3.2.3zm-.5.5l-.1.1.1-.1h0zm-.5.9l.2-.4.3.5c-.1 0-.3 0-.5-.1zm-43.2 12.6c9.7-.7 20.2 5.4 29.3 7.9 13.6 3.8 27.4 4.8 41.4 5 10.5.2 23.7-.7 32.8 5.4 6.2 4.1 9.7 11.9 4.1 17.8-7.4 7.8-23.4 5.2-32.8 3.7-12.6-2-24.8-6.1-37.4-7.6-7.1-.9-13.5.5-20.6 1-9.5.8-22.8-.4-30.1-7.1-10.8-9.8.3-25.2 13.3-26.1z"/></g><path d="M125.4 165.9c-6.2-.5-13 .4-19.2-.8 0 1.8-.2 3.9-.3 5.9 7 1.1 13.9 2.8 20.9 4.4 1-1.8-1.5-4.7-1.4-9.5zm-40.9-11.8c4.7 0 9.2-.5 13.9.7.4-2.4.7-4.9 1.1-7.3l-4.8-1.2c-2.9-.8-6-2-9.1-3.2-.3 3.6-.2 7.6-1.1 11zm88.6 20.4c.8-.8 1.4-1.7 1.8-2.6-1.5-1.6-3.2-3.1-4.7-3.6-4.1-1.5-13.3 1.5-18.9 1.5-5.9-.1-16.7-4.5-21.7-1.1.2 2.5 2.5 5.6 5.1 8.5 1.8.4 3.6.7 5.5 1 9.5 1.5 25.5 4.1 32.9-3.7zm-90.8-2.9c6.6-.5 12.5-1.7 19.1-1.2 0-2.5.1-5 .2-7.6-6.5.4-12.7-2.8-19.3-3.1-8.4-.4-21.1.4-28.1-5.2-1.4 1.9-2.8 5-3.6 8.2.5.6 1 1.1 1.6 1.7 7.4 6.8 20.6 7.9 30.1 7.2zm46.9-20.5c-3.5 8.2 4 6.3 8.7 5.9s7.7-3.1 7.8-5.5c-3.3-.1-6.5 0-9.5-.1-2.4-.2-4.7-.2-7-.3zm-63.8-12.8c-3 .2-5.9 1.2-8.4 2.7.8 3.1 2.2 6.4 3.5 7.6 2.8 2.7 10.9-.4 14.9-1.9 4.9-1.7 4.7-2.1 3.5-6.2-4.6-1.4-9.1-2.5-13.5-2.2zm85.5 20.9c1.3 2.3 6.4 2.4 9.1 3.4 1.2-2.9 1.7-6 2.8-8.9-3.6-1.2-7.5-1.8-11.4-2.1-.6 3-1.1 6.4-.5 7.6zm-38.1-1.7c8.7 1.1 7.6-1.5 8-6.9-5.4-.4-10.7-1.1-16-2-.9 5.2-.4 7.9 8 8.9z" class="H"/><path d="M55.9 130.8c-1.7-1.7-3.8-2.3-6-3.3-2.9-1.3-5.3-3.5-7.3-5.9-3.8-4.7-5.8-11-5.4-17 0-.5-.1-1-.2-1.4 1.1.1 2.3-.1 3.5 0 .4.1.8.1 1.2.1h.7s-.1.1-.1.3c-.1.9 0 1.9.3 2.7 1 2.4 4.5 1.3 3.8-1.3-.3-1.1 0-2.6-.7-3.6-.7-1.2-2.2-1.6-3.5-1.7-1.9-.1-4.4-.2-6.3.7.6-1.5 1-3.2 1.3-4.1.2-.7.5-1.5.8-2.2.1.3.2.6.4.9.4.7.9 1.3 1.4 1.9 1.9 2.1 4.8-1.3 2.9-3.3-1.3-1.5-1.6-3.6-3.7-4.3-1.7-.5-2.9.5-3.8 1.8-.5.7-.8 1.5-1 2.3-.2-.5-.4-.9-.8-1.3-1.6-1.8-4.2-.1-6 .5-2 .6-4.8 1.3-5.2 3.8-.4 2.9 4 3.7 4.7 1.3l.6-.3c.7-.4 1.4-.7 2.1-1.1.4-.2.8-.5 1.2-.8.2-.1.3-.2.5-.2v.1c.2 1.2.1 2.5 0 3.7 0 .4-.1.9-.1 1.3 0 .3 0 .5.1.8-1.8-1.2-4.4-1-6.4-1.1-1.5-.1-2.8.7-3.4 2-.7 1.5-1.5 3-1.9 4.7-.7 2.6 3.3 3.6 4.4 1.3.2-.3.2-.7.3-1a12.2 12.2 0 0 1 .7-1.7c.2-.4.3-.7.4-1.1h.1c1.5-.2 3.5-.1 4.8.6.3.1.5.2.8.2 0 .3.1.6.2.9-.2 6.5 1.9 12.2 5.5 17.7 3.4 5.2 11.9 11.9 18.4 8.9.8-.4 1.2-1.3.7-1.8zm126.9-33.3c.3 1.3.3 2.1 1.5 3 2.6 2 5.7-2.1 3.1-4.1.8.6.2 0 0-.5-.4-.9-.6-1.4-1.2-2.1-1.4-1.5-3.6-1-5.3-.4-2 .7-3.8 2.8-5.5 4-1.8 1.3-2.9 2.4-4.1 4 0-.6 0-1.2.1-1.9.2-1.6.8-3.3.9-4.9 0-.8-.1-2.3.2-3.3.5.5.8 1 1.5 1.7 1.8 1.8 4.5-1.1 2.7-2.9-1.3-1.3-2.7-2.4-4.7-1.8s-1.8 3.1-2.2 4.7l-1.1 4.1c-.2-.8-.6-1.5-1.1-2.2-.4-.5-.9-.5-1.4-.3-2 .7-4 1-5.9 1.7-1.7.6-2.6 2.1-3.9 3.2-1.3.6-1.2 2.1-.5 3.1v.1c.4.6 1.1 1 1.8.9.1 0 .2-.1.3-.1h.1c.1-.1.3-.2.4-.3 1.7-1.4 2.6-3.4 4.8-4 1-.3 2-.9 2.9-1.6.7 1.9.9 5.4 2.3 6.8-.3.5-.4 1-.3 1.7.4 4.4-4.4 12.4-6.3 15.6-4.6 7.7-11.4 9.2-18.1 14.4-.4.3-.4.9.1 1.2 5.3 2.9 15.4-2.6 18.8-7.1 4.7-6.1 12-16.9 10.9-25.1-.1-.5-.2-.9-.4-1.2 1.4.3 2.8.4 4.2.7.9.2 2.3 1.3 2.8 2 .3.4-.8 2.6-1 3.1-1 2.9 3.2 4.8 4.4 1.9l-.1.1c.1-.1.1-.3.2-.4.4-1.1.7-2.4 1-3.5.4-2.2-.8-3.9-2.5-5-1.9-1.2-3.5-2-5.8-2h-.4c1.5-.8 3-1.7 4.4-2.7.8-1 2-2.6 2.4-.6z" class="G"/><g fill="#4fc9f3"><path d="M63.6 172.3c-12-11.2-29.1 11.4-37.7-6.4-.2-.3-.6-.6-1-.3-5 4.3-.1 12.6 5.8 13.8 6.6 1.3 11.1-.4 17.3-2.3 5.3-1.6 10.8.5 15.5-2.8.6-.4.7-1.5.1-2zm45.8 6.6c-.2-.3-.5-.5-.7-.8-.8-.9-2.2-1.1-3.3-.8-2.9.7-5.7 1.9-8.7 2.7-4 1.1-7.6-1.1-11.1-2.7-4.8-2.1-8.7-4-14-2.7-.5.1-.5.7-.2 1 2.2 2.5 5 3.3 7.8 5.2 3.3 2.2 7.4 4.7 11.2 5.9 5.1 1.5 17 0 19.5-5.4.3-.9.1-1.7-.5-2.4zm20 2.5c-.6-1.8-2.6-2.3-4.3-2.6l-3.8-.4c-1.6-.1-2.7.2-4.1.7-.3.1-.4.3-.3.6.3 1.6 1.9 2 3.3 2.4 1.3.4 2.8.4 4.2.6 1.7.3 3.4.7 4.9-.3.2-.2.2-.7.1-1zm67.2 4.5c-5-.4-9.7 2.1-14.9 1.5-4.3-.5-8-2.4-12.4-2.6-6.4-.3-12.1 1.4-18.5 1.1-4.7-.3-8.9-2.4-13.6-2.4-.6 0-.7.7-.5 1.1 5.8 11.2 20 6.4 29.9 6.7 10.5.4 22.7 7.4 31.6-2.1 1.2-1.3 0-3.1-1.6-3.3zm12.6-20.4c-1.5-2.4-2.6-3.2-4.8-4.5-.2-.1-.4 0-.5.2-1.1 2 .9 5.3 1.3 7.3 1.1 5.9-3 8.5-4.7 13.4-.3.8.2 1.6 1 1.9 4.2 1.2 8.5-4.6 9.1-8.3.4-3.2.4-7.1-1.4-10zm-28.5-16.2c-1.9-.3-2 2.7-.1 3 1.9.2 1.9-2.7.1-3zm-1 6.7c-.8-.1-1.6.8-1.6 1.5 0 .9.7 1.5 1.5 1.6s1.6-.8 1.6-1.5c0-.9-.7-1.5-1.5-1.6zm12.4-2.8c-.6-.9-2-.4-2 .5-.1 1 1.1 1.6 1.8 1h0c.5-.4.5-1 .2-1.5zm2.1 11.6c.1-1.1-1-1.7-1.9-1.8h-.2c-1.6 0-2.4 1.9-1.6 3.1 1 1.6 3.2.9 3.7-.7v-.6zm8.7-11.4c-3.8-.5-4 5.4-.2 6 3.7.6 3.9-5.4.2-6zm-30.4-4.6v-.3c0-3.6-5.3-4.4-6.2-.9 0 .1-.1.2-.1.3-.5 1.7.5 3.5 2.2 4 2.1.6 4.1-1 4.1-3.1zm-17.6-6.3c-1.5-.2-2.9 1.1-3 2.6-.1 1.6 1.1 2.8 2.6 3s2.9-1.1 3-2.6c.1-1.6-1-2.8-2.6-3zm7.2 4c-1.3-.2-1.6 1.9-.2 2.1 1.3.1 1.5-1.9.2-2.1zm-17.9-16.9c-.8-.1-1.6.8-1.6 1.5 0 .9.7 1.5 1.5 1.6s1.6-.8 1.6-1.5c.1-.9-.7-1.5-1.5-1.6zm-83.2.5c-1.5-.2-2.9 1.1-3 2.6-.1 1.6 1.1 2.8 2.6 3s2.9-1.1 3-2.6c.1-1.6-1.1-2.8-2.6-3zm-13 15.3c-.9-.1-1.1 1.3-.2 1.4s1.1-1.2.2-1.4z" opacity=".7"/><path d="M40.9 150.3c-.9-.1-1.8.2-2.1 1.2-.2.8.3 2 1.2 2.1s1.8-.2 2.1-1.2c.3-.8-.2-2-1.2-2.1zm-6 2.8c-2-.3-3.9.8-4.3 2.9-.4 1.9.9 4 2.9 4.3s3.9-.8 4.3-2.9c.3-1.8-.9-4-2.9-4.3zm6.9 4.1c-.9-.1-1.6.8-1.6 1.6 0 .9.7 1.5 1.6 1.6s1.6-.8 1.6-1.6c-.1-1-.8-1.5-1.6-1.6zm4.1-13.7c-2.5-.4-3.4 3.5-.9 3.8 2.6.4 3.4-3.4.9-3.8zM58 122.6c-.9-.1-1.9.2-2.1 1.2-.2.8.3 2 1.2 2.1s1.9-.2 2.1-1.2c.3-.8-.2-2-1.2-2.1zm.4-7.5c-.8-.1-1.5.7-1.5 1.4 0 .9.6 1.4 1.4 1.5s1.5-.7 1.5-1.4c.1-.8-.6-1.3-1.4-1.5zm10.7-55.2c-2.1-.3-3 2.9-.9 3.2 2.2.3 3.1-2.9.9-3.2zm-4 3.9c-2.4-.3-3.3 3.3-.9 3.7 2.4.3 3.3-3.4.9-3.7zm42.1-11.5c-2.2-.3-3.1 3.1-.9 3.4s3.1-3 .9-3.4zm8.5 1.8c-.2-.2-.4-.3-.6-.4-1.2-.5-2.5 0-2.8 1.3-.3 1.2.7 2.6 2 2.4.4-.1.7-.1 1.1-.3 1.1-.7 1.1-2.2.3-3zm-2.4 4.3c-.2-.2-.4-.4-.7-.4h.2c-1-.5-2.2-.1-2.5 1-.4 1.3.8 2.2 2.1 2.1.7-.1 1.4-.8 1.4-1.6 0-.4-.2-.8-.5-1.1zm4.8.8c-1.8-.3-1.9 2.6-.1 2.9 1.8.2 2-2.6.1-2.9zM61.5 70.6c-.6-.1-.8.9-.2 1s.8-.9.2-1zM64 60.2c-.3 0-.5.1-.8.2-1.5.5-.1 3.1 1.2 1.9.1 0 .1-.1.2-.1 1.1-.5.6-2.1-.6-2zm58.7 3.1c-1.1-.2-1.3 1.5-.2 1.7 1.1.1 1.3-1.6.2-1.7zm-8.3 0c-.1 0-.2 0-.2-.1-1.5-.3-1.8 2.3-.2 2.4h.2c1.6.2 1.6-1.9.2-2.3zM40.6 165.9c-.8-.1-1.5.7-1.5 1.4 0 .8.6 1.4 1.4 1.5s1.5-.7 1.5-1.4c0-.8-.7-1.4-1.4-1.5z" opacity=".7"/></g><g class="I"><path d="M125.9 127.5c-.5-1.3-1.7-2.7-2.9-3.9l-3.4-2.9-1.5-1.3s.4.7 1.2 1.6l2.7 3.5c.9 1.3 1.5 2.7 1.7 3.7.1.5.1.9.1 1.2v.4l2.8.1s0-.2-.1-.7c-.2-.4-.3-1-.6-1.7zm8.3 5.3c0 .1 0 .1.2-.1 0-.1.1-.2.1-.2v-.1c-.2.1-.3.3-.3.4z"/><path d="M141.3 128.7c-.7.2-1.7.4-2.8.6-.5.1-1 .2-1.5.4l.2-.2 3-3c.8-.8 1.3-1.5 1.3-1.5l-1.7.9-2.5 1.1c.3-.6.8-1.3 1.3-2l1.9-2.7.8-1.2s-.4.4-1.1.9l-2.6 2-2.3 2c.2-.3.3-.7.5-1.1l1.1-2c.4-.7.8-1.2 1.2-1.7.7-1 1.3-1.6 1.3-1.6l-1.8 1.1-1.8 1.3c-.3.2-.6.5-.9.8l1.2-3.8-3.9 4.7c.1-.4.1-.8.2-1.2l.6-3.9-1.9 3.5-.6 1.1c0-.5-.1-.9-.2-1.4l-.5-3.5-.1-1.6-.3 1.6c-.2 1-.3 2.3-.4 3.5l-.3 1.8c-.1.6-.3 1.1-.4 1.4 0 .1-.1.2-.1.3 0-.1-.1-.3-.1-.4-.3-1-.9-2.3-1.4-3.5l-1.4-3.3c-.3-.9-.3-1.6-.4-1.6 0 0-.1.6-.1 1.7 0 1 .3 2.4.5 3.7l.4 3.5v1.1.4l2.8-.1v-.2l1.2.5-.8 1 1.5.8c-.1.1-.1.3-.2.4l-.3.6 1.5.3c-.1 0-.1.1-.2.1-.3.2-.6.5-.8 1.1-.1.2-.1.3-.2.5 0 .2-.1.4-.1.7 0 .4.2.9.3 1.2.3.5.6.7.6.7l3-3.6s.2.1.4.5h-.1l.2.1c.1.2.2.5.2.7v.4c.1-.2.3-.4.5-.6l1.3 1.2.2-.2c.1-.1.2-.4.5-.6.4-.5 1.2-1.1 2.1-1.6l2.5-1.5 1-.8s-.8-.1-1.5.2zm-4.6-1.5s-.1 0-.1.1l.1-.1c-.1 0-.1 0 0 0z"/></g><use xlink:href="#B" class="J"/><path d="M123.4 142.6c-4.6-2.6-6.1-8.4-3.5-13 .2-.4.5-.8.9-1.2 2.9-3.7 8-4.6 12.1-2.3 4.5 2.6 6.1 8.4 3.5 13-2.7 4.5-8.5 6.1-13 3.5z" class="G"/><use xlink:href="#B" class="I"/><path d="M121.9 130.3c-1.9 3.4-.8 7.7 2.6 9.6a7.04 7.04 0 0 0 9.6-2.6 7.04 7.04 0 0 0-2.6-9.6c-3.4-2-7.7-.8-9.6 2.6z" class="H"/><path d="M123 128.8c-1.6 3.3-.5 7.3 2.8 9.2 2.8 1.6 6.3 1 8.5-1.2-.1.1-.1.3-.2.4-1.9 3.4-6.2 4.5-9.6 2.6s-4.5-6.2-2.6-9.6a7.55 7.55 0 0 1 1.1-1.4z" class="K"/><path d="M125.3 133.2c-1 1.7-.4 3.8 1.3 4.8s3.8.4 4.8-1.3.4-3.8-1.3-4.8-3.8-.4-4.8 1.3z" class="G"/><path d="M129.7 133.9c-.3.6-.1 1.4.5 1.7s1.4.1 1.7-.5.1-1.4-.5-1.7-1.4-.1-1.7.5zm-4.5 2c-.2.4-.1.8.3 1s.8.1 1-.3.1-.8-.3-1c-.3-.2-.8-.1-1 .3z" class="H"/><g class="I"><path d="M63.9 86.2c-.2-.5-.5-1-.7-1.7-.3-.6-.4-1.4-.6-2.1l-.4-2.2-.2-1.9-.1-1.9s-.2.8-.3 1.9c-.1.6-.2 1.2-.2 2-.1.7-.1 1.5-.1 2.3l.1 2.3c.1.8.2 1.5.4 2.1 0 .1 0 .1.1.2 0-.1-.1-.2-.1-.2l-2-4.3-.8-2.4c-.3-.8-.5-1.5-.6-2.2l-.5-2.1.1 2.2c0 .7 0 1.4.2 2.2l.4 2.6.5 2.1-.9-1.6-1.5-2.2-1.4-1.9-1.4-1.8 1.1 2 1 2.1 1 2.4 1.6 4.6-2.5-2.9-1.8-1.7c-.3-.3-.6-.5-.9-.7s-.6-.4-.8-.6c-.5-.4-1-.6-1.3-.8l-.5-.3s.2.1.4.4l1.1 1c.2.2.4.5.7.7.2.2.4.6.7.9.5.6.9 1.3 1.3 2l2.1 4c0 .1.1.2.1.2l-1.3-.9c-.5-.3-1-.7-1.6-.9l-1.7-.8c-1.2-.4-2.3-.9-3.4-1.1l-3-.7-3-.6 2.9 1L49 88c1 .4 2.1 1 3.1 1.6l1.5 1c.5.3.9.7 1.3 1s.8.6 1.1 1 .6.7.9 1c.6.6.9 1.3 1.2 1.6.3.4.4.6.4.6l2.3-1.6s-.2-.2-.6-.7L58.7 92l1.3-1-.3-.3 1.8-.7s-.1-.2-.3-.5l1.2-.5v.1l2.4-1.5s-.1-.1-.3-.4c-.1-.2-.4-.5-.6-1z"/><path d="M67.9 87.9c-.1-.2-.3-.5-.5-1a5.27 5.27 0 0 1-.5-1.5c-.2-.6-.3-1.2-.4-1.8-.4-2.6-.5-5.3-.5-5.3l-.3 1.6-.6 3.7c0 .7-.1 1.4-.1 2 0 .7 0 1.3.1 1.8 0 .5.2 1 .2 1.3a1.75 1.75 0 0 1 .1.5l2.6-1.1c.1.2 0 0-.1-.2z"/></g><use xlink:href="#C" class="J"/><path d="M63.2 104.9c-5-1.6-7.8-7-6.2-12 .1-.4.3-.9.6-1.4 2.1-4.2 6.9-6.2 11.4-4.8 5 1.6 7.8 7 6.2 12-1.6 5.1-7 7.8-12 6.2z" class="G"/><use xlink:href="#C" class="I"/><path d="M59.2 93.2a6.95 6.95 0 0 0 4.5 8.8c3.7 1.2 7.6-.9 8.8-4.5a6.95 6.95 0 0 0-4.5-8.8c-3.7-1.3-7.6.8-8.8 4.5z" class="H"/><path d="M60 91.5c-.9 3.6 1.1 7.3 4.6 8.4 3.1 1 6.3-.3 8-2.9 0 .1 0 .3-.1.4a6.95 6.95 0 0 1-8.8 4.5 6.95 6.95 0 0 1-4.5-8.8 11.94 11.94 0 0 1 .8-1.6z" class="K"/><path d="M63.2 95.3c-.6 1.8.4 3.8 2.3 4.4 1.8.6 3.8-.4 4.4-2.3.6-1.8-.4-3.8-2.3-4.4-1.9-.5-3.9.5-4.4 2.3z" class="G"/><path d="M67.6 95.1c-.2.7.1 1.4.8 1.6s1.4-.2 1.6-.8c.2-.7-.1-1.4-.8-1.6s-1.4.2-1.6.8zm-4 2.9c-.1.4.1.8.5.9s.8-.1 1-.5c.1-.4-.1-.8-.5-1-.5-.1-.9.2-1 .6z" class="H"/><g class="I"><path d="M125.6 68.3c-.3.3-.7.7-1 1.2s-.7 1-1 1.6-.6 1.1-.8 1.7a5.85 5.85 0 0 0-.6 1.5c-.1.4-.2.6-.3.9l.1-8.2-1.8 5.8c-.1-.1-.1-.2-.2-.4l-.7-1c-.5-.6-1.1-1.2-1.6-1.7a15.26 15.26 0 0 0-1.5-1.3l-1.5-1.2 1.2 1.5c.3.5.8 1 1.1 1.6.4.6.8 1.3 1.1 1.9.1.3.3.7.4 1 .2.3.2.7.3 1 .2.6.2 1.3.3 1.8v.5l-.2.7h.2v.1.5l2.5-.1h0 0 .2s0-.2-.1-.6c0-.1-.1-.2-.1-.3V76l2.6.4s0-.6.1-1.4c0-.4 0-1 .2-1.5l.3-1.7.5-1.6c.1-.5.4-1 .6-1.4l.7-1.4s-.4.2-1 .9z"/><path d="M133.7 76.8l-1.5.3c-.6.1-1.1.3-1.7.5-.3.1-.6.3-.9.4l-.6.3v-.6c.1-.6.7-1.5 1.5-2.4l2.3-2.3c.7-.6 1.1-1.1 1.1-1.1l-1.3.7-2.9 1.5c-.6.4-1.3.8-1.8 1.3-.1-.1-.1-.3-.1-.7 0-.6.3-1.7.8-2.6.9-2 2.3-3.8 2.3-3.8s-1.9 1.3-3.5 3.1c-.8.9-1.5 1.9-1.9 2.9-.2.5-.3 1-.2 1.4 0 .4.1.6.1.6l2.5-.7c-.3.3-.6.6-.8 1-.3.5-.5 1-.6 1.3-.1.4-.1.6-.1.6h2.2c-.2.1-.3.2-.5.3l-.6.6c-.4.4-.6.9-.8 1.1l-.3.5 2.7.7s0-.1.1-.3 0-.4.2-.7c.1-.2.2-.3.2-.5.1-.2.3-.3.4-.5.3-.4.7-.7 1.1-1.1.5-.3.9-.7 1.4-.9l1.3-.7 1.3-.6s-.5.3-1.4.4z"/></g><use xlink:href="#D" class="J"/><use xlink:href="#E" class="G"/><use xlink:href="#D" class="I"/><path d="M116.8 79.9c-.5 3 1.6 5.8 4.6 6.3s5.8-1.6 6.3-4.6-1.6-5.8-4.6-6.3c-2.9-.4-5.8 1.6-6.3 4.6z" class="H"/><use xlink:href="#F" class="K"/><path d="M120.1 81.2c-.2 1.5.8 2.9 2.3 3.2 1.5.2 2.9-.8 3.2-2.3.2-1.5-.8-2.9-2.3-3.2-1.5-.2-2.9.8-3.2 2.3z" class="G"/><path d="M123.5 80.5c-.1.5.3 1 .8 1.1s1-.3 1.1-.8-.3-1-.8-1.1-1 .2-1.1.8zm-2.7 2.7c-.1.3.2.6.5.7s.6-.2.7-.5-.2-.6-.5-.7c-.4-.1-.7.1-.7.5z" class="H"/><path d="M69.9 112.4c-.1-.4-.1-.8-.2-1.3s-.2-1-.2-1.5l-.2-4.3-1.2 4.1-.3 1.6-.3 1.4c0 .3-.1.5-.1.7l-3-7.2.7 6.6c-.2-.3-.4-.5-.6-.8l-1.4-1.6c-.4-.5-.9-.9-1.3-1.3s-.8-.6-1-.8c-.3-.2-.4-.3-.4-.3s.1.1.3.4a4.87 4.87 0 0 1 .8 1c.3.4.6.9.9 1.5l.9 1.8.6 1.3c-.2-.2-.4-.3-.6-.5-.6-.6-1.4-1.2-2.1-1.7-.8-.5-1.6-1.1-2.4-1.4-.4-.2-.7-.4-1.1-.5s-.7-.3-1.1-.4c-.6-.2-1.2-.3-1.6-.4s-.6-.1-.6-.1.2.1.6.2c.4.2.9.3 1.5.7l.9.6c.3.2.6.5 1 .7.7.5 1.3 1.1 1.9 1.7.6.7 1.2 1.3 1.6 2 .5.6.9 1.3 1.3 1.9l1.2 1.9 1.1-.8c.1.1.1.2.1.2l2.3-1.5-.8-1 1-.2-.4-1.1 2.4-.2c0-.2-.1-.7-.2-1.4zm9.9-3.7c-.7.6-1.5 1.4-2.3 2.3-.4.5-.8.9-1.1 1.4-.1.2 0 2.4-.1 2.5l-.1-3.1c0-.3.1-.7.2-1.2l.3-1.4.9-2.5.5-1.1s-.3.4-.9.9c-.5.5-1.1 1.3-1.8 2.1l-.9 1.3c-.3.4-.5.8-.7 1.2-.1.3-.3.6-.4.8 0-.1-.1-.3-.1-.5-.1-.3-.1-.7-.1-1.1V109l.3-3.8s-.9 1.7-1.6 3.5l-.5 1.4a3.08 3.08 0 0 0-.3 1.3l-.2 1.4 2.5-.3 2.2 2.5c-.2.3.1-1.4 0-1.1-.2.4-.3.9-.4 1.2s-.1.5-.1.5l2.7 1.7.1-2c0-.2-.1-.4 0-.8 0-.4.1-.8.3-1.3.1-.5.4-1 .6-1.5l1.5-2.8.7-1.2-1.2 1z" class="I"/><use xlink:href="#G" class="J"/><path d="M69.5 126.5c-4.1-.7-6.8-4.5-6.2-8.6.1-.4.2-.7.3-1.1 1.1-3.5 4.6-5.6 8.3-5 4.1.7 6.8 4.5 6.2 8.6-.7 4-4.5 6.8-8.6 6.1z" class="G"/><use xlink:href="#G" class="I"/><path d="M65 117.8c-.5 3 1.6 5.8 4.6 6.3s5.8-1.6 6.3-4.6-1.6-5.8-4.6-6.3c-2.9-.4-5.8 1.6-6.3 4.6z" class="H"/><path d="M65.5 116.5c-.3 2.9 1.7 5.5 4.6 6 2.5.4 4.9-1 5.9-3.2v.3c-.5 3-3.3 5.1-6.3 4.6s-5.1-3.3-4.6-6.3c0-.6.2-1 .4-1.4z" class="K"/><path d="M68.4 119.1c-.2 1.5.8 2.9 2.3 3.2 1.5.2 2.9-.8 3.2-2.3.2-1.5-.8-2.9-2.3-3.2-1.6-.3-3 .8-3.2 2.3z" class="G"/><path d="M71.8 118.4c-.1.5.3 1 .8 1.1s1-.3 1.1-.8-.3-1-.8-1.1c-.6-.1-1.1.2-1.1.8zM69 121c-.1.3.2.6.5.7s.6-.2.7-.5-.2-.6-.5-.7c-.3 0-.7.2-.7.5z" class="H"/><g class="I"><path d="M94.1 106.5s0-.4.1-1.1l1.5.9 2.5-6.3-3.7 3.7c.1-.4.1-.9.2-1.4l.3-1.4c.1-.5.3-.9.4-1.2l.5-1.2-.9.9c-.3.3-.6.6-.8 1.1-.3.4-.6.9-.9 1.4l-1.1 2.1.1-2.4c.1-.5.1-1 .2-1.5a4.44 4.44 0 0 1 .2-1.3l.3-1.3-.7 1.1c-.5.7-.9 1.7-1.4 2.7-.2.5-.4 1-.5 1.5l-.2-6-1.9 5.7-.4-1.6c-.1-.5-.2-1-.2-1.4-.1-.5 0-.9 0-1.2 0-.4.1-.7.2-.9s.1-.3.1-.3-.1.1-.2.3-.3.4-.5.8-.3.8-.5 1.3-.2 1-.3 1.5c0 .3-.1.5-.3.7-.3-.4-.5-.8-.8-1.2-.3-.5-.6-.8-.9-1.1-.6-.6-.9-1-.9-1s.2.5.6 1.3c.2.4.4.8.5 1.3s.3 1 .4 1.5.1 1 .2 1.5c0 .2.1.5 0 .7v.2l-.7-.7c-.6-.5-1.3-.8-2-1.1-1.4-.6-2.9-.8-4-.8s-1.8.2-1.8.2.7 0 1.7.2 2.3.8 3.4 1.6 1.9 1.8 2 2.6c.1.4.1.7.1.9v.3l2.8-.1s0-.2-.1-.6c-.1-.2-.2-.5-.3-.9H88s-.1-.6-.4-1.5l1.3-.1v-.2l.8.1-.2.7 1.9.3h0l2.7.7z"/><path d="M96.7 106.2c-.4.3-.8.5-1.2.8-.4.2-.7.6-1 .8l-1 .9 2.3 1.5.4-.9c.1-.3.3-.6.5-1l.8-1.1 2.4-2.9-3.2 1.9z"/></g><use xlink:href="#H" class="J"/><path d="M88.7 118.3c-4.1-.7-6.8-4.5-6.2-8.6.1-.4.2-.7.3-1.2 1.1-3.5 4.6-5.6 8.3-5 4.1.7 6.8 4.5 6.2 8.6-.7 4.1-4.5 6.8-8.6 6.2z" class="G"/><use xlink:href="#H" class="I"/><path d="M84.2 109.6c-.5 3 1.6 5.8 4.6 6.3s5.8-1.6 6.3-4.6-1.6-5.8-4.6-6.3c-3-.4-5.8 1.6-6.3 4.6z" class="H"/><path d="M84.6 108.2c-.3 2.9 1.7 5.5 4.6 6 2.5.4 4.9-1 5.9-3.2v.3c-.5 3-3.3 5.1-6.3 4.6s-5.1-3.3-4.6-6.3c.1-.5.2-.9.4-1.4z" class="K"/><path d="M87.5 110.8c-.2 1.5.8 2.9 2.3 3.2 1.5.2 2.9-.8 3.2-2.3.2-1.5-.8-2.9-2.3-3.2-1.5-.2-2.9.8-3.2 2.3z" class="G"/><path d="M90.9 110.1c-.1.5.3 1 .8 1.1s1-.3 1.1-.8-.3-1-.8-1.1-1 .3-1.1.8zm-2.7 2.7c-.1.3.2.6.5.7s.6-.2.7-.5c0-.3-.2-.6-.5-.7-.4 0-.7.2-.7.5z" class="H"/><use xlink:href="#I" class="J"/><use xlink:href="#E" x="-17.2" y="47.5" class="G"/><use xlink:href="#I" class="I"/><path d="M99.6 127.5c-.5 3 1.6 5.8 4.6 6.3s5.8-1.6 6.3-4.6-1.6-5.8-4.6-6.3c-2.9-.5-5.8 1.6-6.3 4.6z" class="H"/><use xlink:href="#F" x="-17.2" y="47.5" class="K"/><path d="M103 128.7c-.2 1.5.8 2.9 2.3 3.2 1.5.2 2.9-.8 3.2-2.3.2-1.5-.8-2.9-2.3-3.2-1.6-.2-3 .8-3.2 2.3z" class="G"/><path d="M106.3 128c-.1.5.3 1 .8 1.1s1-.3 1.1-.8-.3-1-.8-1.1-1 .3-1.1.8zm-2.7 2.7c-.1.3.2.6.5.7s.6-.2.7-.5c0-.3-.2-.6-.5-.7-.4-.1-.7.2-.7.5z" class="H"/><path d="M113.8 97.1l2.4.1-.5-3.5c-.1-.8-.2-1.7-.1-2.4v-1.1s-.2.4-.4 1c-.3.6-.5 1.5-.8 2.4l-.7 2.9c0-.1 0-.1-.1-.2-.2-.7-.6-1.7-.8-2.7s-.4-2-.4-2.8c0-.4.1-.7.1-.9s.1-.4.1-.4-.1.1-.2.3-.3.5-.4.9c-.3.8-.5 1.9-.6 2.9-.1.8-.1 1.7-.1 2.4l-.5-1.4c-.3-.9-.6-1.9-.7-2.6-.1-.4-.1-.7-.1-.9v-.3s0 .1-.1.3-.2.5-.2.9c-.2.8-.2 1.8-.2 2.8l-.1 2.7v.1l-1.4-2.1c-.6-.9-1.1-1.8-1.3-2.5-.2-.4-.2-.7-.3-.9 0-.2-.1-.4-.1-.4s0 .1-.1.4c0 .2-.1.6-.1 1 0 .9.2 1.9.5 3 .1.2.1.4.2.6-.8-.7-1.7-1.3-2.3-1.8l-1.2-.8s.3.5.9 1.2l1.8 2.6c.3.5.5 1 .7 1.4s.3.9.4 1.2c.1.4.1.7.1.8v.3l2.8-.5-.2-.4c-.1-.3-.2-.7-.5-1l1.1-.4s-.1-.2-.3-.5h2s0-.3-.2-.8l2.2-.3c-.1-.1-.2-.3-.3-.6zm16.4 0l-3.3 1.6s0-.1.1-.1l3.1-6.2-5.1 4.8c-.3.3-.6.6-.9.8l.7-1.9c.5-1.5.9-3 .9-4.2 0-.6 0-1.1-.1-1.4s-.1-.5-.1-.5 0 .2-.1.5l-.4 1.2c-.4 1-1.3 2.1-2.3 3.2l-2 2.2.3-1.2 1-4.5c.3-1.2.4-2.1.4-2.1s-.4.7-1.1 1.7l-2.3 3.3v-.2c0-.4 0-.8.1-1.2l.5-3.3-1.8 2.8-.6 1.1c-.2.4-.4.7-.5 1l-.5 1 1.7.3a33.1 33.1 0 0 0-1.8 2.9c-.2.3-.3.6-.5 1-.1.2-.1.4-.2.6v.5c0 .2.1.6.1.8v.1l.1.2c.1.1.2.3.3.4.2.3.4.5.7.7s.6.3.9.4.7.1.8.1c.5 0 1.1-.3 1.1-.3.3-.1.5-.2.5-.2l-3-4.4s.1 0 .2-.1c0 0 .4-.2.8-.2a2.64 2.64 0 0 0 .7.1c.3.1.5.2.7.3-.1.1-.2.2-.2.3-.2.4-.4.7-.4.7l1.6.4v.5c0 .1 0 .1.1 0v-.2-.3l1 .3-1.4 1.4.8.5c-.2.2-.4.3-.5.5-.2.3-.4.6-.6.8l-.5.7 4.8 2.1s0-.1.1-.4c0-.1.1-.3.1-.5s.2-.4.3-.7c.1-.2.3-.5.5-.8s.4-.6.7-.9c.2-.3.5-.6.8-1 .3-.3.6-.7.9-1l3.5-3.7 1.5-1.8s-1 .9-2.2 1.5z" class="I"/><use xlink:href="#J" class="J"/><path d="M110.4 116.8c-5.7-3.3-7.6-10.5-4.4-16.2.3-.5.6-1 1.1-1.5 3.6-4.6 10-5.8 15.1-2.8 5.7 3.3 7.6 10.5 4.4 16.2-3.3 5.6-10.5 7.6-16.2 4.3z" class="G"/><use xlink:href="#J" class="I"/><path d="M108.6 101.5c-2.4 4.2-1 9.5 3.2 11.9s9.5 1 11.9-3.2 1-9.5-3.2-11.9c-4.1-2.5-9.5-1-11.9 3.2z" class="H"/><path d="M110 99.7c-2 4.1-.6 9.1 3.4 11.5a8.62 8.62 0 0 0 10.5-1.5c-.1.2-.1.3-.2.5-2.4 4.2-7.8 5.6-11.9 3.2-4.2-2.4-5.6-7.8-3.2-11.9.4-.7.9-1.3 1.4-1.8z" class="K"/><path d="M112.8 105.1a4.28 4.28 0 0 0 1.6 5.9c2.1 1.2 4.8.5 6-1.6s.5-4.8-1.6-6c-2.1-1.1-4.8-.3-6 1.7z" class="G"/><path d="M118.3 106c-.4.7-.2 1.7.6 2.1.7.4 1.7.2 2.1-.6.4-.7.2-1.7-.6-2.1s-1.7-.1-2.1.6zm-5.6 2.5c-.3.5-.1 1 .3 1.3.5.3 1 .1 1.3-.3.3-.5.1-1-.4-1.3-.4-.4-1-.2-1.2.3z" class="H"/><use xlink:href="#K" class="J"/><path d="M87.6 96.9c-12.2-1.7-20.7-13-18.9-25.2.2-1.1.4-2.2.8-3.4 3.2-10.5 13.4-17 24.3-15.5 12.2 1.7 20.7 13 18.9 25.2-1.6 12.1-12.9 20.6-25.1 18.9z" class="G"/><use xlink:href="#K" class="I"/><path d="M73.8 71.3c-1.3 9 5 17.3 14 18.6s17.3-5 18.6-14-5-17.3-14-18.6c-9-1.2-17.4 5-18.6 14z" class="H"/><path d="M75 67.2c-.7 8.6 5.3 16.4 14 17.6 7.5 1.1 14.5-3.2 17.4-9.9v1c-1.3 9-9.6 15.2-18.6 14-9-1.3-15.2-9.6-14-18.6.2-1.4.6-2.8 1.2-4.1z" class="K"/><path d="M83.7 74.8c-.6 4.5 2.5 8.6 6.9 9.3 4.5.6 8.6-2.5 9.3-7 .6-4.5-2.5-8.6-7-9.3-4.4-.6-8.5 2.5-9.2 7z" class="G"/><path d="M93.8 72.5c-.2 1.6.9 3.1 2.5 3.3s3.1-.9 3.3-2.5-.9-3.1-2.5-3.3-3.1.9-3.3 2.5zm-8.1 8.2c-.1 1 .5 1.9 1.5 2s1.9-.5 2-1.5-.5-1.9-1.5-2c-.9-.2-1.8.5-2 1.5z" class="H"/><defs ><path id="B" d="M123.7 142.1c-4.1-2.3-5.5-7.5-3.1-11.6.2-.4.5-.7.8-1.1 2.6-3.3 7.2-4.1 10.8-2 4.1 2.3 5.5 7.5 3.1 11.6-2.4 4-7.6 5.4-11.6 3.1z"/><path id="C" d="M63.4 104.3c-4.5-1.4-6.9-6.2-5.5-10.7.1-.4.3-.8.5-1.2 1.9-3.7 6.1-5.5 10.1-4.3 4.5 1.4 6.9 6.2 5.5 10.7s-6.1 7-10.6 5.5z"/><path id="D" d="M121.4 88.1c-3.6-.6-6.1-4-5.5-7.7 0-.3.1-.6.3-1 1-3.1 4.1-5 7.4-4.5 3.6.6 6.1 4 5.5 7.7-.6 3.6-4.1 6.1-7.7 5.5z"/><path id="E" d="M121.3 88.6c-4.1-.7-6.8-4.5-6.2-8.6.1-.4.2-.7.3-1.2 1.1-3.5 4.6-5.6 8.3-5 4.1.7 6.8 4.5 6.2 8.6-.7 4.1-4.5 6.9-8.6 6.2z"/><path id="F" d="M117.3 78.6c-.3 2.9 1.7 5.5 4.6 6 2.5.4 4.9-1 5.9-3.2v.3c-.5 3-3.3 5-6.3 4.6-3-.5-5.1-3.3-4.6-6.3 0-.5.2-1 .4-1.4z"/><path id="G" d="M69.6 126c-3.6-.6-6.1-4-5.5-7.7.1-.3.1-.6.3-1 1-3.1 4.1-5 7.4-4.5 3.6.6 6.1 4 5.5 7.7-.6 3.6-4.1 6.1-7.7 5.5z"/><path id="H" d="M88.8 117.8c-3.6-.6-6.1-4-5.5-7.7.1-.3.1-.6.3-1 1-3.1 4.1-5 7.4-4.5 3.6.6 6.1 4 5.5 7.7-.7 3.6-4.1 6.1-7.7 5.5z"/><path id="I" d="M104.2 135.7c-3.6-.6-6.1-4-5.5-7.7.1-.3.1-.6.3-1 1-3.1 4.1-5 7.4-4.5 3.6.6 6.1 4 5.5 7.7-.6 3.6-4.1 6-7.7 5.5z"/><path id="J" d="M110.8 116.2c-5.1-2.9-6.8-9.4-3.9-14.5.3-.4.6-.9 1-1.4 3.3-4.1 8.9-5.1 13.5-2.5 5.1 2.9 6.8 9.4 3.9 14.5-3 5-9.5 6.8-14.5 3.9z"/><path id="K" d="M87.8 95.4C77 93.9 69.4 83.8 70.9 73c.1-1 .4-1.9.8-3.1 2.9-9.4 12-15.2 21.7-13.8 10.9 1.5 18.4 11.6 16.9 22.5-1.5 10.8-11.6 18.4-22.5 16.8z"/></defs></svg>