<svg xmlns="http://www.w3.org/2000/svg" xmlns:xlink="http://www.w3.org/1999/xlink" viewBox="0 0 231 231" xmlns:v="https://vecta.io/nano"><g fill="#010101"><path d="M102.2 127.3s-.6.3-1.8.7l-4.9 2.2-7.2 3.3c-2.7 1.2-5.8 2.5-9.2 3.5-3.3 1-7 1.7-9.9 1.3-1.5-.2-2.6-.7-3.6-1.5-.1-.1-.2-.2-.4-.3l-.2-.2-.1-.1h0l.1.1h0l-1-1.3-.3-.3-.1-.2-.2-.4c-.2-.2-.3-.6-.4-.9-.5-1.4-.6-2.8-.4-5.3.1-1.2.1-2.8-.4-4.6-.2-.9-.7-1.8-1.2-2.6s-1.2-1.4-1.8-2c-2.6-2.2-5.2-3.1-7.8-4.2l-3.7-1.1c0-.7.2-1.6.3-2.5l.1-.4c0 .1 0-.2 0 .1v-.1-.1-.2c.1-.3.1-.7.2-.8l.2-.5.3-.7c.8-1.9 2-3.9 3.2-6.1s2.4-4.6 2.7-7.5c.1-.7.1-1.5 0-2.2-.1-1-.2-1.1-.4-1.9-.4-1.5-1-2.7-1.9-4-1.9-2.4-4.9-3.6-7.3-4.2-2.5-.6-4.9-.8-7.1-1-4.3-.4-8.4-.9-10.2-3.1l-.3-.4h0v-.1l-.1-.3-.3-.6c-.1-.2 0-.3-.1-.4 0-.2-.1-.5-.1-.8s0-.6.1-1c.2-1.4.9-2.7 1.5-4 1.2-2.6 2.5-5 2.7-7.4 0-.3.1-.6.1-.9s-.1-.6-.1-.8c0-.3-.1-.5-.1-.8-.1-.2-.2-.5-.3-.7-.3-.9-1-1.5-1.3-2.1l-1.6-1.3-1 1.4s.4.4 1.2 1c.6.8 1.3 1.9.9 3.7-.3 1.8-1.5 3.9-3 6.6-.7 1.3-1.5 2.7-2 4.6-.2.4-.2.9-.3 1.4a3.34 3.34 0 0 0 .1 1.7c.1.3.1.7.2.9l.2.6.1.3.1.2v.1c.2.4.1.1.1.2h0l.5.7c1.4 1.8 3.6 3 5.8 3.7s4.4 1 6.6 1.3 4.4.6 6.3 1.2c2 .6 3.6 1.5 4.4 2.7.4.6.8 1.5.9 2.2.1.3.2 1.2.2 1.4 0 .4 0 .8-.1 1.2-.3 1.7-1.3 3.5-2.5 5.5-1.2 1.9-2.7 3.9-3.9 6.4l-.4 1-.4 1.1c-.1.4-.2.6-.3.9l-.1.2v.1l-.1.3-.1.4c-.2 1.2-.5 2.3-.7 4v.7.4l.1.5a4.77 4.77 0 0 0 1.1 2.3c.3.4.7.7 1 .9.4.3.6.4.9.5.3.2.5.2.7.3l.6.2 3.3 1.2c2 .9 4.2 2 5.2 3.1.4.5.7.9.8 1.3s.1 1.1-.1 2.2c-.3 2-.6 5.2.3 8.1.2.7.4 1.4.8 2.2l.5 1.1.3.5.2.4.9 1.4h0l.2.3.1.1.2.2.4.4c.3.3.5.6.8.9 2.2 2.2 5.4 3.7 8.3 4.3s5.6.6 8 .4 4.7-.7 6.7-1.2c4.1-1 7.6-2.2 10.7-3.3 3-1.1 5.6-2.2 7.7-3s3.7-1.5 4.7-1.8l1.6-.6-4.4-10.3zm-54.4-13.2h0v-.1.1zm17.4 22.3c.1.1 0 0 0 0h0zm134.1-85.1c-.1-.7-.4-1.5-1.1-1.9-.1 0-.2-.1-.3-.1-.3-.5-.6-.9-1.2-1.4-1.4-1.2-7.5-5.8-9.9-4.6 0 0-.1 0-.1.1h-.5c-2.5.4-4.5 2.8-6.2 5.3-1.2 1.2-2.3 2.5-3.3 3.8-.6.7-1.1 1.5-1.6 2.2-5.1 6-10.6 14.2-17.5 17.3-.3.2-.6.4-.7.7-1.3 1-1.3 3.5.6 3.8 1.3.2 5.3.2 6.3 1.3a2.18 2.18 0 0 0 3 0c4.1-4.1 6.9-10.8 9.6-16 2.5-4.9 7.2-8.3 10.3-12.8.3.8.5 1.7.8 2.4v.3c.1 1.2.2 2.4.2 3.5-1.5 1.6-.5 6.2-.2 7.9.3 2.2 3.9 3.2 4.3.5 0-.2 0-.4.1-.6h0c.3-2.1.4-4.1.3-6 0-.1.1-.3.1-.4.3-1 0-2.6-.3-3.9 0-.3 0-.6-.1-1v-.1c.3.2.5.3.8.4.4.1.7.2 1 .3.4 1.8-.7 5 0 6.9.9 2.4 4 1.8 4.3-.7.2-2.5 1.5-4.6 1.3-7.2zm-83.1 147.4c-3.4-2.1-4.8-2.5-4.9-6.6 0-1.3-1.2-2.2-2.4-2.1-1 0-2 0-2.7.8-1.4 1.5-2.6 1.5-4.6 1.2l-.4-2.2c1.7-8.2 3.3-16.6 4.3-24.9.2-1.5-1.6-2.4-2.8-2.1-1.9.5-3.8.1-5.7-.2-1.1-.2-2.4.5-2.7 1.5-.2.2-.3.3-.4.6-1.2 4 .3 8.6.6 12.7.4 4 .6 8.4 1.4 12.5 0 .4-.1.9-.1 1.5 0 .4-.1.9-.1 1.3-.5-.2-.9-.5-1.4-.9-.4-.4-.9-.7-1.4-.9-.1-2.5-.9-5.3-3.6-5.1-1 .1-2 .9-2.5 1.8-.2.4-.4 1.7-.7 2.5-.9-.5-1.7-1-2.7-1.3h-.1c-.2-.1-.4-.1-.6-.2-2.9-.8-3.9 4.1-.8 4.6 2.3.6 3.4 2.6 5.9 1.7.5-.2.8-.5 1.2-.9.3.3.8.6 1.2.7 1.3.3 1.8 1.2 2.9 1.7.5.3 1 .5 1.4.6-.3.5-.3 1-.2 1.6 0 .1-.1.3-.1.5-.1.6 0 1.5.4 2 .9 1.1 2.2 1.8 3.5 2.3 1.7.7 3.6 2.4 5.1 3.5.5.3.7 1 1.1 1.3.7.5 1.3.8 2.1 1 2.5.7 3.4-2.5 2-4-1.6-1.7-3.1-3.4-5-4.8-.9-.6-1.8-1.1-2.8-1.4-.3-.1-.5-.2-.7-.3.1-.8.1-1.6 0-2.4.1-.1.1-.3.2-.4 1.9.2 3.8.2 5.7.4.4 0 .9 0 1.4-.1.3 1 .8 1.9 1.5 2.6 0 .6.3 1.3 1 1.7 1.8 1 2.7 2.1 5 2.5 2.7.5 3.6-3 1.5-4.3zm40.2 1.8c-3.4-2.1-4.8-2.5-4.9-6.6 0-1.3-1.2-2.2-2.4-2.1-1 0-2 0-2.7.8-1.4 1.5-2.6 1.5-4.6 1.2l-.4-2.2c1.7-8.2 3.3-16.6 4.3-24.9.2-1.5-1.6-2.4-2.8-2.1-1.9.5-3.8.1-5.7-.2-1.1-.2-2.4.5-2.7 1.5-.2.2-.3.3-.4.6-1.2 4 .3 8.6.6 12.7.4 4 .6 8.4 1.4 12.5 0 .4-.1.9-.1 1.5 0 .4-.1.9-.1 1.3-.5-.2-.9-.5-1.4-.9-.4-.4-.9-.7-1.4-.9-.1-2.5-.9-5.3-3.6-5.1-1 .1-2 .9-2.5 1.8-.2.4-.4 1.7-.7 2.5-.9-.5-1.7-.9-2.7-1.3h-.1c-.2-.1-.4-.1-.6-.2-2.9-.8-3.9 4.1-.8 4.6 2.3.6 3.4 2.6 5.9 1.7.5-.2.8-.5 1.2-.9.3.3.8.6 1.2.7 1.3.3 1.8 1.1 3 1.7.5.3 1 .5 1.4.6-.2.5-.3 1-.2 1.6 0 .1-.1.3-.1.5-.1.7 0 1.5.4 2 .9 1.1 2.2 1.8 3.5 2.3 1.7.7 3.6 2.4 5.1 3.5.5.3.7 1 1.1 1.3.7.5 1.3.8 2.1 1 2.5.7 3.4-2.5 2-4-1.6-1.7-3.1-3.4-5-4.8-.9-.6-1.8-1.1-2.8-1.4-.3-.1-.5-.2-.7-.3.1-.8.1-1.6 0-2.4.1-.1.1-.3.2-.4 1.9.2 3.8.2 5.7.4.4 0 .9 0 1.4-.1.3 1 .8 1.8 1.5 2.6 0 .6.3 1.3 1 1.6 1.8 1 2.7 2.1 5 2.5 2.6.7 3.5-2.9 1.4-4.2z"/><path d="M177.2 119c3.8-13.4 0-23.3-7.9-33.7 4.9 1.6 8.2 6.8 11.7 9.5 2.1-14.9-14.3-22.1-22.7-30.3 3.7-1.2 7.5.8 11.1 2.4-4.5-7.2-10-15.3-19.4-15.5 3.8-2.5 8.8-3.4 13.2-2.3-2.5-2.5-6.6-4.4-11-5.3 4.6-4.1 11.3-6 15.9-1.3 0-15.1-16.5-13.8-26.2-7.9.8-4.5 1.2-9-.1-13.4-5.8 1.1-5.3 11.7-8.1 16.7-4.5-7.9-9.4-15-18.7-18.3 3.8 5.3 7.6 11.1 6.1 17.8-10.3-4.9-24.2-9.4-34.9-3.8 5.7 2.4 11.7 5.4 16.9 9.2C91 41.1 70.3 40.2 62.2 50c7.6.7 20.3-2.5 25.7 3.6-11.5 3.7-33.3 2.1-35.5 18.3 4.3-.5 21.9-7.3 21.5 0-.3 5.4-15.7 7.3-16.1 16.4 2.8-.8 6.3-1.4 9-2.5-6.5 3.6-22.5 20.2-21 28 1.6 8 9.6-3.4 14.3-5.1-3.4 9.7-10.7 17.3-11 28.3 4.9-2.8 8.6-8.3 14.2-10.4 0-.2.9.8.9.8-2.7 6.8-13.6 26.6-4.1 30.8 2.6-4.9 6.4-9.9 11.3-12.2-.7 9-4.9 22.2 1.4 29.5 1.6-3.1 3.3-7.1 6.3-9.3 2.3 6 2 13.3 6.2 18.6.8-1.9 5.3-12.4 8.6-12.4 4 0 5.3 10.7 7.3 14.1.4-2.5 2.8-10.8 6.4-10.7 3.3.1 4 7.8 5.8 10 .2-2.2 1-4.5 2.1-6 1.7 1.8 3.4 2 5.2-.9.6.6 1.1 1.5 1.6 2.8.3-.6.6-1.5 1.1-2.4 1 2.4 2.1 4.9 3.7 6.6 2.6-3.2 2.9-7.6 4.6-11.5 1.5 3.6 2.4 7.9 4.4 11.4 2.5-3.3 2.7-8.3 4.3-12.3.4 3.9.8 8.5 3 11.8 2.1-2.8 2.9-7.3 4.7-10.5.2 2.7 1.9 5.8 2.3 7.5 1.2-4.7 2.9-9.4 4.4-14 2.1 2.2 3.6 5 3.6 8.6 1-8.5-.6-20.9 3.2-28.2 2.3 2.9 3.4 7.2 3.5 10.9 1.5-5.9 2.4-14.7 2-21.6 3.1 1.9 5.3 5.2 6.8 8.8.9-7.1 1.9-14.8.3-21.8-1.3-5.5-6.2-10.7-4.7-16.1 3.3 2.6 5.2 6.9 7.7 10.1z"/></g><path d="M136.8 142.5c14.2-1.3 19.3-6.9 22.5-20.9 2.6-11.4 8.8-32.7-3.1-40.6-9.3-6.2-29.9-3.8-38.5 3.1-10.6 8.4-17.1 32.4-15.1 45.5 2.3 15.8 22.8 14 34.2 12.9zm-16.3-91.6c0-.7-.4-1.5-1.1-1.9-.1 0-.2-.1-.3-.1-.3-.5-.6-1-1.2-1.4-1.4-1.2-7.5-5.8-9.9-4.6 0 0-.1 0-.1.1h-.5c-2.5.4-4.5 2.8-6.2 5.3-1.2 1.2-2.3 2.5-3.3 3.8-.6.7-1.1 1.5-1.6 2.2-5.1 6-10.6 14.2-17.5 17.3a1.21 1.21 0 0 0-.7.7c-1.3 1-1.3 3.5.6 3.8 1.3.2 5.3.2 6.3 1.3a2.18 2.18 0 0 0 3 0c4.1-4.1 6.9-10.8 9.6-16 2.5-4.9 7.2-8.3 10.3-12.8.3.8.5 1.7.8 2.5v.3c.1 1.2.2 2.4.2 3.5-1.5 1.6-.5 6.2-.2 7.9.3 2.2 3.9 3.2 4.3.5 0-.2 0-.4.1-.6h0c.3-2.1.4-4.1.3-6 0-.1.1-.3.1-.4.3-1.1 0-2.6-.3-3.9 0-.3 0-.6-.1-1v-.1c.3.2.5.3.8.4a12.59 12.59 0 0 1 1 .3c.4 1.8-.7 5 0 6.9.9 2.4 4 1.7 4.3-.7.2-2.6 1.5-4.7 1.3-7.3z" fill="#fff"/><path d="M117.9 81.1c8.6-6.7 29.2-8.9 38.5-2.9 11.9 7.7 5.8 28.4 3.2 39.4-3.1 13.6-8.2 19-22.4 20.3-11.5 1-31.9 2.7-34.3-12.6-1.9-12.7 4.5-36 15-44.2z" fill="#d42027"/><path d="M130.2 86.7c.1 4-2.5 5.2-3.8 8.5-1.3 2-1.7 4.5.5 6.2 1.4 1.1 2.9-.1 3.8-1.1 2.5-2.7 3.4 1 6 .3 6.3-1.6.3-7.4-1.2-10.5-.5-1-.9-10.4-.9-15-1.9.3-3.8.6-5.6 1.1.5 3.8 1.2 9.3 1.2 10.5zm18.1 24.9c-4.2-4.9-13-1.5-14.6 4.2-3.5-5.4-20.2-14.8-22.8-3.5-1.2-3.9-4-4.5-7.2-3-1.2 5.9-1.5 11.6-.8 16.1 2.4 15.3 22.8 13.6 34.3 12.6 14.2-1.2 19.3-6.7 22.4-20.3l1.7-7.3c-4.4-1.8-9.4-2.1-13 1.2z" fill="#010101"/><path d="M145.6 74.9c-1.2 4.1-2.9 8.3-5.5 11.4-.4-3.5 0-7.7.5-11.6 1.7 0 3.4.1 5 .2zm15.8 9.1c-1.1-2.3-2.7-4.2-5-5.7-1.6-1-3.5-1.8-5.6-2.4-.5 7.6-.2 16.2-.1 23.6 6.5-3.7 9.4-9.2 10.7-15.5zm-20.7 41.8c-4.9 3-4 8-3.8 12.8h.2c2.6-.2 5-.6 7-1.2-.5-4.3-2.8-7.2-3.4-11.6zM115 112c-4.1 6.1-6.8 15.3-6.1 23.5 3.6 2.4 8.4 3.4 13.3 3.7-1.1-9.9-.2-18.3-7.2-27.2zm3-12c7.1-5.5 9.2-15.3 11.5-23.9-4.6 1.1-8.8 2.8-11.6 5.1-.3.2-.5.5-.8.7-.9 6.1-.9 12.7.9 18.1zm38.4 8.2c-3.9 5.3-7.2 7.8-8.2 14.6-.8 5.3-1.6 9.5-3 14.3 8.2-2.6 11.9-8.3 14.3-19-.7-3.6-1.8-7-3.1-9.9zm-24.8-18.6c1.2-4.9 4.1-9.5 4.7-14.6-1.4.1-2.9.4-4.3.6-.8 4.7-1.9 9.4-.4 14zm-5.7 37.8c-2.1 2.6-1.2 8-1.4 11.8 2.9.1 5.7-.1 8.3-.3-.2-4.7-2.9-7.7-6.9-11.5z" fill="#fff"/><g fill="#d42027"><use xlink:href="#B"/><path d="M151.1 75.1c-4.2-.5-7.3-4.3-6.8-8.6 0-.4.1-.8.3-1.2 1-3.7 4.5-6 8.3-5.6 4.2.5 7.3 4.3 6.8 8.6a7.75 7.75 0 0 1-8.6 6.8z"/><use xlink:href="#B"/></g><path d="M146.4 67.1c-.3 2.9 1.7 5.5 4.6 5.8s5.5-1.7 5.8-4.6-1.7-5.5-4.6-5.8c-2.8-.4-5.5 1.7-5.8 4.6z" fill="#fff"/><path d="M146.7 66.1c-.2 2.8 1.9 5.2 4.6 5.5 2.4.3 4.6-1.1 5.5-3.3v.3c-.3 2.9-2.9 5-5.8 4.6-2.9-.3-5-2.9-4.6-5.8 0-.4.2-.9.3-1.3z" fill="#e9e8e8"/><path d="M150.1 68.6c-.2 1.4.9 2.7 2.3 2.9s2.7-.9 2.9-2.3-.9-2.7-2.3-2.9c-1.5-.2-2.8.9-2.9 2.3z" fill="#010101"/><path d="M153.3 67.8c-.1.5.3 1 .8 1 .5.1 1-.3 1-.8.1-.5-.3-1-.8-1-.5-.1-1 .3-1 .8zm-2.5 2.7c0 .3.2.6.5.6s.6-.2.6-.5-.2-.6-.5-.6c-.3-.1-.6.2-.6.5z" fill="#fff"/><g fill="#d42027"><use xlink:href="#C"/><path d="M136.1 74.6c-4.9-.6-8.4-5-7.8-9.9.1-.4.1-.9.3-1.4 1.2-4.2 5.2-6.9 9.6-6.4 4.9.6 8.4 5 7.8 9.9-.6 4.8-5.1 8.3-9.9 7.8z"/><use xlink:href="#C"/></g><path d="M131.9 65.5c-.4 3.3 2 6.3 5.3 6.7s6.3-2 6.7-5.3-2-6.3-5.3-6.7-6.3 2-6.7 5.3z" fill="#fff"/><path d="M132.3 64.3a6.05 6.05 0 0 0 5.3 6.4c2.8.3 5.3-1.3 6.3-3.8v.4c-.4 3.3-3.4 5.7-6.7 5.3s-5.7-3.4-5.3-6.7c0-.6.2-1.1.4-1.6z" fill="#e9e8e8"/><path d="M136.1 67.2c-.2 1.7 1 3.2 2.7 3.3 1.7.2 3.2-1 3.4-2.7s-1-3.2-2.7-3.3-3.2 1-3.4 2.7z" fill="#010101"/><path d="M139.8 66.3c-.1.6.4 1.1.9 1.2.6.1 1.1-.4 1.2-.9.1-.6-.4-1.1-.9-1.2-.6-.1-1.1.3-1.2.9zm-2.9 3.1c0 .4.2.7.6.7s.7-.2.7-.6-.2-.7-.6-.7c-.3-.1-.7.2-.7.6z" fill="#fff"/><path d="M160.8 58.4c-1-1.9-5.4-2.9-7.2-3.7-4.1-1.7-8.3-3.3-12.6-4.6-3.2-.9-8.1-2.3-12.4-2.3-1.1 1.2-2 2.4-2.7 4-.4 1-.8 2.2-1.3 3.2 1.5 2.3 3.3 4.3 5.8 5.8 6.1 3.7 14.8 6.3 22 4.4 2.2-.5 10.2-3.5 8.4-6.8z" fill="#010101"/><path d="M156.1 62.4c-10.2 2.8-22.5-.9-31.2-6.4-.3-.2-.5-.4-.7-.5 1.4 1.9 3 3.6 5.2 5 6.7 4.2 16.2 7.1 24 4.9 1.9-.5 7.8-2.8 9.2-5.6-2.6 1.3-5.2 2.2-6.5 2.6zm-12.8 81.9c.7.3 1.5.5 2.2 1-.4-3-4.1-4.4-6.5-5 .6 0 1.4.1 1.9.2-1.2-.9-5.9-.9-8.6 0-1.2.1-2.3.4-3.4.9-.2.2.4.2.4.5-1.5.7-2.5 2.1-3.5 3.1h1.8c-1.3 1.5-2.3 3.5-2.5 5.5.6-.3 1.3-.5 1.9-.7 0 1.6.2 3.5.6 5.1.7-.7 2.1-.9 2.8-1.5l1.4 5.2c.6-1.2 1.7-1.8 2.3-2.8.6 2.5.8 5.3 1.2 7.8.6-2 1.3-4.3 2.9-5.8.2.7.8 1.6 1 2.5.6-2.1 1-4.3 2.4-5.9.2.6.6 1.2.9 1.9.6-2.1 1.5-4.1 2.7-6.1.3.4.9 1 1.1 1.4.4-2.6-1-5.4-3-7.3z" fill="#d42027"/><g fill="#010101"><path d="M24.6 63.7s-.1-.1-.1-.2c0 .1-.1.1-.1.2h.2z"/><path d="M35 59.3c-4-4-7.4-6.1-9.4-11.4-.8 2.1-2.2 13.4-1 15.6C27.1 60 31 60 35 59.3z"/></g><defs ><path id="B" d="M150.6 74c-3.5-.4-6-3.6-5.6-7.1 0-.3.1-.6.2-1 .8-3 3.7-5 6.9-4.6 3.5.4 6 3.6 5.6 7.1s-3.6 6-7.1 5.6z"/><path id="C" d="M136.7 73.4c-4-.5-6.9-4.1-6.5-8.1 0-.4.1-.7.2-1.1 1-3.5 4.3-5.7 7.9-5.3 4 .5 6.9 4.1 6.5 8.1s-4.1 6.9-8.1 6.4z"/></defs></svg>