<svg xmlns="http://www.w3.org/2000/svg" xmlns:xlink="http://www.w3.org/1999/xlink" viewBox="0 0 231 231" xmlns:v="https://vecta.io/nano"><style><![CDATA[.F{fill:#010101}.G{fill:#d42027}.H{fill:#fff}.I{fill:#e9e8e8}]]></style><g class="F"><path d="M190.1 40c-.8-4.5-2.9-10.2-6.2-13.5-3-2.9-7.1-2.4-9.9 0-7.6 2.5-15.7 8.8-20.3 15.1-3.5 4.9-7.7 9.8-10.2 15.3-2.4 5.4-6.6 10.9-7.2 16.8-.1.9 1 1.5 1.6 1.1.2.6.8 1.1 1.4 1.2 6.4 1.2 9.3-6.5 11.3-11.3 1.9-4.7 3.8-9.1 6-13.3.4 0 .8.1 1 0 1.1-.2 1.7-.7 2.2-1.6.4-.8.2-1.9 0-2.7-.1-.2-.2-.4-.4-.6 2.3-3.8 5-7.2 8.3-10.3.1.3.3.6.6.8 1.4 1 2.7 1 3.8.4-.4 1-.7 2.1-.7 3.3-.2 3.3 1.9 6.8 5.5 4.7 1.8-1.1 2.9-4.3 3.4-7.4.1 1.1.3 2.1.3 3.2.2 4 1.3 7 5.6 7.5 4.5.7 4.5-5.6 3.9-8.7z"/><path d="M163.3 60.6c-2.4-2.7-6.4 4.1-9.1 10 1.2-7 .2-16.6-1.3-20.6-3.6 1.3-6.7 8.1-9 13.9 1.3-7.1 0-15.6-4.1-19.9-6 5.1-7 12.6-7.1 20-.2-7.9-2.6-18.4-7.6-22-7.3 4.8-5.6 18.9-7.5 26.6 2.1-8.7-.6-22.7-6.4-26.2-10.3 2.3-4.5 15.5-3.3 22.2-1.9-3.7-9.5-18-13.6-16.4-6.1 2.3 3.3 14.2 5.2 17.4-2.8-2.4-12.7-11.2-16.1-7.1-3.6 4.4 5.5 11 9.2 14.5-3.9-3.3-14.7-7-17.8-3.3-5.6 6.8 16.3 9.2 19.3 10.4l53.8 3.3c6.8.2 20.9-16.4 15.4-22.8z"/><path d="M84.9 105.5c-1.1 20.7-4.8 28.1-23 38.8-14.5 8.5-47.5 18.1-41.3 37.5 7.2 22.7 60.6 11 83.5 9 22.7-1.9 75.4 21.3 76.2-21.3.3-16.3-14.4-40.4-19.2-56.4-3.7-12.4-5.5-29.7-14.7-39.6-26-27.8-59.9 2.1-61.5 32z"/></g><path d="M115.1 65.7c-.7-3.3-2.5-5.2-5.6-6.2-2.2-.7-6.1-1.2-8.2.3-3 2.4-2.6 7-1.4 10.9.1 2.3.6 4.6 1.7 6.5 1.6 2.9 3.4 6.4 7.2 6.3 6.8-.4 7.2-13.5 6.3-17.8zm-4 14.4c-1.7.2-3.5.3-5.2.5a16.1 16.1 0 0 1-2.1-3c-.7-1.1-1.2-2.2-1.5-3.3v-.1c-.3-2.6-1.1-5.1-1.3-7.7.1-.9.3-1.6.8-1.8.2-.1.1-.3 0-.3-.3-.2-.5-.3-.8-.4.2-1.4 1-2.7 2.6-3.2 2.9-.9 7.4.5 9 2.9 3 4.4 1.1 12.1-1.5 16.4zM97 78.7c-.1-.3-.2-.5-.3-.7-.1-.6-.5-1.2-1-1.6a2.01 2.01 0 0 0-2.1-.3c-1 .4-1.6 1.1-1.6 2.1 0 .1 0 .3.1.4-.2.5-.3 1.3-.1 1.7.4.9 1 1.2 1.7 1.1.4.8 1.2 1.1 2 .7 1.2-.5 1.7-2.1 1.3-3.4zm-1.8.3c-.1.1-.3.3-.6.5-.4-.2-.8-.4-1-.8 0 0 0-.1.1-.1.3-.3 1.2-.3 1.6-.1 0 .2.1.4-.1.5zm18.2-8.7c-1 0-2 .6-3 .5-.5-.1-.7-.2-.7-.5.7-.3 1.3-1 1.5-1.9a.91.91 0 0 0-1.5-.9c-.4.3-.7.6-1 .9.3-.9.8-1.7.9-2.7.1-.4-.3-.8-.7-.8-.3 0-.5-.1-.8-.1s-.7.2-.8.5-.2.5-.4.8c-.3.2-.9.4-1.1.7-.2.4 0 .8.2 1.1-.1.8.4 1.8 1.1 2.2.2.1.5.2.7.3.1.4.3.9.6 1.4 1.4 1.8 4.1.6 5.3-.7.3-.3.1-.8-.3-.8zm16.7-2.7l-1.3-2.4c.8-.6 1.3-1.5 1.4-2.5.1-1.8-.9-2.3-2.4-2.5-1.2-.2-2 1.1-2.1 2.1v.5c-.1.1-.1.2-.2.3-.2.4-.2.8-.1 1.1-.5 0-1-.1-1.6-.3-.8-.3-.6-.3-.6-1.2v-.2c.2-.2.4-.5.6-.7.3-.3-.2-.6-.5-.4-1.2.8-1.2 1-1.3 2.5 0 .3.1.5.3.6 1.3.8 2.8 1.2 4 .8.1.1.2.1.4.2.8 1 1.9 1.9 2.7 2.5.5.3.9-.1.7-.4zm23 6.3c-.7-.1-1.3.3-1.8.8-.2 0-.3 0-.4.1-.9.4-1.3 1.4-1.4 2.5-.6.7-.3 2.5-.3 3.4.1 1.1.4 2 1.3 2.6.3.2.7 0 .7-.3.2-.6.1-1.3.1-1.9.9-.1 2-1 2.5-1.9 1-1.6 1.9-4.9-.7-5.3zm-1.8 5.1v-.2c.1-.4.2-.7.6-1.2.1-.1.2-.4.4-.7v.3c0 .2.2.4.4.4-.3.6-.6 1.1-1.1 1.5-.3.3-.2.3-.3-.1z" fill="#8ecfad"/><use xlink:href="#B" class="G"/><path d="M150.4 90.6c-7.2-.4-12.6-6.6-12.2-13.8a7.47 7.47 0 0 1 .3-2c1.4-6.3 7-10.5 13.5-10.1 7.2.4 12.6 6.6 12.2 13.8-.4 7-6.6 12.5-13.8 12.1z" class="F"/><use xlink:href="#B" class="G"/><path d="M141.2 76.3c-.3 5.3 3.7 9.8 9 10.2 5.3.3 9.8-3.7 10.2-9 .3-5.3-3.7-9.8-9-10.2-5.4-.3-9.9 3.7-10.2 9z" class="H"/><path d="M141.7 73.9c0 5 3.9 9.3 9 9.6 4.4.3 8.3-2.5 9.7-6.6v.6c-.3 5.3-4.9 9.3-10.2 9s-9.3-4.9-9-10.2c0-.8.2-1.6.5-2.4z" class="I"/><path d="M147.1 77.9c-.2 2.6 1.8 4.9 4.5 5.1 2.6.2 4.9-1.8 5.1-4.5.2-2.6-1.8-4.9-4.5-5.1s-4.9 1.8-5.1 4.5z" class="F"/><path d="M152.9 76.1c-.1.9.7 1.7 1.6 1.8s1.7-.7 1.8-1.6-.7-1.7-1.6-1.8c-1-.1-1.8.6-1.8 1.6zm-4.4 5.1c0 .6.4 1.1 1 1.1s1.1-.4 1.1-1-.4-1.1-1-1.1c-.5 0-1 .4-1.1 1z" class="H"/><use xlink:href="#C" class="G"/><path d="M129.9 71.1c-4.5-.3-8-4.2-7.7-8.7 0-.4.1-.8.2-1.3.9-4 4.5-6.7 8.5-6.4 4.5.3 8 4.2 7.7 8.7-.2 4.5-4.1 8-8.7 7.7z" class="F"/><use xlink:href="#C" class="G"/><path d="M124.1 62.1c-.2 3.4 2.3 6.2 5.7 6.4s6.2-2.3 6.4-5.7-2.3-6.2-5.7-6.4-6.2 2.3-6.4 5.7z" class="H"/><path d="M124.4 60.5c0 3.2 2.5 5.9 5.7 6.1 2.8.2 5.3-1.6 6.1-4.2v.4c-.2 3.4-3.1 5.9-6.4 5.7-3.4-.2-5.9-3.1-5.7-6.4 0-.6.1-1.1.3-1.6z" class="I"/><path d="M127 63.5c-.1 1.7 1.2 3.1 2.8 3.2 1.7.1 3.1-1.2 3.2-2.8.1-1.7-1.2-3.1-2.8-3.2-1.6-.2-3.1 1.1-3.2 2.8z" class="F"/><path d="M130.7 62.3c0 .6.4 1.1 1 1.1s1.1-.4 1.1-1-.4-1.1-1-1.1-1.1.4-1.1 1zm-2.8 3.3c0 .4.3.7.6.7.4 0 .7-.3.7-.6 0-.4-.3-.7-.6-.7-.3-.1-.6.2-.7.6z" class="H"/><use xlink:href="#D" class="G"/><path d="M106 87.4c-8.9-.5-15.7-8.3-15.2-17.2.1-.8.2-1.6.4-2.5C92.9 59.9 100 54.5 108 55c8.9.5 15.7 8.3 15.2 17.2S114.9 88 106 87.4z" class="F"/><use xlink:href="#D" class="G"/><path d="M94.5 69.6c-.4 6.6 4.6 12.3 11.2 12.7s12.3-4.6 12.7-11.2-4.6-12.3-11.2-12.7S94.9 63 94.5 69.6z" class="H"/><path d="M95.1 66.6c0 6.3 4.8 11.6 11.2 12 5.5.3 10.4-3.2 12-8.2v.7c-.4 6.6-6.1 11.6-12.7 11.2S94 76.2 94.4 69.6c.2-1 .4-2 .7-3z" class="I"/><path d="M101.7 68.8c-.2 3.3 2.3 6.1 5.6 6.3s6.1-2.3 6.3-5.6-2.3-6.1-5.6-6.3c-3.2-.1-6.1 2.4-6.3 5.6z" class="F"/><path d="M108.9 66.6c-.1 1.2.8 2.2 2 2.2 1.2.1 2.2-.8 2.2-2 .1-1.2-.8-2.2-2-2.2-1.1-.1-2.1.8-2.2 2zm-5.4 6.4c0 .7.5 1.3 1.2 1.4.7 0 1.3-.5 1.4-1.2 0-.7-.5-1.3-1.2-1.4s-1.3.5-1.4 1.2z" class="H"/><use xlink:href="#E" class="G"/><path d="M92 92.7c-4.8-.3-8.4-4.4-8.1-9.2 0-.4.1-.9.2-1.4a8.46 8.46 0 0 1 8.9-6.7c4.8.3 8.4 4.4 8.1 9.2-.2 4.8-4.3 8.4-9.1 8.1z" class="F"/><use xlink:href="#E" class="G"/><path d="M85.8 83.3c-.2 3.5 2.5 6.5 6 6.8 3.5.2 6.5-2.5 6.8-6 .2-3.5-2.5-6.5-6-6.8-3.5-.2-6.5 2.5-6.8 6z" class="H"/><path d="M86.2 81.7c0 3.3 2.6 6.2 6 6.4 3 .2 5.5-1.7 6.4-4.4v.4c-.2 3.5-3.2 6.2-6.8 6-3.5-.2-6.2-3.2-6-6.8.1-.6.2-1.1.4-1.6z" class="I"/><path d="M89.7 83.5c-.1 1.8 1.2 3.3 3 3.4s3.3-1.2 3.4-3-1.2-3.3-3-3.4-3.3 1.3-3.4 3z" class="F"/><path d="M93.5 82.3c0 .6.4 1.2 1.1 1.2.6 0 1.2-.4 1.2-1.1 0-.6-.4-1.2-1.1-1.2-.6 0-1.2.5-1.2 1.1zm-2.9 3.4c0 .4.3.7.6.7.4 0 .7-.3.7-.6a.68.68 0 0 0-.7-.7c-.2 0-.6.2-.6.6z" class="H"/><g class="F"><path d="M53.8 70c-.4-2.5-3.2-3.7-5.5-3-2.6.8-3.4 4-3.2 6.4.2 2.1.9 4.1 1.7 6.1.6 1.5 1.7 2.5 2.5 3.9.9 1.5 3 1.1 3.6-.3.2-.2.3-.5.3-.9-.4-4.1 1.2-8.2.6-12.2z"/><path d="M51.9 81.9s-.1-.1-.2-.1c-2.4-2.8-6.8-4-10.3-4.4-2.5-.3-7 .9-8.4 3.3-1.9 3.2 2.2 5.7 4.8 5.7 2.1 0 4.4-.2 6.5-.6 2.2-.4 4.1-.1 6.2-.3 1.6-.2 3-2.4 1.4-3.6z"/><path d="M50.1 82.8c-.1 0-.1.1-.2.2-2.4.3-5.3 2.5-6.2 4.3-1.1 2.3-2.3 5.3.1 7.3 2.2 1.7 5.2 1.6 7.3-.1 1.1-1 1.3-2.6 1.4-4 .1-1.7.3-3.5.9-5.2.9-2.3-1.6-4.4-3.3-2.5z"/><path d="M85 96.1c-4.9-4-10.8-7.6-16.7-9.9-4.3-1.7-9.7-2.9-13.9-5.3-1.3-1.6-2.2-3.5-2.5-5.7-.1-1.2-2-1.3-2.2-.1-.2 1.4-.2 2.5-.2 3.6-1.3.5-2.1 2.3-.8 3.6l.5.5c.1.1.3.2.5.3 1 .8 2 1.5 3.2 2.1 1.2 1 2.6 1.9 4.3 2.7 6.1 3.1 12.3 6.5 18.3 9.9 4.5 2.6 8.2 7.1 12.8 9.2.9.4 1.9.2 2.6-.5 4.7-5.1-2.7-7.8-5.9-10.4z"/><path d="M89.7 102c-4.6-3.3-11.3-8.5-17.1-8.5-4 0-3.9-5-7.2-7.1-1.8-1.1-4-1.8-6-2.4-1.3-.4-2.2 1.1-1.2 2 2.6 2.4 6.3 3.8 7.5 7.4.7 2 2 4.1 4.1 4.7 2.6.7 3.9-.8 6.6.8 3.6 2.2 7.3 4.7 11.2 6.5a2 2 0 0 0 2.1-3.4zm-11.3 37.8c-.1-1-.8-1.7-1.8-2-7.8-2.1-16.7-11.6-20.9-18.1-1.2-1.9-3.1-4.4-5.2-6.5-1.1-1.8-2.3-3.7-4.3-4.4-2.2-.8-4.5 2.1-2.4 3.6l.9.6c1.4 1 3 4.1 3.8 5.3l4.6 6.8c3.8 5.5 7.5 11.2 12.8 15.5 1.7 1.4 4.3 5 6.8 4.5 2.7-.6 6.1-2.2 5.7-5.3z"/><path d="M63.7 132.5c-.2-1.4-.9-2.8-2.3-3.4a1.93 1.93 0 0 0-1-.3h-.3c.1 0 .2.1.3.2-.7-.4-1.4-.4-2.2-.5h-.7c.3-.5.4-1 .4-1.5-.1-.8-.4-1.5-.8-2.1-.3-.6-.9-.9-1.3-1.4-.7-1-2.1-.3-2.1.8 0 .7.3 1.2.6 1.9.1.3.1.6.2.9-.1-.7-.4.1-.5.4-.4 1.5-.3 3.5 1.2 4.5.6.4 1.4.5 2.1.5.3 0 .6 0 .9.1h.4l.1.1a1.69 1.69 0 0 0 1 .3c.1.1.1.2.2.3.4.6.9.8 1.5 1.1 1 .5 2.4-.6 2.3-1.9z"/><path d="M60.1 128.8c-.2 0-.1 0 0 0h0zm-1.3-16.6c-1.8-4.1-6.9-3.3-11-3.1.1-3.3-.3-6.4-3-8.8-2.4-2.1-8-.7-6.6 3.2.3.9.8 1.7 1.3 2.5-3.3-.4-7.2-.9-9.5 1.9-.4.5-.8 1.4-.5 2.1 1.3 3 4.5 3.6 7.9 3.7-1.1.5-2 1-2.2 1.2-1.1 1.3-2.6 2.9-2.4 4.8.3 3.4 3.8 3.9 6.5 2.5 2.6-1.5 6.8-4.5 7.7-7.9.1 0 .2.1.4.1l.5.5c.4.4.9.3 1.2.1 3.4 1 6.9 2 9.5-.5.3-.7.5-1.7.2-2.3z"/></g><use xlink:href="#F" class="G"/><path d="M129 92.6c-6-.4-10.6-5.6-10.3-11.6 0-.5.1-1.1.3-1.7 1.2-5.3 5.9-8.9 11.3-8.5 6 .4 10.6 5.6 10.3 11.6S135.1 93 129 92.6z" class="F"/><use xlink:href="#F" class="G"/><path d="M121.3 80.6c-.3 4.5 3.1 8.3 7.6 8.6s8.3-3.1 8.6-7.6c.3-4.4-3.1-8.3-7.6-8.6-4.5-.2-8.4 3.2-8.6 7.6z" class="H"/><path d="M121.7 78.6c0 4.2 3.3 7.8 7.5 8.1 3.7.2 7-2.1 8.1-5.5v.5c-.3 4.5-4.1 7.8-8.6 7.6-4.4-.3-7.8-4.1-7.6-8.6.2-.8.4-1.5.6-2.1z" class="I"/><path d="M125.9 83.5c-.1 2.2 1.6 4.1 3.8 4.3 2.2.1 4.1-1.5 4.3-3.8.1-2.2-1.6-4.1-3.8-4.3-2.2-.1-4.1 1.6-4.3 3.8z" class="F"/><path d="M130.8 82c-.1.8.5 1.5 1.3 1.5s1.5-.5 1.5-1.3-.6-1.5-1.3-1.5c-.8-.1-1.5.6-1.5 1.3zm-2.8 3.5c0 .5-.5.9-1 .9s-.9-.5-.9-1 .5-.9 1-.9c.5.1.9.5.9 1z" class="H"/><path d="M131.5 117c3.3 1.4 6.6 6.8 10.3 7.3.3 0 .6-.1.9-.1 4.7-1.1 6.9-7 6.1-12.1-1-6.6-6.1-10.2-11.1-12.2-11.6-4.4-26.4-3.7-36 5.6-7.4 7.2-2.6 18.5 7 16.2 4.6-1.1 8.8-3.1 13-4.1 2.8-1.3 7.1-1.7 9.8-.6z" class="G"/><path d="M132.4 114.7c-1.3-.1-1.2 1.9.1 2 1.3 0 1.2-1.9-.1-2z" class="F"/><path d="M130.4 111.6c.2 1.9.2 3.5 0 5.1l1.1.3c1.6.7 3.2 2.4 4.9 3.9 1.3-.8 2.7-1.6 4.1-2.1-2.5-2.5-6.2-7.4-10.1-7.2zm-8.5 5.8l-.4-4.9c-4-.1-8.9 1.7-12.6 3 1.6 1.4 2.1 3.3 2.7 5.3 3.5-1.1 6.8-2.5 10.1-3.3 0 0 .1-.1.2-.1zm-3.8-19.8c.4 2.7.3 5.4 0 8.3 3.5-.2 6.8-.6 10.3-.3-2.1-2.1-2.6-5.2-2.5-8.2-2.6-.3-5.2-.2-7.8.2zm-8 2.3c-2.7 1.2-5.2 2.7-7.5 4.8.8 1.5 1.4 3.2 2.5 4.7 2.9-1.4 5.6-3.4 8.5-4.9-1.2-1.8-2.5-3.2-3.5-4.6zm36.6 6.7c-2.2-3.3-5.6-5.4-9-6.7-1.1-.4-2.2-.8-3.3-1.1-.4 2.3-1.1 4.5-3 6 5 1.9 7.9 3.8 11.7 7.6 1.1-2.2 2.2-4.2 3.6-5.8z" class="H"/><path d="M215.3 104.8c-2.5-.8-5.7.5-8.2 2.4-.6 0-1.2 0-1.7.2 1.6-3.5 2.3-7.4-.2-10.5-.6-.8-1.4-1.2-2.4-.9-2.5.7-3.2 2.2-3.4 4.8-.1 2-.6 3.6-.2 5.5.3 1.7-.5 2.5-1.6 3-7.1-.5-15.6-2-22.1.7-6.4 2.6-14.2 8.4-18.7 13.6-.1.4-.1.8-.1 1.2.2.9.5 1.9 1.2 2.6.6.6 1.5 1 2.4 1.1 1.2-.5 2.4-1.5 3.5-2.5 3.4-2.6 6.6-5.6 9.9-8.1 5.5-4.2 13.7-4.5 20.9-4.3-1.1.9-2.2 1.8-3.2 2.8-1.5 1.5-3 4.9-1 6.7 2.9 2.6 6 .3 8.6-2.8-.1 4.6 1.3 8.7 7.1 8.9 8.9.2 1.7-9.9.7-14.5.4-.7.9-1.5 1.4-2.1 3.4 0 7.1 2.5 10.3-.5s-.6-6.5-3.2-7.3z" class="F"/><defs ><path id="B" d="M150.5 89.7c-6.4-.4-11.3-5.9-10.9-12.3 0-.6.1-1.1.3-1.8 1.2-5.6 6.3-9.4 12-9.1 6.4.4 11.3 5.9 10.9 12.3s-5.9 11.3-12.3 10.9z"/><path id="C" d="M130 70.6c-4.1-.3-7.1-3.7-6.9-7.8 0-.4.1-.7.2-1.2.8-3.5 4-6 7.6-5.7 4.1.2 7.1 3.7 6.9 7.8-.3 4-3.8 7.1-7.8 6.9z"/><path id="D" d="M106.1 86.3C98.1 85.8 92 79 92.5 71c0-.7.2-1.4.4-2.3 1.5-7 7.8-11.7 15-11.3 8 .5 14.1 7.4 13.6 15.3-.6 8-7.4 14.1-15.4 13.6z"/><path id="E" d="M92 92.2c-4.2-.3-7.5-3.9-7.2-8.2 0-.4.1-.8.2-1.2.8-3.7 4.2-6.3 8-6 4.2.3 7.5 3.9 7.2 8.2-.3 4.2-3.9 7.4-8.2 7.2z"/><path id="F" d="M129.1 91.9c-5.4-.3-9.5-5-9.2-10.3 0-.5.1-1 .2-1.5 1-4.7 5.3-7.9 10.1-7.6 5.4.3 9.5 5 9.2 10.4-.3 5.2-4.9 9.3-10.3 9z"/></defs></svg>