<svg xmlns="http://www.w3.org/2000/svg" xmlns:xlink="http://www.w3.org/1999/xlink" viewBox="0 0 231 231" xmlns:v="https://vecta.io/nano"><g fill="#010101"><path d="M141.9 20.7c-.9-1.8-2.5-2.9-4.5-3.3-5.6-.9-13.8 4.2-16.9 6.9-3.5-3.2-10.5-7.7-15.4-7.1-1.9.2-3.3 1.2-4 2.8-1.2 2.4-1.2 4.4-.1 5.9 1.3 1.8 4 2.5 7.2 2.6s7.1-.3 10.8-.9a309 309 0 0 0 .2 11.3c.1 3.2.2 5.9.1 10h2.4c.1-4.1 0-6.9-.1-10.1-.1-2.9-.2-6.3-.2-11.3 3.7 1.3 7.3 2 10.4 2.2 4.3.2 7.7-.8 9.5-2.8 1.6-1.7 1.8-3.9.6-6.2zm-39 3.8c-.5-.7-.4-1.8.3-3.3.4-.9 1.1-1.3 2.2-1.5h.9c3.5.1 8.5 3.1 11.6 5.7-8.6 1.2-13.6 1-15-.9zm36.7.8c-2 2.2-8.4 3-16.7.2 3.3-2.5 9.9-6.3 14.1-5.6 1.3.2 2.2.8 2.8 1.9.7 1.4.6 2.5-.2 3.5z"/><path d="M180.3 116.9c2.6-9.9-7.4-18.5-11.1-26.5 2.8.4 5.7 1.9 8.3 2.8-2.5-8.3-9.2-14.2-15-20 2 .3 4.1.1 6.1.6-5.4-4.5-12.7-6.8-19.4-8.2 2.4-2.2 6.2-2.5 9.1-2.6-4.5-1.7-10-3.3-15.5-4-4.9-8.4-13.1-14-22.5-14.4-9.5-.4-18.1 4.7-23.6 12.7-5.5.3-11.1 1.5-15.7 2.8 2.9.4 6.7.9 8.9 3.3-6.8.9-14.3 2.6-20 6.7 2-.3 4.1.1 6.1-.1-6.3 5.3-13.4 10.7-16.5 18.8 2.7-.7 5.6-2 8.5-2.1-4.3 7.7-15 15.5-13.1 25.5.7 0 1.4-.1 2.2-.2-.3 6.7-4.6 14.6-2.1 21.1.5-.7 1.2-1.5 1.8-2.3 2 5.8 1.6 12.8 3.4 18.8.6-.1.8-.5 1.5-.6 3.5 5.5 1.9 13.4 5.5 18.3 4.7-5.5 6.6 7.6 11 9.2.3-.5.5-1.2.9-1.7 3.9 1.5 5.4 6.2 9.3 8.1 3.9-4.9 5.4 3.1 9.1 4 2 .5 2.3-1.4 2.8-1.4-1.5-.2 6.6-.4 5.1.3.7-.3 4-2.1 4.4-2.2.5-.2.9-.7 1.4-1.3 1-.1 2.5-1.2 3.9-1.6 1.4.5 2.7 1.8 3.8 1.9.5.6.8 1.2 1.3 1.4.4.2 3.6 2.2 4.2 2.6-1.4-.8 6.6.1 5.1.1.5 0 .7 1.9 2.7 1.6 3.7-.6 5.8-8.5 9.3-3.3 4-1.5 5.9-6.1 9.9-7.3.3.5.4 1.3.7 1.8 4.6-1.2 7.4-14.2 11.7-8.3 4-4.6 3-12.6 6.9-17.8.7.2.9.6 1.5.7 2.2-5.8 2.3-12.8 4.8-18.4.5.8 1.1 1.6 1.6 2.4 3-6.3-.8-14.5-.5-21.2.8-.2 1.5-.1 2.2 0z"/><path d="M113.3 198.7c-2.2-1.7-4.7-2.9-7.4-3.5.1-5.7-.3-9.9-3.3-15.4-3.5-6.6-8.8-8.2-14.7-11.7-.1-.1-.2.1-.1.2 7.1 5.5 14.4 13.4 13.9 23.1-.1 1.1-.4 2.2-.4 3.3-.3-.1-.6-.1-1-.2-3.6-.4-6.9.3-10.5.8-2.9.4-2 4.7.7 4.8 2 .1 4 .2 6 .2-.3.4-.5.8-.7 1.2-1.2 2.9 2.5 5.3 4.3 2.5.4-.6.9-1.2 1.3-1.8l1.2-1.2c2.8 1.3 6 2.1 9 2.2 2.3.3 3.5-3.1 1.7-4.5zm4.7 0c2.3-1.5 4.9-2.5 7.6-2.9.3-5.7 1.1-9.8 4.4-15.1 4-6.3 9.4-7.5 15.6-10.5.1-.1.2.1.1.2-7.5 4.9-15.4 12.2-15.6 22 0 1.1.2 2.3.2 3.4.3-.1.6-.1 1-.1 3.6-.2 6.9.8 10.4 1.6 2.9.6 1.6 4.8-1 4.8-2 0-4-.1-6-.2.2.4.4.8.6 1.3 1 3-2.9 5-4.5 2.2-.3-.6-.8-1.3-1.2-1.9-.3-.4-.7-.9-1.1-1.3-2.9 1.1-6.1 1.6-9.1 1.5-2.3-.3-3.3-3.7-1.4-5zM82.4 77.9c-.2-.7-1.4-.7-1.7-.1.4-.9-6.1 3.1-4.9 2.6-6 2.8-11.1 6.2-17.8 8.2-9 2.7-23.4 4.9-25.7 13.9-2.3 9.2 1.9 21.6 3.5 30.8 1 5.9 2.2 11.6 2.8 17.5 3.4 33.2.4 43.4.1 30.1-4.5 1.4-11.7 3.7-10.5 7.4.7 2.2 2.4 4.1 4 5.9 1.5 1.6 4.6 5 6.9 5.5 2.2.4 3.9-1.4 4.1-3.4.3-3.1-2.1-5.6-4-7.7-1-.7 6.9-1.4 8.3-1.3 0 .2-.1.4 0 .8-.1 1.1-.1 2.2-.2 3.3-.2 2.9 3.1 4.8 5.2 2.4 1.9-2.2 3-5.7 2.1-8.6-.5-1.5-1.7-2.4-3.1-2.7-.1 0-.1-.1-.2-.1-1.8-.8-3.3-.6-5.2-.9-.3 0-.5-.1-.7-.1 0 11.4 3.5-.2-.4-35.2-1.1-10.3-3.3-21-5.7-31.1-.7-3.2-2.1-8.5-1.4-11.6 1.4-6 11.7-6.7 16.7-8.8l16.7-7c3.6-1.6 5.8-5.2 9.1-6.7.8-.4 1.1-.8 1.1-1.6-.1-.5 1.3-.2.9-1.5zm107.7 108.7c1-10 .6-20.1 2.4-30.1 1.1-5.8 2.7-11.5 4.2-17.2 2.2-9.1 7.4-21.1 5.8-30.5-1.6-9.2-15.7-12.5-24.5-15.8-6.5-2.5-11.4-6.3-17.1-9.5 1.1.6-5-3.9-4.7-2.9-.2-.7-1.4-.8-1.7-.1-.5 1.3 1 1 .9 1.7s.2 1.2.9 1.6c3.1 1.8 5.1 5.5 8.5 7.4 5.3 2.9 10.7 5.5 16.1 8.2 4.8 2.4 15 3.9 16 10 .5 3.2-1.3 8.4-2.2 11.5-3.2 9.9-6.1 20.4-8 30.6-2.2 11.8-2.2 23.2-3.1 35.1-.2 0-.5.1-.7.1-1.9.1-3.4-.2-5.2.5-.1 0-.1.1-.2.1-1.4.2-2.7 1.1-3.3 2.5-1.2 2.8-.3 6.4 1.4 8.7 1.9 2.6 5.3.9 5.4-2 0-1.1.1-2.2.1-3.4.1-.4.1-.6.1-.8 1.4 0 9.2 1.3 8.2 1.9-2.1 1.9-4.6 4.3-4.6 7.4 0 2 1.6 4 3.8 3.7 2.3-.3 5.7-3.5 7.3-5 1.7-1.6 3.5-3.4 4.4-5.5 1.2-3.7-5.8-6.5-10.2-8.2zM86.1 71.3c.1.3.2.7.3 1.2l2.1.1-2.4-1.3z"/><path d="M68.5 76.8c1.7-.2 3.2.6 4.7.6-1.9 1.9-3.7 4.4-4.2 7 .8-.1 1.8-.1 2.8-.1-.3.8-.6 1.6-1.1 2.3.9-.1 2 0 3.2.2-1.1 2.1-1.9 4.4-2 6.7 1.2-1.1 4-2.4 5.3-3.8-.4 1.6 0 3.6-.5 5.2 4.5-2.4 5.9-9.3 10.2-12.9.1.3-.3 1.2-.1 1.4.3-3.4 0-8.2-.5-10.9-6.2-.2-12.5.6-17.8 4.3zm94.8 11.7c-.4-1.7-1.6-3.1-2.9-4.3.6.2 1.3.4 1.8.9-.2-.7-.5-1.5-.9-2.3l1.4.3c-.6-2.5-1.7-4.7-3.3-6.5.5-2.2-1-4.4-5.5-5.1.1.4.2.9.2 1.3l-1.4-.6 1.4 4.5c-.8-.6-1.9-1.1-2.7-1.7-2 2.7-1.3 6.6-1 10.2 1.8 3.3 3.5 6.9 7.6 7.2-.5-.6-1.3-2.5-1.8-3.3 2.3-.7 4.4-1.4 7.1-.6z"/><path d="M133.8 137.7c1.9-1.3 4.1-1.6 5.9-3.4 0 .1.1-.7 0-.6-1.6-1.8-6.8-3.2-5.6-6.9.4-1.3 2.7-.6 2.9-2.4.2-2.1-1.7-2.2-2.2-3.3-2.3-5.5 1.8-4 4.3-7.7 1.9-2.9 1.4-5.4-1.6-6.4-1.9-.6-7.5 4.9-7.3-.6-3.1-.3-5.1 4.2-7.8 1.7-1-1-.3-3.1-1.8-3.6-.9-.3-2.5 1.8-3.3 2.4-.8-1.7-1.9-6.1-3.5-6.5-2.9-.7-1 4.2-2.7 6-1 1.1-9.5-6.4-7.2 2.2-1 .5-3.7-.3-3.7 2.1 0 2 2.7 2.7 4.4 3.9l-3.7 1.8c1.3-.4 2.7-.7 3.9 0-1.6.5-4.1.1-3.6 2.2-3.4 1.5-7.4 2.6-8.4 7.9 1.7.4 7.7-1.9 8.2.9.4 2.5-4 8.8-4.2 12.2 2.1-.1 4-3.2 6.2-2.2 0 3.7-2.6 9.6-1.9 12.9.7 3.4 1.6.3 2.1 1.9.4 1.2 2 20.7 4.7 9.3 1.4 3.9 1.2 9.8 3.7 12.5.1-.5 0-1 .1-1.4 1.8 3.3 2.2 8.8 4.1 12.3.1 0 0-.6.1-.6.4 1.2 1.1 2.5 1.5 3.7 1.1-3.6.8-8.7 2.5-12.6.5 1.2 1.2 2.5 1.5 3.9 1.1-2.3 1.4-5.7 2.5-8.3 3.2 12.8 4-19.4 7.3-10.2 1-3.1 2-5.7 3.6-8.1 1.9-2.9 6.5-5.2 7.4-8.8-2.6-2.8-6-3.5-8.4-6.2zm15.4-50.2c1.5.2 4.4-.2 6.1-1.3-5.3-3.1-8.7-7.3-1-10 .5 0 1 0 1.1.1-12.1-20-40-22.1-59-10.2.3.4.6.8.9 1.1-6.2 2.1-12.4 11.6-15.3 16.4 3.4-1.4 7.2-3.4 10.9-3.5 0-.1.5.6.4.6-.9 1.4-3.8 4.7-3.7 6.4.1 3.6-.5 1.2 2.5 1.8 2.6.6 3.8-3 6.5-.6 1.6 1.4-.4 5.9 1.5 7.1s3.1-2 4.5-1.5c1.5.5 2.8 2.2 4 2.6 2 .7 1.7 1.8 4.1 2.1.7.1 3-2.4 4.2-2.6 3.7-.6 4.8 4.7 8-2 3.2 2.1 8.3 8.1 8.6.4 5.3.4 10.9 4.4 10-4.4 3.5 2.2 11.5 1.9 5.7-2.5zm3.9-11.3h-.2.2zM112 73.7l-7.9-4.1c1 0 2 .1 3 .1 2.8.2 10.8 1 4.9 4z"/></g><path d="M142.3 70.5c-.5 12-10.3 21.4-22.1 21-11.7-.5-20.9-10.6-20.4-22.6s10.3-21.4 22.1-21c11.7.5 20.9 10.6 20.4 22.6z" fill="#fff"/><use xlink:href="#B" fill="#f0d911"/><path d="M121.3 87.8c-10-.4-17.8-8.8-17.4-18.8 0-.9.1-1.8.4-2.9 1.7-8.7 9.4-14.9 18.4-14.5 10 .4 17.8 8.8 17.4 18.8-.5 10-8.9 17.8-18.8 17.4z" fill="#d42027"/><use xlink:href="#B" fill="#010101"/><path d="M111.1 68.6a10.31 10.31 0 0 0 10 10.7c5.7.2 10.5-4.2 10.7-9.9a10.31 10.31 0 0 0-10-10.7c-5.7-.3-10.5 4.2-10.7 9.9z" fill="#fff"/><path d="M111.6 66c.1 5.4 4.4 9.9 9.9 10.1 4.8.2 8.9-2.9 10.3-7.3v.6c-.2 5.7-5 10.2-10.7 9.9-5.7-.2-10.2-5-10-10.7 0-.9.2-1.8.5-2.6z" fill="#e9e8e8"/><path d="M116.7 70.6c-.1 2.8 2.1 5.2 5 5.4 2.8.1 5.2-2.1 5.4-5 .1-2.8-2.1-5.2-5-5.4-2.9-.1-5.2 2.2-5.4 5z" fill="#010101"/><path d="M122.9 68.5c0 1 .8 1.9 1.8 1.9s1.9-.8 1.9-1.8-.7-1.9-1.8-1.9c-1 0-1.8.8-1.9 1.8zm-4.5 5.7c0 .6.5 1.1 1.1 1.2.6 0 1.1-.5 1.2-1.1 0-.6-.5-1.1-1.1-1.2-.7 0-1.2.4-1.2 1.1zm-41 30.7v1.2c-.2 8.2 7.4 17.8 11.8 22.1 1.7-7 2.2-11.7 2.3-19.3 0-3.6-.4-5.9-1.2-7.1-4.4.7-8.9 1.4-12.9 3.1zm16.2-5.5h0l.7-.5-.7.5zm10.2-1.5c-2-.4-5 .8-7 1.3-4.7 3.8 2.1 14.6 4.3 18.8.7 1.3 1.4 2.7 2.3 3.9 2.7-4.3 8.1-22.5.4-24zm9.6-.3l-.1-.6c-2.7 8.6 1 20.8 5.5 27.7 4.5-6.5 6.9-13.2 8.3-21.4.3-1.8.3-3.5.2-5.4-4.6-1-10-1.2-13.9-.3zm18.9 24.7c6.5-2.9 10.1-12.7 10.2-20.2-3.5-1.1-6.9-2.4-10.4-3.2-2.5 6.8-3.5 17.5.2 23.4zm34.3-13.5l-6.1-2.9c-.9 5.4-1.3 11.3-2 16.7 2.9-1.7 6.9-4.9 7.9-9.7.3-1.5.3-2.9.2-4.1zm-18.4-7.3c-.3 0-.7-.1-1-.2-2.3 10.9-2.5 19.8-1.6 31.4 3.1-4.4 12.3-19.2 10.6-27.8-2.5-1.5-5.2-3-8-3.4z" fill="#fff"/><path d="M67.8 108l4.3-2.3 5-2.3 6.7-2.5c2.5-.9 5.3-1.5 8.2-2.3l4.6-.9 4.8-.8 5-.7c1.7-.2 3.4-.2 5.1-.3 3.5-.3 7-.1 10.5-.1 1.8 0 3.5.2 5.2.4l5.2.6c3.4.5 6.7 1.3 10 2 3.2.8 6.2 1.8 9.1 2.7l2.1.6c.7.3 1.3.5 2 .8l3.8 1.5c2.4 1 4.7 1.8 6.6 2.9l4.9 2.6 4.3 2.2-.3.5s-1.7-.5-4.6-1.6c-1.4-.5-3.1-1.2-5.1-2-1.9-.8-4.3-1.3-6.7-2.2-1.2-.4-2.5-.8-3.8-1.2-.7-.2-1.3-.4-2-.7-.7-.2-1.4-.3-2.1-.5l-9-2.1-9.7-1.6c-1.7-.2-3.3-.3-5-.5s-3.4-.4-5-.3c-3.4-.1-6.8-.3-10.1-.1-1.7.1-3.3.1-5 .2-1.6.2-3.2.3-4.8.5-1.6.1-3.1.4-4.7.6l-4.5.6c-2.9.6-5.6 1-8.1 1.7-2.5.6-4.8 1.2-6.8 1.8s-3.8 1.2-5.2 1.7l-3.3 1.2c-.8.3-1.2.5-1.2.5l-.4-.6z" fill="#d42027"/><defs ><path id="B" d="M121.4 82.8c-6.9-.3-12.3-6.1-12-13 0-.6.1-1.2.3-2 1.2-6.1 6.5-10.3 12.7-10.1 6.9.3 12.3 6.1 12 13-.2 7-6 12.4-13 12.1z"/></defs></svg>