<svg xmlns="http://www.w3.org/2000/svg" xmlns:xlink="http://www.w3.org/1999/xlink" viewBox="0 0 231 231" xmlns:v="https://vecta.io/nano"><style><![CDATA[.F{fill:#010101}.G{fill:#fff}.H{fill:#d42027}.I{fill:#f0d911}.J{fill:#e9e8e8}]]></style><path d="M107.4 196.3c-1.4-.7-3-1-4.5-1.3-.4-.1-.9-.1-1.4-.1-.2-.1-.5-.2-.8-.3-.1-.3-.2-.6-.4-.9 0-5.6-.3-11.7-1.8-17-.6-2.1-3.3-2.3-4.5-1-.2-.5-.4-.9-.7-1.4 0-.1-.2-.1-.2 0 .2 1-.2 1.9-.1 2.8.2 2.1.6 4.2.9 6.3.2 2 .5 3.9.7 5.8 0 1.1 0 2.3.1 3.5-1.1 0-2.3 0-3.6-.2-4.3-.8-8.9-.7-12.8 1.4-1.4.7-1.8 3-.5 4 3.6 3.1 9.6 1.7 14.5 1.4l-1.1 1.4c-1.6 1.9-2.7 4.5-2.3 7 .1.9.9 1.5 1.7 1.6 1.8.2 4-.3 5.6-1.1 1.9-1 2-2.9 2.1-4.7 0-.9.4-2 .8-3.2 1.9.9 3.7 2.4 5.5 3.4 1.9 1.1 7 1.5 7.4-1.6.3-3-2-4.5-4.6-5.8zm18.8.7c1.3-.8 2.9-1.1 4.4-1.4.4-.1.9-.1 1.3-.1.2-.1.5-.2.7-.3.1-.3.2-.6.4-.9-.1-5.6-.1-11.7 1.3-17.1.5-2.1 3.2-2.4 4.4-1.1.2-.5.4-1 .6-1.4 0-.1.2-.1.2 0-.2 1 .2 1.9.2 2.8-.1 2.1-.5 4.2-.7 6.3l-.6 5.9c0 1.1.1 2.3 0 3.5 1.1-.1 2.2 0 3.5-.3 4.2-.9 8.7-.9 12.6 1 1.4.7 1.8 2.9.6 4-3.5 3.2-9.4 2-14.2 1.8l1.1 1.4c1.6 1.8 2.8 4.4 2.5 6.9-.1.9-.8 1.5-1.6 1.7-1.7.3-3.9-.1-5.5-.9-1.9-.9-2.1-2.8-2.2-4.6-.1-.9-.5-2-.9-3.1-1.9.9-3.5 2.5-5.3 3.6s-6.8 1.6-7.3-1.4c-.2-3.4 2-4.9 4.5-6.3zm-5.3-128.1c-3.8-1.3-7.7-2.4-10.9-5-3.1-2.6 6.7-8.9 7.9-11 5-8.4-14.7-11.9-6.2-20.6 9.9-10.1-9.1-19-11.3-12.8-.2.6 0 1.4.7 1.6 3.4 1.2 12.5 2.5 7 8.2-1.4 1.4-3.2 3.2-3.5 5.2s-.6 4.9.9 6.6C107 43 117.6 49 113.6 52c-3.8 2.8-8.8 6.9-7.5 12.1s10.5 5.6 14.4 6.7c1.2.3 1.5-1.5.4-1.9zm-10 6.5c-1.9-.2-3.6-.8-5.5-1.1-4.1-.7-8 .2-12.2-1-10.3-2.9 1.7-8.7 1.6-13.8 0-3.5-5.1-4.3-7.6-4.9-2.6-.6-5.7-1-8.3-1.2-10.5-.6-.5-9.6 1.1-12 .3-.5-.2-1.1-.7-.9-4.6 1.6-12.8 8.5-8.8 14 1.5 2.1 3.7 2.8 6.2 2.9 2.2.1 15.8.9 13.1 4.1-4.2 4.9-7.7 9.3-1.1 13.8 6.5 4.4 14.9 1.7 22 1.6.9 0 1.1-1.4.2-1.5zm27.3-20.2c5.1-.9 9.7-6.6 7.8-12-2.3-6.4-10.3-10.7-16.9-10.1-2 .2-2.6 3-.5 3.6 3.4 1 6.7 2.1 9.9 3.6 9.7 4.7.2 10.6-4.3 11.6-2.6.6-6.2 3.3-6.8 6.1-.4 1.9.7 4 2.5 4.6.8.3 1.5.5 2.3.8 4.1.2 4.2 3.1.3 8.7-2.5 1.2-6.6 2.8-9.3 3.6-.5.1-.4.9.1.9 4.5.1 17-1.7 17.2-8.5.1-3.2-.7-4.6-3.3-6.5-1.5-1.1-3.1-1.2-4.7-1.9-2.9-1.5 5.1-4.4 5.7-4.5z" class="F"/><use xlink:href="#B" class="I"/><path d="M72.7 51.6c-3-2-3.8-6.2-1.8-9.2.2-.3.4-.5.7-.8 2.2-2.4 5.8-2.8 8.5-1 3 2 3.8 6.2 1.8 9.2-2.1 3.1-6.2 3.9-9.2 1.8z" class="F"/><use xlink:href="#B" class="H"/><path d="M72.3 43c-1.5 2.2-.9 5.3 1.3 6.8s5.3.9 6.8-1.3.9-5.3-1.3-6.8c-2.3-1.6-5.3-1-6.8 1.3z" class="G"/><path d="M73.1 42c-1.3 2.2-.7 5.1 1.5 6.5 1.9 1.3 4.3 1 5.9-.4 0 .1-.1.2-.1.3-1.5 2.2-4.6 2.8-6.8 1.3s-2.8-4.6-1.3-6.8c.2-.3.5-.6.8-.9z" class="J"/><path d="M74.5 45.2c-.8 1.1-.5 2.6.7 3.4 1.1.8 2.6.5 3.4-.7.8-1.1.5-2.6-.7-3.4-1.1-.7-2.7-.4-3.4.7z" class="F"/><path d="M77.5 45.9c-.3.4-.2.9.2 1.2s.9.2 1.2-.2.2-.9-.2-1.2-.9-.2-1.2.2zM74.3 47c-.2.2-.1.6.1.7.2.2.6.1.7-.1.2-.2.1-.6-.1-.7-.2-.2-.6-.1-.7.1z" class="G"/><use xlink:href="#C" class="I"/><path d="M105.7 28.3c-3.6 0-6.5-2.8-6.6-6.4 0-.3 0-.6.1-1 .5-3.2 3.1-5.5 6.3-5.5 3.6-.1 6.5 2.8 6.6 6.4 0 3.5-2.8 6.4-6.4 6.5z" class="F"/><use xlink:href="#C" class="H"/><path d="M100.6 21.5c0 2.6 2.2 4.8 4.8 4.7 2.6 0 4.7-2.2 4.7-4.8s-2.2-4.8-4.8-4.7c-2.6 0-4.8 2.2-4.7 4.8z" class="G"/><use xlink:href="#D" class="J"/><path d="M103.6 22.1c0 1.3 1.1 2.4 2.4 2.3 1.3 0 2.4-1.1 2.3-2.4 0-1.3-1.1-2.4-2.4-2.4-1.3.1-2.3 1.2-2.3 2.5z" class="F"/><path d="M106.4 21c0 .5.4.8.9.8s.8-.4.8-.9-.4-.8-.9-.8c-.4 0-.8.4-.8.9zm-2 2.7a.5.5 0 1 0 1 0 .47.47 0 0 0-.5-.5c-.2 0-.5.2-.5.5z" class="G"/><use xlink:href="#E" class="I"/><path d="M113.3 56.4c-3.4-1-5.4-4.6-4.4-8.1.1-.3.2-.6.4-1 1.4-2.9 4.6-4.3 7.7-3.4 3.4 1 5.4 4.6 4.4 8.1-1.1 3.4-4.7 5.4-8.1 4.4z" class="F"/><use xlink:href="#E" class="H"/><path d="M110.4 48.4c-.8 2.5.7 5.2 3.2 5.9 2.5.8 5.2-.7 5.9-3.2.8-2.5-.7-5.2-3.2-5.9s-5.1.7-5.9 3.2z" class="G"/><path d="M110.9 47.3c-.6 2.4.8 4.9 3.3 5.7 2.1.6 4.3-.3 5.4-2.1 0 .1 0 .2-.1.3-.8 2.5-3.4 4-5.9 3.2s-4-3.4-3.2-5.9c.1-.5.3-.9.5-1.2z" class="J"/><path d="M113.1 49.9c-.4 1.3.3 2.6 1.6 3s2.6-.3 3-1.6-.3-2.6-1.6-3-2.6.3-3 1.6z" class="F"/><path d="M116.1 49.6c-.1.4.1.9.6 1 .4.1.9-.1 1.1-.6.1-.4-.1-.9-.6-1s-.9.2-1.1.6zm-2.6 2c-.1.3.1.6.3.6.3.1.6-.1.6-.3.1-.3-.1-.6-.3-.6-.3-.1-.6.1-.6.3z" class="G"/><use xlink:href="#F" class="I"/><path d="M142.4 49.9a6.51 6.51 0 0 1-1.1-9.1c.2-.2.4-.5.7-.7 2.3-2.2 5.9-2.3 8.4-.3a6.51 6.51 0 0 1 1.1 9.1c-2.2 2.8-6.3 3.2-9.1 1z" class="F"/><use xlink:href="#F" class="H"/><path d="M142.6 41.5c-1.6 2.1-1.3 5.1.8 6.7s5.1 1.3 6.7-.8 1.3-5.1-.8-6.7c-2-1.7-5-1.3-6.7.8z" class="G"/><path d="M143.5 40.6c-1.4 2.1-1.1 4.9.9 6.5 1.7 1.4 4.1 1.3 5.8.1-.1.1-.1.2-.2.2-1.6 2.1-4.6 2.4-6.7.8s-2.4-4.6-.8-6.7c.4-.4.7-.6 1-.9z" class="J"/><path d="M144.6 43.8c-.8 1-.6 2.5.4 3.3s2.5.6 3.3-.4.6-2.5-.4-3.3-2.5-.6-3.3.4z" class="F"/><path d="M147.5 44.7c-.3.4-.2.9.1 1.2.4.3.9.2 1.2-.1.3-.4.2-.9-.1-1.2-.4-.3-.9-.3-1.2.1zm-3.2.9c-.2.2-.1.6.1.7.2.2.6.1.7-.1.2-.2.1-.5-.1-.7s-.5-.2-.7.1z" class="G"/><use xlink:href="#G" class="I"/><path d="M87.9 76.5c-3.6 0-6.5-2.8-6.6-6.4 0-.3 0-.6.1-1 .5-3.2 3.1-5.5 6.3-5.5 3.6 0 6.5 2.8 6.6 6.4 0 3.5-2.8 6.4-6.4 6.5z" class="F"/><use xlink:href="#G" class="H"/><path d="M82.8 69.7c0 2.6 2.2 4.7 4.8 4.7s4.8-2.2 4.7-4.8c0-2.6-2.2-4.7-4.8-4.7s-4.8 2.2-4.7 4.8z" class="G"/><use xlink:href="#D" x="-17.8" y="48.2" class="J"/><path d="M85.8 70.3c0 1.3 1.1 2.4 2.4 2.4s2.4-1.1 2.3-2.4c0-1.3-1.1-2.4-2.4-2.3-1.3-.1-2.3 1-2.3 2.3z" class="F"/><path d="M88.6 69.2c0 .5.4.8.9.8s.8-.4.8-.9-.4-.8-.9-.8c-.4 0-.8.4-.8.9zm-2 2.7a.5.5 0 1 0 1 0 .47.47 0 0 0-.5-.5c-.2 0-.5.2-.5.5z" class="G"/><use xlink:href="#H" class="I"/><path d="M131.3 40.2c-3.5.1-6.5-2.8-6.5-6.3 0-.3 0-.6.1-1 .4-3.1 3.1-5.4 6.2-5.5 3.5 0 6.5 2.8 6.5 6.3.1 3.5-2.8 6.4-6.3 6.5z" class="F"/><use xlink:href="#H" class="H"/><path d="M126.2 33.5c0 2.6 2.2 4.7 4.8 4.7s4.7-2.2 4.7-4.8-2.2-4.7-4.8-4.7-4.7 2.2-4.7 4.8z" class="G"/><path d="M126.4 32.3c.2 2.5 2.2 4.4 4.8 4.4 2.2 0 4-1.6 4.5-3.6v.3c0 2.6-2 4.8-4.7 4.8-2.6 0-4.8-2.1-4.8-4.7 0-.4.1-.8.2-1.2z" class="J"/><path d="M129.2 34c0 1.3 1.1 2.3 2.4 2.3s2.3-1.1 2.3-2.4-1.1-2.3-2.4-2.3c-1.3.1-2.3 1.1-2.3 2.4z" class="F"/><path d="M132 32.9c0 .5.4.8.9.8s.8-.4.8-.9-.4-.8-.9-.8c-.5.1-.8.5-.8.9zm-2 2.7a.5.5 0 1 0 1 0 .5.5 0 1 0-1 0z" class="G"/><use xlink:href="#I" class="I"/><path d="M135.3 70c-3.2-1.5-4.6-5.3-3.1-8.5.1-.3.3-.6.5-.9a6.28 6.28 0 0 1 8-2.2c3.2 1.5 4.6 5.3 3.1 8.5-1.4 3.2-5.3 4.6-8.5 3.1z" class="F"/><use xlink:href="#I" class="H"/><path d="M133.6 61.8c-1.1 2.4-.1 5.2 2.3 6.3s5.2.1 6.3-2.3.1-5.2-2.3-6.3a4.75 4.75 0 0 0-6.3 2.3z" class="G"/><path d="M134.3 60.8c-.9 2.3.1 5 2.4 6 2 .9 4.3.3 5.6-1.3 0 .1-.1.2-.1.3-1.1 2.4-3.9 3.4-6.3 2.3s-3.4-3.9-2.3-6.3c.2-.4.5-.7.7-1z" class="J"/><path d="M136.1 63.6c-.5 1.2 0 2.6 1.1 3.1 1.2.5 2.6 0 3.1-1.1.5-1.2 0-2.6-1.1-3.1-1.2-.6-2.6-.1-3.1 1.1z" class="F"/><path d="M139.1 63.8c-.2.4 0 .9.4 1.1s.9 0 1.1-.4 0-.9-.4-1.1-.9 0-1.1.4zm-2.9 1.6c-.1.3 0 .6.2.7.3.1.6 0 .7-.3s0-.6-.3-.7c-.2-.1-.5 0-.6.3z" class="G"/><path d="M68.9 124c-6.6 20.3-13.5 41.5 7.2 56 20.1 14.1 55.9 9.8 77.5 1.8 26.6-9.9 14.4-41.5 7.6-63.2-6.8-21.5-23.4-58.5-51.7-50C85.7 75.8 75.7 103 68.9 124z" class="F"/><use xlink:href="#J" class="I"/><use xlink:href="#J" class="H"/><path d="M103.5 97.4c.1 8.3 6.9 14.9 15.2 14.8s14.9-6.9 14.8-15.2-6.9-14.9-15.2-14.8-14.9 6.9-14.8 15.2z" class="G"/><path d="M104 93.6c.6 7.9 7.1 14 15.1 13.9 7-.1 12.7-4.9 14.3-11.4 0 .3.1.6.1.9.1 8.3-6.5 15.1-14.8 15.2s-15.1-6.5-15.2-14.8c0-1.3.2-2.6.5-3.8z" class="J"/><path d="M113 99.2c.1 4.1 3.4 7.4 7.6 7.4 4.1-.1 7.5-3.5 7.4-7.6s-3.5-7.4-7.6-7.4c-4.2 0-7.5 3.4-7.4 7.6z" class="F"/><path d="M121.8 95.7c0 1.5 1.2 2.6 2.7 2.6s2.6-1.2 2.6-2.7-1.2-2.6-2.7-2.6-2.6 1.2-2.6 2.7zm-6.2 8.5a1.6 1.6 0 1 0 3.2 0c0-.9-.8-1.6-1.7-1.6-.7 0-1.5.7-1.5 1.6z" class="G"/><path d="M215.2 123.5c-.1-.4-.4-.7-.6-.9-.3-.3-.6-.5-1-.6.4.2.3.1-.4-.2-.5-.1-1-.1-1.5 0-2.6-.5-4.5-2.7-7.2-2.4-2.1.2-3.2 2.2-3.6 4-.8 3.4 0 7-2.5 9.9-1 1.2-2.1 2-3.3 2.9-1-.6-1.9-1.4-2.9-2.6-3.5-4.4-7.5-8.2-12.3-11.1-8.5-5.3-22.6-15.4-32.9-14-.1 0-.1.1 0 .2 14.9 7.2 34.4 15.1 43.1 30.1-4.7-1.6-9.9-2.7-14.7-2.7-2.3 0-6.3-2-7 1.7-.4 1.8.1 2.4 1.4 3.6l.9 2.5c-.4.6-.5 1.3-.3 2.1.4 1.7 2.1 2.2 3.4 2.2 1.9 0 4-2 2.5-3.9l-.2-.2c-.4-1.7-.9-3.1-1.8-4.3h1.1c2.2-.1 4.2 0 6.4.5 3.5.8 6.3 1.7 9.6.7.5.6 1.1.9 2 1 1.9 0 4.1.2 6.3.4-1.5 1.3-3.1 2.5-4.4 4.2-.2.3-.4.6-.5 1 0 .1-.1.2-.1.4 0 .1-.1.1-.1.2 0-.1 0 0 0 0-.4.8-.4 1.7 0 2.4.8 1.4 2.3 2 3.9 1.7.7-.3.9-.4.4-.2.3-.1.6-.2.8-.4.7-.6 1.3-1.1 1.5-2 .1-.6.1-1.2-.1-1.9 1.9-2.1 4.3-3.7 5.9-6.1.8-1.2-.2-3.3-1.6-3.5-1.8-.2-3.4-.3-4.8-.4 1.2-1.2 2.2-2.4 2.9-3.5 1-1.8 1.4-3.3 1.7-5.3.1-1 1.2-3.5 0-4.3 1.9 1.3 3.6 2.2 5.6 2.7.4.2.9.2 1.5.3.9.2 1.9.1 2.6-.5.8-1.3.7-2.5.3-3.7zm-199.4 2.7c.1-.4.4-.7.6-.9.3-.3.6-.5 1-.7-.4.2-.3.1.4-.2.5-.1 1-.2 1.5-.1 2.6-.5 4.4-2.8 7.2-2.6 2.1.1 3.3 2.1 3.8 3.9.9 3.4.2 7 2.7 9.9 1 1.1 2.2 2 3.4 2.8 1-.6 1.9-1.5 2.8-2.7 3.4-4.5 7.3-8.4 12-11.5 8.4-5.5 22.2-16.1 32.5-14.9.1 0 .1.1 0 .2-14.7 7.6-34 16-42.3 31.3 4.6-1.7 9.8-3 14.6-3.1 2.3-.1 6.2-2.2 7.1 1.5.4 1.8 0 2.4-1.3 3.7l-.9 2.5c.4.6.6 1.3.4 2-.4 1.7-2.1 2.3-3.3 2.3-1.9 0-4.1-1.9-2.6-3.8l.2-.2c.4-1.7.8-3.1 1.6-4.3h-1.1c-2.2 0-4.2.1-6.3.7-3.5.9-6.2 1.9-9.6 1-.4.6-1.1 1-2 1-1.9.1-4.1.3-6.3.5 1.6 1.3 3.2 2.5 4.5 4.1.2.3.4.6.5 1 .1.1.1.2.2.4l.1.1c0-.1 0 0 0 0 .4.7.4 1.7 0 2.4-.8 1.5-2.3 2-3.8 1.8-.7-.3-.9-.4-.4-.2-.3-.1-.6-.2-.9-.4-.7-.5-1.3-1.1-1.5-2-.2-.6-.1-1.2.1-1.9-2-2-4.4-3.6-6.1-6-.9-1.2.1-3.3 1.5-3.5 1.8-.3 3.3-.4 4.8-.5-1.3-1.1-2.3-2.4-3-3.4-1.1-1.8-1.5-3.3-1.8-5.3-.2-1-1.3-3.5-.1-4.3-1.8 1.4-3.5 2.3-5.5 2.9-.4.2-.9.3-1.4.3a2.71 2.71 0 0 1-2.6-.5c-1.2-.8-1.1-2.1-.7-3.3z" class="F"/><path d="M151.5 150.9c-1.1 11.4-11 7.3-19.1 6.2-10-1.4-14.5 3.7-23.6 5.8-20.9 4.9-19.4-18.5-5.1-25.9 11.8-6.1 26.6-9.1 39-2.7 6.2 3.3 9.4 9.4 8.8 16.6z" class="H"/><path d="M146.4 151.6l-2.4-1.4c-6.1-.7-11.2-4.9-17.4-4.6-3 .2-5.2 1.6-7.9 2.4-3.3 1-6.4.5-9.7 1-8.1 1.1-10.6 7.8-9.2 14.1 2.4.7 5.3.7 9-.2 9.1-2.1 13.6-7.2 23.6-5.8 4.4.6 9.4 2.1 13.2 1.4 1.4-1.2 2.3-2.8 2.1-4.7-.2-.9-.7-1.6-1.3-2.2z" class="F"/><g class="G"><path d="M106.6 135.6l-3 1.4c-2.3 1.2-4.3 2.8-5.9 4.7 2.9 3.6 7.4 5.9 10.7 3 4.5-3.9 1.7-6.1-1.8-9.1zm22.6 12.7c-8-.9-6.3 4.5-3.4 8.9 1.9-.3 4.1-.4 6.5 0 .2 0 .4.1.6.1.3-1.6.4-3.2.4-3.9 0-3.4-.7-4.7-4.1-5.1zm15.6-12.6c-3.4 5.4-10.2 14.5 1 11.6 1.7-.4 3.4-2.1 4.8-4.1-1.1-3-3.1-5.6-5.8-7.5zm-12.2 5.9c3.9-.3 6-4.8 6.1-8.9-3.1-1.1-6.2-1.7-9.4-1.8-1.5 5.2-3.3 11.3 3.3 10.7z"/><path d="M114.2 138.3c2.2 2.9 8.2 3 9.4-.8.5-1.6.3-4-.4-6.5-3.6.4-7.1 1.2-10.6 2.3.3 2 .8 3.8 1.6 5zm37.2 9.2v.9c-1.1 12.1-11 7.8-19.1 6.6-10-1.5-14.5 3.9-23.6 6.2-10.2 2.5-15-2.1-15.7-8.4-.6 7.6 4.1 14 15.8 11.1 9.1-2.2 13.6-7.7 23.6-6.2 8.1 1.2 18 5.5 19.1-6.6.1-1.2 0-2.4-.1-3.6z"/></g><defs ><path id="B" d="M72.9 51.3c-2.7-1.8-3.4-5.5-1.6-8.2.2-.2.3-.5.6-.7 2-2.1 5.2-2.5 7.6-.9 2.7 1.8 3.4 5.5 1.6 8.2s-5.5 3.4-8.2 1.6z"/><path id="C" d="M105.7 27.9a5.87 5.87 0 0 1-5.9-5.7c0-.3 0-.6.1-.9.4-2.8 2.8-4.9 5.6-4.9a5.87 5.87 0 0 1 5.9 5.7c0 3.1-2.5 5.7-5.7 5.8z"/><path id="D" d="M100.7 20.3c.2 2.5 2.3 4.5 4.8 4.4 2.2 0 4-1.6 4.6-3.6v.3c0 2.6-2.1 4.8-4.7 4.8s-4.8-2.1-4.8-4.7c0-.4 0-.8.1-1.2z"/><path id="E" d="M113.4 56c-3.1-.9-4.8-4.1-3.9-7.2l.3-.8c1.2-2.6 4.1-3.9 6.8-3 3.1.9 4.8 4.1 3.9 7.2-.8 2.9-4 4.7-7.1 3.8z"/><path id="F" d="M142.6 49.6c-2.5-2-2.9-5.6-1-8.1.2-.2.4-.4.6-.7 2.1-1.9 5.2-2.1 7.5-.3 2.5 2 2.9 5.6 1 8.1s-5.6 3-8.1 1z"/><path id="G" d="M87.9 76a5.87 5.87 0 0 1-5.9-5.7c0-.3 0-.6.1-.9.4-2.8 2.8-4.9 5.6-4.9a5.87 5.87 0 0 1 5.9 5.7c.1 3.2-2.5 5.8-5.7 5.8z"/><path id="H" d="M131.3 39.7c-3.2 0-5.8-2.5-5.8-5.6 0-.3 0-.6.1-.9.4-2.8 2.7-4.9 5.6-4.9 3.2 0 5.8 2.5 5.8 5.6 0 3.2-2.6 5.8-5.7 5.8z"/><path id="I" d="M135.5 69.6c-2.9-1.3-4.1-4.7-2.8-7.6.1-.3.3-.5.5-.8 1.6-2.3 4.6-3.2 7.1-2 2.9 1.3 4.1 4.7 2.8 7.6s-4.7 4.1-7.6 2.8z"/><path id="J" d="M119.6 117.2c-10 .1-18.3-7.9-18.4-17.9 0-.9.1-1.8.2-2.9 1.3-8.9 8.7-15.4 17.7-15.5 10-.1 18.3 7.9 18.4 17.9.2 10-7.8 18.3-17.9 18.4z"/></defs></svg>