<svg xmlns="http://www.w3.org/2000/svg" xmlns:xlink="http://www.w3.org/1999/xlink" viewBox="0 0 231 231" xmlns:v="https://vecta.io/nano"><path d="M98 201h.1-.1z" fill="#709cd2"/><g fill="#010101"><path d="M99.5 201.6c-.4-.2-.9-.4-1.3-.5-.1 0-.1 0-.2-.1-.4-.2-.8-.3-1.2-.4s-.7-.2-1.1-.2c.7-3.7-3.5-6.7-6.3-8.1-2.6-1.3-8.3-4.8-11.3-2.8l-1.8 1.2c-4.4.2-7.7 2.2-11.7 4.6-2.3 1.4-4.4 3.6-3.6 6.3-.7-.1-1.3-.2-2-.1-2.2.4-3.4 2.4-3.3 4.5.1 2.3 2.9 3.8 4.9 3.2 1.1-.3 2-.9 2.8-1.6.5-.4 1.1-1 1.8-1.2.6-.2 1.2-.6 1.6-1.1.3.1.6.1 1 .1-.5 1-.7 2.2-.7 3.3-.1 2.5 1.9 4.8 4.6 3.9 1.8-.6 3.5-2.1 4.5-3.7.5-.9.6-1.8.5-2.7h1c.8 0 1.5-.1 2.3-.1v1.1c-.1 1.1 0 2.4.5 3.4.8 1.8 2.9 2.1 4.7 2 2.2-.1 2.8-2.7 2.9-4.5 0-.8-.1-1.5-.5-2.1.3.1.7.1 1 .2 1.1.3 2 .2 2.9-.1.1.1.1.2.2.3.9 1 1.8 2 3 2.5 2.8 1.1 5.2.7 7.1-1.8 1.3-2-.5-4.5-2.3-5.5z"/><path d="M89.4 156.6c-1.5-1.4-4.2-1.5-5.8.5-1 1.3-2.2 2.4-3.4 3.5l.9-5.8c0-.3-.4-.5-.6-.2-7.8 10.2-11 30.4-1.8 40.7 2.1 2.3 6.1 1.5 6.3-1.5.3-4.9.8-10.3 2.5-15 1.7-4.8 2.1-11.3 5.3-15.8.6-.7 1.3-1.4 1.9-2.2 2.8-3-2-7-5.3-4.2z"/></g><path d="M150.1 203.7c0 .1-.1.1 0 0h0z" fill="#709cd2"/><g fill="#010101"><path d="M148.9 204.3c.3-.2.7-.3 1.1-.5.1 0 .1 0 .1-.1.3-.2.6-.3 1-.4.3-.1.6-.2.9-.2-.7-3.4 2.8-6.3 5-7.6 2.1-1.2 6.8-4.5 9.2-2.7l1.5 1.1c3.6.2 6.4 1.9 9.7 4.1 1.9 1.3 3.7 3.3 3.1 5.8.6-.1 1.1-.2 1.6-.1 1.8.4 2.9 2.2 2.8 4.1 0 2.1-2.3 3.6-4 3a6.08 6.08 0 0 1-2.4-1.5c-.4-.4-.9-.9-1.5-1.1a3.25 3.25 0 0 1-1.3-1c-.3.1-.5.1-.8.2.4 1 .6 2 .7 3 .1 2.3-1.5 4.4-3.7 3.7-1.5-.5-2.9-1.9-3.8-3.4-.4-.8-.6-1.6-.4-2.5h-.8c-.6 0-1.3-.1-1.9-.1v1c.1 1.1 0 2.2-.3 3.2-.6 1.7-2.3 2-3.8 1.9-1.8-.1-2.4-2.5-2.5-4.1 0-.7.1-1.3.3-1.9-.3.1-.5.1-.8.2a3.27 3.27 0 0 1-2.4-.1c-.1.1-.1.2-.2.3-.7.9-1.4 1.8-2.5 2.3-2.3 1-4.3.7-5.9-1.6-.9-1.8.5-4.1 2-5z"/><path d="M156.4 162.7c1.2-1.3 3.5-1.4 4.8.4.9 1.2 1.9 2.2 2.9 3.2l-.8-5.4c0-.2.3-.4.5-.2 6.7 9.3 9.7 27.9 2.3 37.5-1.7 2.2-5 1.5-5.3-1.3-.4-4.5-.8-9.5-2.3-13.8-1.5-4.4-1.9-10.4-4.7-14.5-.5-.6-1.1-1.3-1.6-2-2.5-2.7 1.4-6.4 4.2-3.9z"/><path d="M178.5 87.5c3.6.2 21 4.2 22.2-.1 2.6-9-27.3-14.8-32.5-16.3 3.1-2.3 13.7 2.2 14.1-2.9.7-7.7-21.1-12.2-26.4-13.5 2.5-2.5 14.7-6.1 12.1-11.3-3.4-6.9-20 2.4-24.8-1.8 2.4-3.8 14-10.1 8.6-13.7-5.1-3.5-13.7 6.3-18 6.8 2.3-6.5 6.5-12.5 10.4-18-11.5 3.6-15.9 11.4-19.7 20.3-4.5-8.2-12-19.6-21.8-19.1 2.8 7 11 13.4 8.9 21.7C99.3 36 88 25.8 74.3 30.2c5.3 4.8 20.4 4.7 19.8 14.6-7.7 1.7-15.5-2.6-23.3-2.3S54 46.2 47.9 50.8c7.8.6 17.4-1.5 24.5 1.8C63 59 49.1 59.8 41.7 69.9c7.3-1.4 15.8-4.2 23.2-2.5-6.7 7.4-30 16.3-29.8 28 .2 8.7 14.1 0 20-2-1.7 11.1-24.5 22.8-19.1 36.1 6.6-.7 11.2-9.7 17.4-8.6 0 4.2-6.3 18.7-3.3 21.3 4.3 3.7 8.4-6.3 13.6-6.2 2.1 6-3.5 13.9-1.2 19.2 3.1 7.1 1.5-.2 6.7.3h.3c-1.9 8.1-2.9 16.1.7 19.6 1.4-4.4 5.2-9.1 9.6-11.4a14.36 14.36 0 0 1 2.4-.2c.4 0 .8 0 1.1-.1 1.1 6.8.4 14.8 2.9 21.1 2.5-4.1 5.1-8.9 9.4-11.5.4.4.9.3 1.4.2-1 5.3-1.2 10.8.8 16.2 4.2-.7 4.3-6.7 8.9-7.5-.9 4.1-2.2 10.3 1.8 12.9l3.9-5.5c.2.6.5 1.3.6 1.9.5 2.3 0 6.3 1.7 8 .6-1.2 1-3.5 2.4-2.5 1.4.9 1.2 5.1 2.4 6.6.7-.9 1-3.7 2.4-3 .8.4 1.4 4 1.9 4.9 1.1-3.2 1.1-6.6 1.9-9.9 1 1.7 2.3 3.2 3.9 4.3 1.4-2.2 1.9-5.3 1.6-8.1.1.2.3.4.4.6.3-.6.6-1.3.9-1.9 1.1 1.9 2.1 3.8 2.8 5.9.3-1.1 1.1-2.1 1.4-3.3 1.1 1.5 3.5 2.8 4.7 3.9.8-3.7 2.2-7.8 4.9-10.3 1.5 2.3 3.2 4.6 5.5 5.8.7-3 1.8-6.4 2.6-9.8.2.1.4.2.5.3.2-1 .2-2 0-2.9.4-2.1.5-4.2.3-6.2.7 2.2 2 4.5 3.1 6.4.6-5-.2-9.6-1.6-14 4.9 3.3 9.4 7.6 15.2 7.7-.1-5.7-15.5-14.6-10.1-20.5 4-4.4 17.6 3.2 22.6 1.5-.3-7.6-27.4-27.7-5.6-22.4 5.1 1.2 12.3 7.6 10.4-1.3-1.8-8.5-17.8-7.7-19.5-14.2-1.4-5 8.9-8.3 13.2-8.9 5.2-.7 20.5 8.1 23.7 5.4 9.8-8-27.1-23.3-28.1-25.8z"/><path d="M77 85.2c-5.6 1.4-11.5.8-17.2 2.4-4.4 1.3-8.5 3.3-12.7 5-8.8 3.6-12.8 10.4-14.6 19.2-2.7 13.1-3.9 25.3-2.3 38.7 1.1 9.4-.5 25.2 5.1 32.9 1.1 1.5 4 1.2 4.4-.7 4.4-18.2-3.4-39-1.8-57.8.5-5 1.7-9.9 2.6-14.9 1.5-8.4 8-10.4 13.9-13.9 7-4.1 15.3-7 22.8-9.9.8-.1.5-1.2-.2-1z"/><path d="M49 167.8c.3.5.5 1 .6 1.4.6 2.2 1.4 3.4 3.2 4.7 3 2.2 6-2 4.6-4.7-1.6-3.1-3.3-8.7-6.7-10.2-1.5-.6-2.8-.5-4.1.6-1.6 1.4-2.6 2.3-3.4 4.6s-2.3 5.6-2.6 8c-.4 4.1-1.1 8-1.1 12.1 0-.5-.9-1.7-2-2.5-.4-2.6-1.1-5.7-3.2-6.4-.2-.1-.3 0-.3.2-.4 1.5-.7 2.9-.9 4.5-.2 1 0 2 .1 3.1-1.9-1.3-3.9-3.6-4.6-4.8-.9-1.4-2.3-3.1-2.2-4.9.1-1.6-.1-3.3-1-4.6-1.6-2.5-5.3-2.6-6.9-.1-.7 1-1.1 2-1.5 3.2-2 2.4-1.3 5-1.4 8.4-.1 4.4 6.5 4.3 6.8-.1 0-.3 0-.7.1-1.2.5.8 1 1.7 1.6 2.5 2.1 3.2 5.1 5.3 8.5 7 1.4.7 2.7.6 3.7.1.5.6.9 1.2 1.4 1.5 1.8 1.3 3.9.8 5.5-.5 1.6.2 3.4-.5 4.8-1.9.3-.3.5-.6.8-.9 0 0 .1 0 .1-.1.1 0 .2-.1.3-.1-.1.8-.3 1.6-.3 2.4.1 3.6 5.9 4.7 6.6.9s.7-11.7-5.3-9.9c-1.2.3-3 1.1-4.2 2.1.1-3.2 0-6.5 1.4-9.3.7-1.8 1.2-3.3 1.6-5.1zm112.3-81.2c5.4 1.8 11.4 1.7 17 3.7 4.3 1.6 8.2 4 12.3 6 8.5 4.3 12 11.3 13.1 20.3 1.7 13.3 1.9 25.6-.7 38.8-1.9 9.3-1.5 25.2-7.7 32.4-1.2 1.4-4.1.9-4.4-1.1-2.9-18.5 6.5-38.6 6.3-57.5-.1-5.1-.9-10-1.4-15-.9-8.5-7.2-11-12.8-14.9-6.7-4.6-14.7-8.1-22-11.7-.8-.2-.4-1.3.3-1z"/><path d="M182.7 171.1c-.3.5-.6.9-.7 1.4-.8 2.1-1.6 3.3-3.6 4.4-3.2 1.9-5.8-2.4-4.2-5 1.8-3 3.9-8.4 7.5-9.6 1.6-.5 2.9-.3 4 .9 1.5 1.5 2.5 2.5 3.1 4.8.6 2.4 1.9 5.8 1.9 8.2.1 4.1.4 8.1.2 12.2 0-.5 1-1.6 2.1-2.4.6-2.6 1.5-5.6 3.6-6.1.2 0 .3 0 .3.2.3 1.6.4 3 .6 4.6.1 1-.1 2-.3 3 2-1.2 4.1-3.3 4.9-4.4 1-1.3 2.5-2.9 2.6-4.7.1-1.6.4-3.2 1.3-4.6 1.8-2.3 5.5-2.1 6.9.4.6 1 1 2.1 1.3 3.3 1.8 2.5.9 5 .8 8.5-.2 4.4-6.8 3.7-6.8-.6v-1.2l-1.8 2.4c-2.3 3-5.5 4.9-9.1 6.3-1.5.6-2.7.4-3.7-.2-.5.6-1 1.1-1.5 1.4-1.9 1.2-4 .5-5.5-.9-1.6.1-3.4-.8-4.7-2.3-.3-.3-.5-.6-.7-.9 0 0-.1 0-.1-.1-.1-.1-.2-.1-.3-.1.1.8.2 1.6.1 2.4-.4 3.6-6.3 4.2-6.6.4-.4-3.9.2-11.7 6.1-9.4 1.2.4 2.9 1.3 4.1 2.4.1-3.2.5-6.5-.6-9.4-.5-1.9-.8-3.5-1.2-5.3zM81.7 76c-5.8-1.9-12.7.8-17.9 3.7 1.6.1 3.4.6 4.9.7-4.9 1.4-10.6.8-14 4.7 5.3 2.5 11.8 1.9 17 4.4-3 2.2-7 3.8-8.6 6.7 1.3-.2 2.9.3 4.2.3.2 3.6-.4 7.6 1.4 10.5 3.5-3.6 5.4-9.8 10.8-11-.1 1.6 1 5 .7 6.5 2.1-3 3.3-7 5.7-9.9.2 2 1.8 4.7 2.1 6.2 3.4-4.5 1.8-24.4-6.3-22.8zm91.7 26.3l-.7-3.4v-.6c-1.5-2.4-3.3-4.7-5.1-6.8 3.8.6 7.6 2.1 11.1 1.4-4-5.3-11.6-4.5-15.8-8.7.9-.6 2-1.9 2.9-2.5-10.8-4.5-12.8-1.9-19.6 8.4h0c9 .5 14.5 17.6 18.8 23.1.4-3.1 2.2-6.1 3.7-8.3-.1 2.5 1.6 5.3 2.2 7.4 2.1-3.1 2.1-6.5 2.5-10h0z"/></g><path d="M121.3 94.6c.6 3.1 7 15.9 8.6 18.4 2.5-5.3 5-12 5.2-17-3.4-2.5-9.9-3.7-13.7-1.3l-.1-.1z" fill="#fff"/><path d="M84.6 115.2l.3-.8c.2-.5.4-1.3 1-2.3.5-1 1.3-2.1 2.2-3.3 1-1.2 2.1-2.5 3.5-3.7 2.7-2.5 6.3-5.1 10.4-7.3 2-1.1 4.2-2.1 6.5-3s4.6-1.7 7.1-2.4c1.2-.3 2.5-.6 3.7-.8l2-.3 1.8-.1c.5-.1 1.2-.1 1.9-.1h2c1.3.1 2.6.2 3.9.6 2.6.6 5 1.7 6.9 3.3 2 1.5 3.4 3.3 4.4 5s1.7 3.4 2.2 4.8c.5 1.5.8 2.7 1 3.8.3 1.1.4 1.9.4 2.5.1.6.1.9.1.9a.75.75 0 0 1-.7.9c-.3 0-.6-.1-.8-.4h0s-.7-1-1.7-2.8c-.5-.9-1.2-1.9-2-3.1-.8-1.1-1.7-2.4-2.8-3.5s-2.3-2.3-3.7-3c-1.4-.8-3-1.4-4.8-1.6l-2.8-.3h-1.4c-.5 0-1 0-1.6.1l-1.8.1-1.5.2-3.2.6c-2.2.5-4.3 1.1-6.5 1.7-2.1.7-4.2 1.5-6.2 2.2-2 .8-3.9 1.6-5.6 2.5-1.8.9-3.4 1.7-4.8 2.6-1.5.9-2.8 1.8-3.9 2.6-.5.4-1 .9-1.5 1.2-.5.4-.8.8-1.2 1.1-.7.6-1.2 1.4-1.6 1.8s-.6.7-.6.7a.47.47 0 0 1-.6.1v-.5z" fill="#d42027"/><use xlink:href="#B" fill="#f0d911"/><path d="M109.3 88c-7.8-.3-13.9-6.9-13.6-14.7 0-.7.1-1.4.3-2.2 1.3-6.8 7.4-11.6 14.4-11.4 7.8.3 13.9 6.9 13.6 14.7s-6.9 13.9-14.7 13.6z" fill="#010101"/><use xlink:href="#B" fill="#d42027"/><path d="M101.4 72.9c-.2 5.2 3.8 9.5 9 9.7s9.5-3.8 9.7-9-3.8-9.5-9-9.7c-5.1-.2-9.5 3.8-9.7 9z" fill="#fff"/><path d="M101.9 70.5c.1 4.9 4 9 9 9.2 4.3.2 8.1-2.7 9.3-6.6v.6c-.2 5.2-4.6 9.2-9.7 9-5.2-.2-9.2-4.6-9-9.7 0-.9.1-1.7.4-2.5z" fill="#e9e8e8"/><path d="M110.7 74.8c-.1 2.6 1.9 4.7 4.5 4.8s4.8-1.9 4.9-4.5-1.9-4.7-4.5-4.9c-2.6 0-4.8 2-4.9 4.6z" fill="#010101"/><path d="M116.3 72.9c0 .9.7 1.7 1.6 1.7s1.7-.7 1.7-1.6-.7-1.7-1.6-1.7-1.7.7-1.7 1.6zm-4.1 5.1a.94.94 0 0 0 1 1c.6 0 1-.4 1.1-1a.94.94 0 0 0-1-1c-.6 0-1.1.5-1.1 1z" fill="#fff"/><use xlink:href="#C" fill="#f0d911"/><path d="M136.8 89.1c-7.8-.3-13.9-6.9-13.6-14.7 0-.7.1-1.4.3-2.2 1.3-6.8 7.4-11.6 14.4-11.4 7.8.3 13.9 6.9 13.6 14.7-.4 7.8-6.9 13.9-14.7 13.6z" fill="#010101"/><use xlink:href="#C" fill="#d42027"/><path d="M126.1 73.9c-.2 5.2 3.8 9.5 9 9.7s9.5-3.8 9.7-9-3.8-9.5-9-9.7-9.5 3.8-9.7 9z" fill="#fff"/><path d="M126.5 71.5c.1 4.9 4 9 9 9.2 4.3.2 8.1-2.7 9.3-6.6v.6c-.2 5.2-4.6 9.2-9.7 9-5.2-.2-9.2-4.6-9-9.7 0-1 .2-1.8.4-2.5z" fill="#e9e8e8"/><path d="M127.8 75.9c-.1 2.6 1.9 4.7 4.5 4.8s4.8-1.9 4.9-4.5-1.9-4.7-4.5-4.8-4.8 1.9-4.9 4.5z" fill="#010101"/><path d="M133.4 74c0 .9.7 1.7 1.6 1.7s1.7-.7 1.7-1.6-.7-1.7-1.6-1.7-1.7.7-1.7 1.6zm-4.1 5.1c0 .6.4 1 1 1.1.6 0 1-.4 1.1-1 0-.6-.4-1-1-1.1-.6 0-1.1.5-1.1 1z" fill="#fff"/><g fill="#010101"><path d="M104.4 52.1c-3.4.2-13.9-1.2-14.1 5.5-.3 7.6 15.8 11.7 19.7 13.3 17.3 7.5 33.4 9.2 41.3-14.7-13.9-5.8-32.6-4.9-46.9-4.1z"/><path d="M104.7 59.6l2.8 2.2c.4.3.9.7 1.3 1.1.5.4 1 .6 1.5 1l3.3 2 3.7 1.6c.6.2 1.2.5 1.7.7.6.2 1.1.3 1.6.4l3.4.9-.2 1.7-3.6-.4c-.5-.1-1.1-.1-1.8-.2-.6-.1-1.3-.3-1.9-.5l-4.2-1.1-4.1-1.8c-.6-.3-1.4-.5-1.8-.9l-1.5-.9-3-1.8 2.8-4zm41.9.3l-.5.8c-.4.5-.7 1.2-1.5 2.2-.7 1-1.6 2-2.6 3-.9 1-2.2 1.9-3.3 2.9l-1.9 1.2c-.6.4-1.3.7-1.9 1l-1.8.8-1.7.5c-.5.2-1 .3-1.5.3-.4.1-.8.1-1.2.1-.6.1-1 .1-1 .1l-.2-1.7s.3-.1.9-.2l1-.3c.4-.1.8-.2 1.3-.5l1.4-.7c.5-.2 1-.6 1.5-.9s1.1-.7 1.5-1.1l1.5-1.3 2.5-2.9c.8-1 1.3-1.9 1.8-2.7.2-.4.5-.7.6-1.2.2-.4.3-.7.5-1l.4-.9 4.2 2.5z"/></g><defs ><path id="B" d="M110.8 85.8c-6.2-.2-11.1-5.5-10.9-11.8 0-.6.1-1.1.2-1.8a11.23 11.23 0 0 1 11.5-9.1c6.2.2 11.1 5.5 10.9 11.8-.2 6.2-5.5 11.1-11.7 10.9z"/><path id="C" d="M135.4 86.7c-6.2-.2-11.1-5.5-10.9-11.8 0-.6.1-1.1.2-1.8a11.23 11.23 0 0 1 11.5-9.1c6.2.2 11.1 5.5 10.9 11.8-.1 6.3-5.4 11.2-11.7 10.9z"/></defs></svg>