<svg xmlns="http://www.w3.org/2000/svg" xmlns:xlink="http://www.w3.org/1999/xlink" viewBox="0 0 231 231" xmlns:v="https://vecta.io/nano"><style><![CDATA[.E{fill:#fff}.F{fill:#d42027}.G{fill:#010101}]]></style><g class="G"><path d="M105.5 53.7c-4-5-12.3-17.4-14.4-22.4-.4-.9-1.6-.5-1.4.5 1.5 5.6 8.7 18.3 12.2 24 1.2-.8 2.4-1.5 3.6-2.1z"/><path d="M91.3 34.4l-.5.7c3.5-2 4.8-6.9 5.6-10.7-.5.7-1.5 1.5-2.3 2.3.3-1.7.2-3.4-.2-4.6-.3 1.4-1 2.3-1.9 3.2-.2-2.4-.3-5-1.9-6.8-.8 1.7-1.4 3.7-1.9 5.6-1.3-2.4-2.9-5.2-5.9-5.2.5.8.6 2.6 1.3 3.6-2.7-.4-6-1.7-8.4-.6 1.5 1.6 3.7 3 5.2 4.4-1.9-.7-4-1.1-5.8-.4 1.5.9 3.2 2.2 4.7 2.8-.9.1-2 .8-2.8.9 1.6.4 3 1.4 4.4 2-1.1.1-2.3.7-3.4.8 1 1.1 3 2 4.9 2.3a12.75 12.75 0 0 1-1.2.7c3.8 1.5 7.2 1.1 10.1-1z"/><path d="M89.3 33.6l1.4.1s-.7-.4-.4-.6 1.4-.7 1.6-.9c1.1-1.2 1.6-2.6 2.4-4.3-.5.4-1.2.7-1.9 1.2.4-1.1.7-2.2.6-3.1-.4.8-1 1.4-1.7 1.8.3-1.6.6-3.3-.2-4.8-.8 1-1.5 2.2-2.1 3.4-.5-1.8-1.2-3.8-3.1-4.3.2.6 0 1.8.3 2.6-1.7-.7-3.7-2-5.4-1.7.8 1.3 2 2.5 2.8 3.7-1.1-.8-2.5-1.3-3.7-1.1l2.7 2.6c-.6 0-1.5.2-2 .2 1 .5 1.7 1.4 2.6 2-.7-.1-1.6.1-2.4 0 .5.9 1.7 1.8 2.9 2.2-.2.1-.6.2-.9.3 2 1.5 4.3 1.7 6.5.7zm60.6 15.8c3-5.1 6.5-10.3 10.4-14.7.4-.4-.2-1-.6-.7-4.1 3.1-15.6 14.4-19.8 20.3 1.3.4 8.8-5.4 10-4.9z"/><path d="M156.9 37.3l.3.8c-2.9-2.4-3.2-7.3-3.3-11.1.4.7 1.1 1.6 1.7 2.5 0-1.7.4-3.4.9-4.5.1 1.4.5 2.4 1.1 3.4.6-2.4 1.1-4.8 2.9-6.4.5 1.7.6 3.7.8 5.6 1.6-2.2 3.6-4.7 6.2-4.4-.6.7-1 2.5-1.9 3.4 2.6-.1 5.8-1 7.8.3-1.7 1.4-3.9 2.5-5.6 3.7 1.8-.5 3.9-.6 5.4.2-1.5.7-3.3 1.8-4.8 2.2.8.2 1.7 1 2.4 1.2-1.5.2-3 1.1-4.3 1.4 1 .2 1.9.9 3 1.2-1.1 1-3.1 1.6-4.9 1.7.3.3.7.5 1 .8-3.3 1.1-6.4.3-8.7-2z"/><path d="M158.9 36.7l-1.3-.1s.8-.4.5-.6c-.2-.2-1.1-.8-1.3-1-.8-1.3-1-2.7-1.4-4.5.4.4 1 .8 1.5 1.3-.2-1.1-.2-2.2 0-3.1.2.9.7 1.4 1.3 2 .1-1.6 0-3.3 1-4.6.6 1 1 2.3 1.3 3.5.7-1.7 1.7-3.6 3.6-3.9-.3.5-.3 1.8-.8 2.5 1.7-.5 3.7-1.6 5.3-1-.9 1.2-2.2 2.3-3.2 3.3 1.2-.6 2.5-1 3.6-.7-.9.7-2 1.7-2.9 2.2.5 0 1.3.4 1.8.4-1 .4-1.8 1.2-2.7 1.6.7 0 1.4.3 2.1.3-.6.8-1.8 1.6-3 1.9.2.1.5.2.8.4-2.1 1.3-4.3 1.3-6.2.1zm43.8 9.9c-5.2 17.2 1.1 35.2-8.4 52.2-8.2 14.7-29.8 21-40.5 5.3-10.7-15.5-16.2-37.3-3.4-49.7 10.4-10.1 37.2-12.5 52.3-7.8z"/></g><path d="M195.7 54.9c-3.9 12.8.8 26.2-6.2 38.8-6.1 11-22.2 15.6-30.1 4s-12.1-27.7-2.5-37c7.7-7.5 27.6-9.3 38.8-5.8z" class="F"/><path d="M36.3 39.5c3.5 17.9-5.3 34.9 2.6 53.1 6.9 15.9 29 25.3 42.2 11.4 13.1-13.9 21.6-34.7 9.5-48.9-9.8-11.6-37.8-18-54.3-15.6z" class="G"/><path d="M42.7 48.7c2.6 13.3-4 25.9 1.9 39.5 5.1 11.8 21.5 18.8 31.3 8.5s16-25.8 7.1-36.4c-7.3-8.6-28.1-13.4-40.3-11.6z" class="F"/><g class="G"><path d="M83.6 188.5c.5.1 3.4.8 5.4 1.9.3-3.7 2.2-7.9 3.2-10.8 1.6-4.7 3.3-12.1 8.6-13 3.9-1.2 5.5 5.3 1.6 6.6-2.8 1-3.7 6.9-4.7 9.6-.5 1.4-1 2.7-1.3 4.1l-.9 3.4c-.1 1.2-.2 1.8-.4 2 .3 1.4-.2 2.8-1.4 3.7-3.1 2.5-17.1 5.7-17.4-1.8-.1-4 4.3-6.4 7.3-5.7zm71.4 6.3c-.6 0-3.8.2-6.3.8.3-3.7-.9-8.2-1.5-11.2-.9-4.9-1.3-12.5-7-14.4-4-1.9-7 4.2-3 6.2 2.9 1.5 2.8 7.5 3.4 10.3.3 1.4.6 2.8.6 4.3.1 1.2.2 2.3.4 3.5-.1 1.2-.1 1.8 0 2-.6 1.3-.2 2.8.9 3.9 2.9 3 17.7 8.8 19.5 1.5.8-3.8-3.5-6.9-7-6.9zm35.6-19.2c-.5 0-3.6.2-5.9.8.3-3.7-.8-8.2-1.4-11.2-.9-4.9-1.2-12.4-6.5-14.4-3.8-1.9-6.6 4.2-2.9 6.2 2.7 1.5 2.6 7.5 3.1 10.3.3 1.4.5 2.8.6 4.3l.3 3.5c-.1 1.2-.1 1.9 0 2-.5 1.3-.2 2.8.8 3.9 2.7 3 16.7 8.7 18.4 1.4.9-3.8-3.2-6.8-6.5-6.8z"/><path d="M178 139.5c6.1-.7 12.5-1 18.4.4-5.7-7.9-15.1-13.1-22.7-19.1 7.7-2 16.4-.6 23.7-3.4-4.8-8.3-19.5-9-25.8-17.2 5.7-5 14.8-6 19.9-11.6-6.2-3.3-14-4.1-20.9-5.7 4.8-3.6 11.8-6.5 15.5-11.4-7.4-4.7-18.4-3.6-27-4.6 1.9-3.8 5.7-6.7 7.8-10.4-6.4-4.1-15.8 1.9-22.2 3.8 1.4-3.9 4.7-7.4 6.8-11.1-4.9-.1-9.7 2.2-14.2 3.4 2.1-3.4 7.9-10.1 5.5-14.4-2.5-4.5-7.4-3.4-10.2.5 1.8-3.8 2.1-8.3-2-9.7-3.4-1.1-7 3.8-10 9.1-2.3-4.4-5.1-8.1-9-10.1-13.4-6.9-9.8 2.8-7.8 11.5 6.9 29.4-22.5-5.7-37-.2 2.3 7.4 13.7 10.9 18.3 17.8-15 4.3-30.2-8.5-43.9 4.5 7.2.4 19.4 2.4 23.7 8.7-8.2 5.3-47.3 7.2-26.4 20.3 10.2 6.4 12 1.7 3.9 12.3-6.2 8.2-11.9 16.1-14.2 26.3 8.4 1.6 17.9-4.3 26.5-3.1-3.9 8.4-20.1 18.5-15.1 30.1 3.9 9.1 11.7-.5 19-2.4-.4 5-10.7 22-4.8 25.5 5.7 3.4 12.5-9.7 16.9-11.1C73 180 65.3 198 80 187c5.5-4.1 7.6-12.5 15-7.3 4.8 3.4 4.2 14.2 7.8 18.8 4.7-4 7.4-18 16-15.5 6 1.8 6 17.8 12.9 15.9 3.9-1.1 4-19.7 12.3-19.4 3.3.1 6.8 9.5 9.6 11.6 2.8-20.1 10.6-12.3 21.4-5.1 2.5-8.3 2.6-17.5-1.8-25.2 6.1-1.2 13.7-2.4 19.9-1.2-6.3-5.7-8.9-14-15.1-20.1z"/><path d="M67.6 169.5c3.2-3.3-2.3-7.9-5.5-4.5-4.1 4.2-6.2 9.3-7.7 15-.7 2.7-1.3 5.7-1.2 8.6 0 .5.1 1.1.1 1.7-.3 0-.8.1-1.4.2-2.1-1.7-5-3-6.7-3.5-3.5-1-9.8.8-9.8 5.3-.1 5.5 7.4 5.7 11.2 5.3 2.4-.2 5.3-.6 7.7-.4 1 .1 2 .3 2.9 0 .4-.1.6-.2.7-.3 1.7 0 3-.9 3.5-2.7.4-1.5.1-2.6-.9-3.9s-.2-3.9.1-5.6c1.2-5.8 3-11 7-15.2zm38.3 11.2c-2.3-3.8 3.4-7.4 5.7-3.6 2.9 4.9 4 10.3 4.3 16 .2 2.8.2 5.9-.4 8.6-.1.5-.2 1.1-.4 1.6.3.1.7.2 1.2.4 2.2-1.3 4.9-2.1 6.6-2.3 3.3-.4 8.6 2.4 7.9 6.8-.9 5.5-7.6 4.4-10.8 3.3-2.1-.6-4.6-1.5-6.7-1.7-.9-.1-1.8 0-2.6-.5-.3-.2-.5-.3-.6-.4-1.5-.3-2.6-1.4-2.7-3.3-.1-1.6.3-2.6 1.4-3.6 1.1-1.1.8-3.8.8-5.6 0-5.6-.8-11-3.7-15.7z"/></g><path d="M117.1 164.7c-17.8.3-33-23.2-35.5-46.9l-.5 5.4c.6 26.3 16.4 47.2 35.5 46.9 18.1-.3 32.6-19.7 33.8-44.1-2.8 21.8-16.5 38.4-33.3 38.7z" class="E"/><path d="M81.6 117.8c.6 26.3 16.4 47.2 35.5 46.9s34.2-21.8 33.9-48.1l-69.4 1.2z" class="F"/><path d="M105 117.4c1.7 4.1 3.3 8.3 4.6 12.7l2.9-12.8-7.5.1zm3.7 46c2.7.9 5.5 1.3 8.4 1.3h.1c-2.7-6.9-5.1-15.8-4.6-21.8-3 6.4-3.9 13.4-3.9 20.5zm24.6-37.2c1.2-2.9 2.2-6.1 3-9.3l-7.4.1c.8 3.8 1.8 7.6 4.4 9.2zm-11.7.2l2.7-9.3-6.4.1c.8 3.2 1.7 6.4 3 9.3.3.1.5.1.7-.1zm-16.3 35.7c-1.4-7.7-2.6-15.5-6-21.6-1 4-2 10-2.6 15.5 2.6 2.5 5.5 4.6 8.6 6.1zm35.1-45.3c.5 3.3 1.3 6.4 3.1 8.3 1-2.2 1.8-5.2 2.4-8.4l-5.5.1zm-7.1 22.6c-2.1 6.5-1.8 14-2.2 21 2.8-1.8 5.4-4 7.7-6.7-1.4-4.6-3.4-9.5-5.5-14.3zm-10 .6c-4.6 6.5-3.9 15.9-3.6 24.5 2.9-.3 5.7-1.2 8.4-2.5-1.8-7.3-3-14.9-4.8-22zm-30-5.9c1.4-5.3 2.7-11.1 4.5-16.5l-11.5.2c2 5.6 3.9 11.4 7 16.3z" class="E"/><path d="M113.8 82.7s0-.1 0 0c-1.3-4.7-6.1-12.9-6.1-12.9l-5.5 4.3c4.2 2.2 8.6 4.9 11.6 8.6zm13.2-5.6c1.6-.9 3.3-2 5.1-2.7-.8-2.3-2.1-4.5-3.9-6.3-.2.1-.4.2-.6.4-6 4.6-10.1 15.5-10.1 15.5l1.2.1c2.5-2.6 5.2-5.1 8.3-7z" class="G"/><use xlink:href="#B" class="F"/><path d="M92.8 115.7c-11.1-1-19.4-10.8-18.4-22 .1-1 .3-2 .6-3.2 2.4-9.7 11.4-16.1 21.4-15.2 11.1 1 19.4 10.8 18.4 22-1 11.1-10.9 19.4-22 18.4z" class="E"/><use xlink:href="#B" class="F"/><path d="M84.1 93.7c-.6 6.9 4.5 13.1 11.4 13.7s13.1-4.5 13.7-11.4-4.5-13.1-11.5-13.7c-6.8-.6-13 4.5-13.6 11.4z" class="E"/><path d="M84.9 90.6c-.2 6.6 4.8 12.3 11.4 12.9 5.8.5 11-3 12.9-8.3v.8c-.6 6.9-6.7 12.1-13.7 11.4-6.9-.6-12.1-6.7-11.4-13.7.1-1.1.4-2.1.8-3.1z" fill="#e9e8e8"/><path d="M91.5 96c-.3 3.5 2.2 6.5 5.7 6.8s6.5-2.2 6.8-5.7-2.2-6.5-5.7-6.8c-3.4-.3-6.5 2.2-6.8 5.7z" class="G"/><path d="M99.1 93.8c-.1 1.2.8 2.3 2 2.4s2.3-.8 2.4-2-.8-2.3-2-2.4-2.2.8-2.4 2zm-5.8 6.6c-.1.8.5 1.4 1.2 1.5.8.1 1.4-.5 1.5-1.2s-.5-1.4-1.2-1.5c-.8-.1-1.4.5-1.5 1.2z" class="E"/><use xlink:href="#C" class="F"/><path d="M132.2 112.3c-8.7-.8-15.2-8.5-14.4-17.2.1-.8.2-1.6.5-2.5 1.9-7.6 8.9-12.6 16.7-11.9 8.7.8 15.2 8.5 14.4 17.2-.7 8.7-8.5 15.2-17.2 14.4z" class="E"/><use xlink:href="#C" class="F"/><path d="M119.9 95c-.5 5.4 3.5 10.2 9 10.7 5.4.5 10.2-3.5 10.7-9 .5-5.4-3.5-10.2-9-10.7-5.4-.4-10.2 3.6-10.7 9z" class="E"/><path d="M120.5 92.5c-.1 5.2 3.7 9.7 9 10.1 4.6.4 8.6-2.4 10.1-6.5v.6c-.5 5.4-5.3 9.5-10.7 9s-9.5-5.3-9-10.7c.1-.9.3-1.7.6-2.5z" fill="#e9e8e8"/><path d="M125.7 96.8c-.2 2.7 1.8 5.1 4.5 5.3s5.1-1.8 5.4-4.5c.2-2.7-1.8-5.1-4.5-5.3-2.7-.3-5.1 1.7-5.4 4.5z" class="G"/><path d="M131.7 95.1c-.1 1 .6 1.8 1.6 1.9s1.8-.6 1.9-1.6-.6-1.8-1.6-1.9-1.8.6-1.9 1.6zm-4.6 5.1c-.1.6.4 1.1 1 1.2s1.1-.4 1.2-1-.4-1.1-1-1.2c-.6 0-1.1.4-1.2 1z" class="E"/><defs ><path id="B" d="M95.9 111.7c-8.4-.7-14.6-8.2-13.9-16.6.1-.7.2-1.5.5-2.4 1.8-7.3 8.6-12.1 16.1-11.5 8.4.7 14.6 8.2 13.9 16.6-.8 8.4-8.3 14.6-16.6 13.9z"/><path id="C" d="M129.1 109.1c-6.6-.6-11.4-6.4-10.9-13 .1-.6.2-1.2.4-1.9 1.4-5.7 6.7-9.5 12.6-9 6.6.6 11.4 6.4 10.9 13-.6 6.6-6.4 11.5-13 10.9z"/></defs></svg>