<?xml version="1.0" encoding="utf-8"?>
<!-- Generator: Adobe Illustrator 25.0.1, SVG Export Plug-In . SVG Version: 6.00 Build 0)  -->
<svg version="1.1" id="Layer_1" xmlns="http://www.w3.org/2000/svg" xmlns:xlink="http://www.w3.org/1999/xlink" x="0px" y="0px"
	 viewBox="0 0 200 200" style="enable-background:new 0 0 200 200;" xml:space="preserve">
<style type="text/css">
	.st0{fill:#FFFFFF;}
	.st1{fill:#FFD14E;stroke:#EE3A8B;stroke-width:2.7201;stroke-miterlimit:10;}
	.st2{fill:#004F6A;}
	.st3{fill:#EE3A8B;}
	.st4{fill:#FFD14E;}
	.st5{font-family:'Poppins-ExtraBold';}
	.st6{font-size:20.4333px;}
</style>
<g>
	<g>
		<path class="st0" d="M151.9,71.5l-2.5,0.7c-2.8-3.1-7-4.8-11.9-4.9c0.5-2,0.6-4,0.2-5.9c-0.5-2.5-2.1-6-6.7-8.4
			c-4.7-2.5-11.2-5.7-19.3-9.5c-9.8-7.7-26.8-13.2-45.7-5.5c-3.7,1.5-7.1,3.4-9.8,5.5l0,0c-3,2-5.5,4.5-7.5,7.6
			c-0.2,0.3-0.5,0.6-0.8,1c-6.1,8.9-14.4,21.4-19.4,29.9c-2.3,3.9-2.6,8-0.9,11.6c1.3,2.9,3.9,5.3,7.1,6.9c-1.1,1.7-1.7,3.3-2.1,4.7
			l-2.1,0.6c-16.2,4.6-25.7,21.5-21.1,37.7c4.6,16.2,21.5,25.7,37.7,21.1l121.4-34.3c16.2-4.6,25.7-21.5,21.1-37.7
			C185,76.4,168.1,66.9,151.9,71.5z"/>
		<g>
			<g>
				<path class="st1" d="M45.8,159.9l121.4-34.3c13.7-3.9,21.6-18.1,17.7-31.7l0,0c-3.9-13.7-18.1-21.6-31.7-17.7L31.9,110.5
					c-13.7,3.9-21.6,18.1-17.7,31.7l0,0C18,155.9,32.2,163.8,45.8,159.9z"/>
				<g>
					<path class="st2" d="M87.4,50.6c-2.8-6.3,3.7-12.7,10-9.9c10.2,4.6,23.4,10.7,32,15.3c15.6,8.3-7.6,34.3-26.3,16.7
						C95.3,65.4,90.4,57.4,87.4,50.6z"/>
					<path class="st3" d="M58.2,46.3c-7.4,4.9-10.5,13-12,21.8c-1.8,10.1-0.1,20.4,0,30.6c0,2.3,0.1,4.5,0.1,6.8
						c0,0,69.7-19.7,69.7-19.7C116.8,85.5,71.5,37.5,58.2,46.3z"/>
					<g>
						<path class="st3" d="M117.6,85.9c0.1-0.1-0.2-10.9,14.2-14.4c17.2-4.1,21.1,11.7,14.1,14.4c-9.1,3.5-13.1-4.3-13.1-4.3
							L117.6,85.9z"/>
						<g>
							<g>
								<g>
									<path class="st4" d="M147.5,76.5c1.1,1.7,1.5,3.7,1.1,5.7c-0.2,0.9-0.5,1.9-1.2,2.6c-0.7,0.8-1.6,1.2-2.6,1.4
										c-2,0.5-4.3,0.8-6.3-0.1c-1.8-0.8-3.1-2.3-4.4-3.7c-1.4-1.7-2.8-3.4-4.7-4.6c-0.6-0.4-1.2,0.6-0.6,1c3.7,2.4,5.5,7,9.8,8.6
										c2.2,0.8,4.7,0.5,6.9-0.2c2.1-0.7,3.6-2.1,4.1-4.3c0.6-2.4,0.1-4.9-1.2-7C148.1,75.3,147.1,75.9,147.5,76.5L147.5,76.5z"/>
								</g>
							</g>
							<g>
								<g>
									<path class="st4" d="M145.9,80.4c0.9,1.3,1.4,2.9,1.5,4.5c0,0.7,1.2,0.7,1.1,0c-0.1-1.8-0.6-3.6-1.7-5.1
										c-0.2-0.3-0.5-0.4-0.8-0.2C145.8,79.7,145.7,80.1,145.9,80.4L145.9,80.4z"/>
								</g>
							</g>
							<g>
								<g>
									<path class="st4" d="M140.9,81.2c0.8,1.6,1.2,3.4,1.2,5.2c0,0.7,1.1,0.7,1.1,0c0.1-2-0.4-4-1.3-5.8
										C141.6,80,140.6,80.6,140.9,81.2L140.9,81.2z"/>
								</g>
							</g>
						</g>
					</g>
					<g>
						<path class="st3" d="M77.7,90.1c17.6,6.7,33.7,11.8,48.6,1c11-8,0.3-24.2-12.1-40.2c-6.5-8.4-25-18.5-46.9-9.7
							C39.6,52.4,46.2,78.2,77.7,90.1z"/>
						<g>
							<g>
								<path class="st2" d="M109,84.4l0.1,0.3c0.6,1.9,2.7,2.9,4.6,2.3c1.9-0.6,2.9-2.7,2.3-4.6l-0.1-0.3l0,0l1.3-0.4l0,0l0.1,0.3
									c0.6,1.9,2.7,2.9,4.6,2.3c1.9-0.6,2.9-2.7,2.3-4.6l-0.1-0.3l1.3-0.4l0.1,0.3c0.9,2.6-0.5,5.4-3.1,6.3
									c-1.7,0.6-3.6,0.2-4.9-1c-0.3,1.7-1.5,3.1-3.3,3.7c-2.6,0.9-5.4-0.5-6.3-3.1l-0.1-0.3L109,84.4z"/>
								<path class="st2" d="M117.4,83.1l1.5-3.2c0.3-0.6-0.3-1.1-0.8-1l-4.7,1.6c-0.6,0.2-0.6,1-0.1,1.3l3.2,1.6
									C116.8,83.6,117.2,83.4,117.4,83.1z"/>
							</g>
							<g>
								<g>
									<path class="st0" d="M108.8,58.8c-0.2,3.5,2.1,6.4,5,6.6c2.9,0.2,5.5-2.5,5.7-6c0.2-3.5-2.1-6.4-5-6.6
										C111.5,52.6,109,55.3,108.8,58.8z"/>
									<path class="st2" d="M109.9,60.4c0.6,2,2.8,3.1,4.8,2.5c2-0.6,3.1-2.8,2.5-4.8c-0.6-2-2.8-3.1-4.8-2.5
										C110.4,56.2,109.3,58.4,109.9,60.4z"/>
									<path class="st0" d="M113.7,57.3c0.3,1,1.4,1.6,2.4,1.3c1-0.3,1.6-1.4,1.3-2.4c-0.3-1-1.4-1.6-2.4-1.3
										C113.9,55.1,113.3,56.2,113.7,57.3z"/>
								</g>
								<g>
									
										<ellipse transform="matrix(0.6633 -0.7483 0.7483 0.6633 -21.541 87.9325)" class="st0" cx="87" cy="67.9" rx="5.9" ry="6.8"/>
									<path class="st2" d="M82.5,69c0.5,2.3,2.7,3.8,4.9,3.3c2.2-0.5,3.5-2.7,3-5.1c-0.5-2.3-2.7-3.8-4.9-3.3
										C83.3,64.4,82,66.7,82.5,69z"/>
									<path class="st0" d="M86.7,65.8c0.3,1.2,1.4,1.9,2.5,1.7c1.1-0.3,1.8-1.4,1.6-2.6c-0.3-1.2-1.4-1.9-2.5-1.7
										C87.1,63.4,86.4,64.6,86.7,65.8z"/>
								</g>
							</g>
						</g>
						<g>
							<g>
								<path class="st4" d="M76.6,86.5c6.5,4.9,13.8,8.6,21.6,11c2.2,0.7,4.4,1.2,6.7,1.7c0.6,0.1,0.9-0.8,0.3-1
									c-7.9-1.5-15.5-4.5-22.4-8.7c-1.9-1.2-3.8-2.5-5.6-3.8C76.6,85.2,76.1,86.1,76.6,86.5L76.6,86.5z"/>
							</g>
						</g>
					</g>
					<path class="st2" d="M64.5,57.1c-0.9-6.8-9.8-8.9-13.7-3.2c-6.3,9.2-14.3,21.3-19.2,29.7c-8.9,15.3,24.4,25.2,31.1,0.5
						C65.5,73.8,65.4,64.5,64.5,57.1z"/>
					<g>
						<path class="st3" d="M35.5,109.1c0.1-0.1-0.2-10.9,14.2-14.4c17.2-4.1,21.1,11.7,14.1,14.4c-9.1,3.5-13.1-4.3-13.1-4.3
							L35.5,109.1z"/>
						<g>
							<g>
								<g>
									<path class="st4" d="M65.4,99.7c1.1,1.7,1.5,3.7,1.1,5.7c-0.2,0.9-0.5,1.9-1.2,2.6c-0.7,0.8-1.6,1.2-2.6,1.4
										c-2,0.5-4.3,0.8-6.3-0.1c-1.8-0.8-3.1-2.3-4.4-3.7c-1.4-1.7-2.8-3.4-4.7-4.6c-0.6-0.4-1.2,0.6-0.6,1c3.7,2.4,5.5,7,9.8,8.6
										c2.2,0.8,4.7,0.5,6.9-0.2c2.1-0.7,3.6-2.1,4.1-4.3c0.6-2.4,0.1-4.9-1.2-7C66,98.5,65,99.1,65.4,99.7L65.4,99.7z"/>
								</g>
							</g>
							<g>
								<g>
									<path class="st4" d="M63.8,103.6c0.9,1.3,1.4,2.9,1.5,4.5c0,0.7,1.2,0.7,1.1,0c-0.1-1.8-0.6-3.6-1.7-5.1
										c-0.2-0.3-0.5-0.4-0.8-0.2C63.7,102.9,63.6,103.3,63.8,103.6L63.8,103.6z"/>
								</g>
							</g>
							<g>
								<g>
									<path class="st4" d="M58.8,104.5c0.8,1.6,1.2,3.4,1.2,5.2c0,0.7,1.1,0.7,1.1,0c0.1-2-0.4-4-1.3-5.8
										C59.5,103.2,58.5,103.8,58.8,104.5L58.8,104.5z"/>
								</g>
							</g>
						</g>
					</g>
				</g>
			</g>
			<g>
				<text transform="matrix(0.9623 -0.272 0.272 0.9623 48.3149 140.668)" class="st2 st5 st6">wooow!!</text>
			</g>
		</g>
	</g>
</g>
</svg>
