<?xml version="1.0" encoding="utf-8"?>
<!-- Generator: Adobe Illustrator 25.0.1, SVG Export Plug-In . SVG Version: 6.00 Build 0)  -->
<svg version="1.1" id="Layer_1" xmlns="http://www.w3.org/2000/svg" xmlns:xlink="http://www.w3.org/1999/xlink" x="0px" y="0px"
	 viewBox="0 0 200 200" style="enable-background:new 0 0 200 200;" xml:space="preserve">
<style type="text/css">
	.st0{fill:#FFFFFF;}
	.st1{fill:#EE3A8B;}
	.st2{fill:#F8BBD3;}
	.st3{fill:#004F6A;}
	.st4{fill:#FFD14E;stroke:#EE3A8B;stroke-width:2.7201;stroke-miterlimit:10;}
	.st5{fill:#FFD14E;}
	.st6{font-family:'Poppins-ExtraBold';}
	.st7{font-size:16.6073px;}
</style>
<g>
	<g>
		<path class="st0" d="M191.2,131.4c-1.5-7.8-5.9-14.7-12.5-19.2c-3.2-2.2-6.9-3.7-10.7-4.5c-2.5-0.5-5-1-7.4-1.5
			c-0.2-0.9-0.6-1.9-1-2.8c-1.4-3-3.5-5.4-6.1-7.3c-0.1-2.5-0.3-4.9-0.4-7.4c-0.4-6.4-0.8-12.9-1.2-19.3c-0.4-5.9-0.7-11.8-1.1-17.8
			c-0.1-1.5-0.2-3.1-0.3-4.6c0-0.4-0.1-0.8-0.2-1.2c-0.7-3.4-4.7-4.7-7.4-2.8c-3.9,2.7-7.7,5.5-11.6,8.3c-2.8-1.6-6-2.7-9-3.6
			c-5.6-1.7-11.7-2.4-17.5-2.1c-0.3,0-0.5,0-0.8,0.1c-1.1-2.6-2.2-5.2-3.3-7.8c-0.2-0.4-0.3-0.8-0.5-1.2c-0.7-1.5-1.9-2.8-3.5-3
			c-1.7-0.3-3.4,0.3-4.6,1.6c-0.7,0.8-1.2,1.8-1.8,2.7c-4.5,6.8-9.1,13.6-13.6,20.3c-3.8,5.7-6,12.2-6.6,19
			c-8.2-2.4-18.5-1.5-22.9,6c-3.9-0.8-7.9-1.7-11.9-1.6c-7.8,0.2-15.4,3.8-20.8,9.5c-5.4,5.8-8.2,13.7-7.9,21.6
			c0.4,7.8,4,15.4,9.8,20.6c4,3.6,9,6,14.2,7.1c1.4,0.3,2.7,0.6,4.1,0.8c6.6,1.3,13.2,2.7,19.9,4c9.7,2,19.4,3.9,29.1,5.9
			c10.4,2.1,20.8,4.2,31.2,6.3c8.8,1.8,17.5,3.6,26.3,5.3c4.7,1,9.4,1.9,14.1,2.9c3.7,0.8,7.6,1,11.4,0.4
			c7.6-1.3,14.8-5.5,19.3-11.9C190.7,147.5,192.7,139.3,191.2,131.4z"/>
		<g>
			<g>
				<g>
					<path class="st1" d="M150.2,113.1l-4-65.6c-0.1-1-1.2-1.5-1.9-0.9l-13.2,9.5c0,0-5.5-3.6-13.5-5.2c-9.3-1.9-15.7-0.7-15.7-0.7
						L97,38.7c-0.4-0.9-1.6-1-2.2-0.2l-15,22.4c-7.6,11.4-7.9,26.1-0.7,37.8l0,0L150.2,113.1z"/>
					<g>
						<g>
							<g>
								<path class="st2" d="M103.3,85.4L103.3,85.4c-1.5-0.3-2.5-1.8-2.2-3.3l0.4-1.9l3.1-1.3l2.4,2.5l-0.4,1.9
									C106.3,84.7,104.8,85.7,103.3,85.4z"/>
								<g>
									
										<rect x="101.6" y="81.2" transform="matrix(0.1991 -0.98 0.98 0.1991 3.5314 167.3057)" class="st0" width="5" height="0.6"/>
								</g>
							</g>
							<path class="st3" d="M111.7,78.4l0,0.2c-0.3,1.7-2,2.8-3.7,2.4c-1.7-0.3-2.8-2-2.4-3.7l0-0.2l0,0l-1.1-0.2l0,0l0,0.2
								c-0.3,1.7-2,2.8-3.7,2.4c-1.7-0.3-2.8-2-2.4-3.7l0-0.2l-1.2-0.2l0,0.2c-0.5,2.3,1,4.6,3.3,5c1.5,0.3,3.1-0.3,4.1-1.4
								c0.5,1.4,1.7,2.5,3.2,2.8c2.3,0.5,4.6-1,5-3.3l0-0.2L111.7,78.4z"/>
							<path class="st3" d="M104.4,78.2l-1.7-2.5c-0.3-0.4,0.1-1,0.6-0.9l4.2,0.8c0.5,0.1,0.7,0.8,0.2,1.1l-2.5,1.7
								C104.9,78.6,104.5,78.5,104.4,78.2z"/>
						</g>
						<g>
							<g>
								<path class="st0" d="M132.2,76.7c-0.7,3.7-4.3,6-8,5.3c-3.7-0.7-6-4.3-5.3-8c0.7-3.7,4.3-6,8-5.3
									C130.5,69.4,132.9,73,132.2,76.7z"/>
								<path class="st3" d="M130.2,76.3c-0.5,2.6-3.1,4.3-5.6,3.7c-2.6-0.5-4.3-3.1-3.7-5.6c0.5-2.6,3.1-4.3,5.6-3.7
									C129.1,71.2,130.7,73.7,130.2,76.3z"/>
								<path class="st0" d="M131.2,74c-0.3,1.3-1.6,2.2-2.9,1.9c-1.3-0.3-2.2-1.6-1.9-2.9c0.3-1.3,1.6-2.2,2.9-1.9
									S131.5,72.6,131.2,74z"/>
							</g>
							<g>
								<path class="st0" d="M94.7,69.1c-0.7,3.7-4.3,6-8,5.3c-3.7-0.7-6-4.3-5.3-8c0.7-3.7,4.3-6,8-5.3
									C93.1,61.8,95.4,65.4,94.7,69.1z"/>
								<path class="st3" d="M92.8,68.7c-0.5,2.6-3.1,4.3-5.6,3.7c-2.6-0.5-4.3-3.1-3.7-5.6c0.5-2.6,3.1-4.3,5.6-3.7
									C91.6,63.6,93.3,66.1,92.8,68.7z"/>
								<path class="st0" d="M93.8,66.4c-0.3,1.3-1.6,2.2-2.9,1.9c-1.3-0.3-2.2-1.6-1.9-2.9c0.3-1.3,1.6-2.2,2.9-1.9
									C93.2,63.7,94,65,93.8,66.4z"/>
							</g>
						</g>
					</g>
				</g>
				<path class="st4" d="M155.9,161.2L32.4,136.1c-13.9-2.8-22.9-16.4-20.1-30.3l0,0C15.1,92,28.7,83,42.6,85.8l123.6,25.1
					c13.9,2.8,22.9,16.4,20.1,30.3l0,0C183.4,155.1,169.8,164.1,155.9,161.2z"/>
				<g>
					<path class="st1" d="M81.7,93.3c-0.1-0.1-0.6-10.9-15.3-13.3c-17.5-2.8-20.2,13.3-13,15.4c9.4,2.8,12.8-5.2,12.8-5.2L81.7,93.3
						z"/>
					<g>
						<g>
							<g>
								<path class="st5" d="M50.2,85.7c-2,3.7-1.4,9.5,3.1,10.9c2.1,0.6,4.6,0.8,6.7,0.1c2.1-0.7,3.7-2.2,5-3.9
									c1.6-2,2.8-4.2,4.9-5.8c0.6-0.4,0-1.4-0.6-1c-3.1,2.4-4.5,6.4-7.8,8.6c-1.8,1.2-3.8,1.4-5.9,1.2c-2.1-0.2-3.9-0.9-4.8-2.8
									c-1-2.1-0.8-4.7,0.3-6.8C51.5,85.7,50.5,85.1,50.2,85.7L50.2,85.7z"/>
							</g>
						</g>
						<g>
							<g>
								<path class="st5" d="M52.1,89.4c-0.9,1.6-1.4,3.4-1.3,5.2c0,0.3,0.3,0.6,0.6,0.6c0.3,0,0.6-0.3,0.6-0.6
									C51.8,93,52.2,91.4,53,90C53.4,89.4,52.4,88.8,52.1,89.4L52.1,89.4z"/>
							</g>
						</g>
						<g>
							<g>
								<path class="st5" d="M57.1,90c-0.8,1.9-1.1,3.9-0.9,5.9c0,0.3,0.2,0.6,0.6,0.6c0.3,0,0.6-0.3,0.6-0.6
									c-0.2-1.8,0-3.6,0.8-5.3c0.1-0.3,0.1-0.6-0.2-0.8C57.6,89.6,57.2,89.7,57.1,90L57.1,90z"/>
							</g>
						</g>
					</g>
				</g>
				<g>
					<path class="st1" d="M156.6,108.6c-0.1-0.1-0.6-10.9-15.3-13.3c-17.5-2.8-20.2,13.3-13,15.4c9.4,2.8,12.8-5.2,12.8-5.2
						L156.6,108.6z"/>
					<g>
						<g>
							<g>
								<path class="st5" d="M125,100.9c-2,3.7-1.4,9.5,3.1,10.9c2.1,0.6,4.6,0.8,6.7,0.1c2.1-0.7,3.7-2.2,5-3.9
									c1.6-2,2.8-4.2,4.9-5.8c0.6-0.4,0-1.4-0.6-1c-3.1,2.4-4.5,6.4-7.8,8.6c-1.8,1.2-3.8,1.4-5.9,1.2c-2.1-0.2-3.9-0.9-4.8-2.8
									c-1-2.1-0.8-4.7,0.3-6.8C126.4,100.9,125.4,100.3,125,100.9L125,100.9z"/>
							</g>
						</g>
						<g>
							<g>
								<path class="st5" d="M126.9,104.7c-0.9,1.6-1.4,3.4-1.3,5.2c0,0.3,0.3,0.6,0.6,0.6c0.3,0,0.6-0.3,0.6-0.6
									c-0.1-1.6,0.3-3.2,1.1-4.6C128.3,104.6,127.3,104,126.9,104.7L126.9,104.7z"/>
							</g>
						</g>
						<g>
							<g>
								<path class="st5" d="M131.9,105.2c-0.8,1.9-1.1,3.9-0.9,5.9c0,0.3,0.2,0.6,0.6,0.6c0.3,0,0.6-0.3,0.6-0.6
									c-0.2-1.8,0-3.6,0.8-5.3c0.1-0.3,0.1-0.6-0.2-0.8C132.5,104.8,132.1,104.9,131.9,105.2L131.9,105.2z"/>
							</g>
						</g>
					</g>
				</g>
			</g>
			<g>
				<text transform="matrix(0.98 0.199 -0.199 0.98 48.8088 119.2824)" class="st3 st6 st7">purrrfect</text>
			</g>
		</g>
	</g>
</g>
</svg>
