<svg xmlns="http://www.w3.org/2000/svg" xmlns:xlink="http://www.w3.org/1999/xlink" viewBox="0 0 80.17 60.19"><defs><style>.cls-1{isolation:isolate;}.cls-2{fill:#ff9b2e;}.cls-3,.cls-59{fill:#fff;}.cls-3{opacity:0.2;}.cls-4{fill:#e57200;}.cls-5{fill:url(#linear-gradient);}.cls-6{fill:url(#linear-gradient-2);}.cls-7{fill:url(#linear-gradient-3);}.cls-8{fill:url(#linear-gradient-4);}.cls-9{fill:url(#linear-gradient-5);}.cls-10{fill:url(#linear-gradient-6);}.cls-11{fill:url(#linear-gradient-7);}.cls-12{fill:url(#linear-gradient-8);}.cls-13{fill:url(#linear-gradient-9);}.cls-14{fill:url(#linear-gradient-10);}.cls-15{fill:url(#linear-gradient-11);}.cls-16{fill:url(#linear-gradient-12);}.cls-17{fill:url(#linear-gradient-13);}.cls-18{fill:url(#linear-gradient-14);}.cls-19{fill:url(#linear-gradient-15);}.cls-20{fill:url(#linear-gradient-16);}.cls-21{fill:url(#linear-gradient-17);}.cls-22{fill:url(#linear-gradient-18);}.cls-23{fill:url(#linear-gradient-19);}.cls-24{fill:url(#linear-gradient-20);}.cls-25{fill:url(#linear-gradient-21);}.cls-26{fill:url(#linear-gradient-22);}.cls-27{fill:url(#linear-gradient-23);}.cls-28{fill:url(#linear-gradient-24);}.cls-29{fill:url(#linear-gradient-25);}.cls-30{fill:url(#linear-gradient-26);}.cls-31{fill:url(#linear-gradient-27);}.cls-32{fill:url(#linear-gradient-28);}.cls-33{fill:url(#linear-gradient-29);}.cls-34{fill:url(#linear-gradient-30);}.cls-35{fill:url(#linear-gradient-31);}.cls-36{fill:url(#linear-gradient-32);}.cls-37{fill:url(#linear-gradient-33);}.cls-38{fill:url(#linear-gradient-34);}.cls-39{fill:url(#linear-gradient-35);}.cls-40{fill:url(#linear-gradient-36);}.cls-41{fill:url(#linear-gradient-37);}.cls-42{fill:url(#linear-gradient-38);}.cls-43{fill:url(#linear-gradient-39);}.cls-44{fill:url(#linear-gradient-40);}.cls-45{fill:url(#linear-gradient-41);}.cls-46{fill:url(#linear-gradient-42);}.cls-47{fill:url(#linear-gradient-43);}.cls-48{fill:url(#linear-gradient-44);}.cls-49{fill:url(#linear-gradient-45);}.cls-50{fill:url(#linear-gradient-46);}.cls-51{fill:url(#linear-gradient-47);}.cls-52{fill:url(#linear-gradient-48);}.cls-53{fill:url(#linear-gradient-49);}.cls-54{fill:url(#linear-gradient-50);}.cls-55{fill:url(#linear-gradient-51);}.cls-56{fill:url(#linear-gradient-52);}.cls-57{fill:url(#linear-gradient-53);}.cls-58{fill:url(#linear-gradient-54);}.cls-60{mix-blend-mode:screen;opacity:0.7;fill:url(#radial-gradient);}.cls-61{fill:url(#radial-gradient-2);}.cls-62{fill:url(#radial-gradient-3);}.cls-63{fill:#2e2a49;}.cls-64,.cls-67{mix-blend-mode:lighten;}.cls-64{fill:url(#linear-gradient-55);}.cls-65{fill:url(#radial-gradient-4);}.cls-66{fill:url(#radial-gradient-5);}.cls-67{fill:url(#linear-gradient-56);}.cls-68{fill:url(#linear-gradient-57);}.cls-69{fill:url(#radial-gradient-6);}.cls-70{fill:#eddd9a;}.cls-71{fill:#e66d28;opacity:0.4;}.cls-72{fill:url(#linear-gradient-58);}.cls-73{fill:url(#linear-gradient-59);}.cls-74{fill:url(#linear-gradient-60);}.cls-75{fill:url(#linear-gradient-61);}.cls-76{fill:url(#linear-gradient-62);}.cls-77{fill:url(#linear-gradient-63);}.cls-78{fill:url(#linear-gradient-64);}.cls-79{fill:url(#linear-gradient-65);}.cls-80{fill:url(#linear-gradient-66);}.cls-81{fill:url(#linear-gradient-67);}.cls-82{fill:url(#linear-gradient-68);}.cls-83{fill:url(#linear-gradient-69);}.cls-84{fill:url(#linear-gradient-70);}.cls-85{fill:url(#linear-gradient-71);}.cls-86{fill:url(#linear-gradient-72);}</style><linearGradient id="linear-gradient" x1="69.27" y1="58.4" x2="69.48" y2="55.97" gradientUnits="userSpaceOnUse"><stop offset="0" stop-color="#600000"/><stop offset="0.22" stop-color="#6c0305"/><stop offset="0.63" stop-color="#8d0c13"/><stop offset="1" stop-color="#b01622"/></linearGradient><linearGradient id="linear-gradient-2" x1="72.36" y1="58.52" x2="72.57" y2="56.1" xlink:href="#linear-gradient"/><linearGradient id="linear-gradient-3" x1="75.15" y1="57.57" x2="75.36" y2="55.15" xlink:href="#linear-gradient"/><linearGradient id="linear-gradient-4" x1="77.61" y1="55.62" x2="77.82" y2="53.2" xlink:href="#linear-gradient"/><linearGradient id="linear-gradient-5" x1="78.83" y1="52.78" x2="79.05" y2="50.36" xlink:href="#linear-gradient"/><linearGradient id="linear-gradient-6" x1="-97.56" y1="-378.34" x2="-96.78" y2="-378.34" gradientTransform="translate(-19.24 428.07) rotate(26.42)" xlink:href="#linear-gradient"/><linearGradient id="linear-gradient-7" x1="55.94" y1="-72.82" x2="56.72" y2="-72.82" gradientTransform="matrix(0.99, 0.1, -0.1, 0.99, 0.4, 110.78)" xlink:href="#linear-gradient"/><linearGradient id="linear-gradient-8" x1="-253.27" y1="-665.8" x2="-252.49" y2="-665.8" gradientTransform="translate(-245.01 678.29) rotate(46.6)" xlink:href="#linear-gradient"/><linearGradient id="linear-gradient-9" x1="-1.98" y1="522.54" x2="-1.2" y2="522.54" gradientTransform="matrix(0.85, -0.53, 0.53, 0.85, -210.01, -403.89)" xlink:href="#linear-gradient"/><linearGradient id="linear-gradient-10" x1="-0.14" y1="-227.07" x2="0.64" y2="-227.07" gradientTransform="translate(1.12 262.19) rotate(15.45)" xlink:href="#linear-gradient"/><linearGradient id="linear-gradient-11" x1="-184.8" y1="-490.71" x2="-184.02" y2="-490.71" gradientTransform="translate(-60 558.23) rotate(34.21)" xlink:href="#linear-gradient"/><linearGradient id="linear-gradient-12" x1="52.02" y1="-142.27" x2="52.8" y2="-142.27" gradientTransform="matrix(0.98, 0.17, -0.17, 0.98, -11.16, 180.25)" xlink:href="#linear-gradient"/><linearGradient id="linear-gradient-13" x1="-124.35" y1="-400.74" x2="-123.57" y2="-400.74" gradientTransform="translate(-19.01 463.72) rotate(28.99)" xlink:href="#linear-gradient"/><linearGradient id="linear-gradient-14" x1="12.68" y1="549.41" x2="13.46" y2="549.41" gradientTransform="translate(-256.68 -397.96) rotate(-34.75)" xlink:href="#linear-gradient"/><linearGradient id="linear-gradient-15" x1="-1401.64" y1="658.77" x2="-1400.86" y2="658.77" gradientTransform="matrix(-0.72, 0.69, 0.69, 0.72, -1394.56, 534.4)" xlink:href="#linear-gradient"/><linearGradient id="linear-gradient-16" x1="-994.04" y1="964.33" x2="-993.26" y2="964.33" gradientTransform="matrix(-0.17, 0.99, 0.99, 0.17, -1045, 857.13)" xlink:href="#linear-gradient"/><linearGradient id="linear-gradient-17" x1="-1442.51" y1="706.17" x2="-1441.73" y2="706.17" gradientTransform="matrix(-0.68, 0.73, 0.73, 0.68, -1431.63, 609.22)" xlink:href="#linear-gradient"/><linearGradient id="linear-gradient-18" x1="-1437.81" y1="707.91" x2="-1437.03" y2="707.91" gradientTransform="matrix(-0.68, 0.73, 0.73, 0.68, -1431.63, 609.22)" xlink:href="#linear-gradient"/><linearGradient id="linear-gradient-19" x1="-1599.57" y1="336.9" x2="-1598.79" y2="336.9" gradientTransform="matrix(-0.94, 0.34, 0.34, 0.94, -1547.16, 272.81)" xlink:href="#linear-gradient"/><linearGradient id="linear-gradient-20" x1="-1548" y1="545.97" x2="-1547.22" y2="545.97" gradientTransform="matrix(-0.84, 0.55, 0.55, 0.84, -1524.01, 441.83)" xlink:href="#linear-gradient"/><linearGradient id="linear-gradient-21" x1="-1036.35" y1="986.42" x2="-1035.57" y2="986.42" gradientTransform="matrix(-0.19, 0.98, 0.98, 0.19, -1092.79, 874.27)" xlink:href="#linear-gradient"/><linearGradient id="linear-gradient-22" x1="-1412.16" y1="653.74" x2="-1411.37" y2="653.74" gradientTransform="matrix(-0.74, 0.67, 0.67, 0.74, -1408.25, 511.37)" xlink:href="#linear-gradient"/><linearGradient id="linear-gradient-23" x1="-1476.41" y1="479.31" x2="-1475.63" y2="479.31" gradientTransform="matrix(-0.87, 0.49, 0.49, 0.87, -1446.67, 354.82)" xlink:href="#linear-gradient"/><linearGradient id="linear-gradient-24" x1="-1417.41" y1="647.31" x2="-1416.63" y2="647.31" gradientTransform="matrix(-0.76, 0.65, 0.65, 0.76, -1421.74, 490.99)" xlink:href="#linear-gradient"/><linearGradient id="linear-gradient-25" x1="-1394.33" y1="-129.69" x2="-1393.55" y2="-129.69" gradientTransform="matrix(-0.99, -0.16, -0.16, 0.99, -1325.66, -42.88)" xlink:href="#linear-gradient"/><linearGradient id="linear-gradient-26" x1="-949.12" y1="934.01" x2="-948.34" y2="934.01" gradientTransform="matrix(-0.14, 0.99, 0.99, 0.14, -990.69, 839.76)" xlink:href="#linear-gradient"/><linearGradient id="linear-gradient-27" x1="-1515.39" y1="664.04" x2="-1514.61" y2="664.04" gradientTransform="matrix(-0.73, 0.68, 0.68, 0.73, -1493.57, 584.9)" xlink:href="#linear-gradient"/><linearGradient id="linear-gradient-28" x1="-3607.01" y1="58.4" x2="-3606.8" y2="55.97" gradientTransform="matrix(-1, 0, 0, 1, -3596.12, 0)" xlink:href="#linear-gradient"/><linearGradient id="linear-gradient-29" x1="-3603.93" y1="58.52" x2="-3603.72" y2="56.1" gradientTransform="matrix(-1, 0, 0, 1, -3596.12, 0)" xlink:href="#linear-gradient"/><linearGradient id="linear-gradient-30" x1="-3601.14" y1="57.57" x2="-3600.92" y2="55.15" gradientTransform="matrix(-1, 0, 0, 1, -3596.12, 0)" xlink:href="#linear-gradient"/><linearGradient id="linear-gradient-31" x1="-3598.68" y1="55.62" x2="-3598.47" y2="53.2" gradientTransform="matrix(-1, 0, 0, 1, -3596.12, 0)" xlink:href="#linear-gradient"/><linearGradient id="linear-gradient-32" x1="-3597.45" y1="52.78" x2="-3597.24" y2="50.36" gradientTransform="matrix(-1, 0, 0, 1, -3596.12, 0)" xlink:href="#linear-gradient"/><linearGradient id="linear-gradient-33" x1="-3389.92" y1="1257.18" x2="-3389.14" y2="1257.18" gradientTransform="matrix(-0.9, 0.44, 0.44, 0.9, -3576.88, 428.07)" xlink:href="#linear-gradient"/><linearGradient id="linear-gradient-34" x1="-3600.41" y1="309.14" x2="-3599.63" y2="309.14" gradientTransform="matrix(-0.99, 0.1, 0.1, 0.99, -3596.51, 110.78)" xlink:href="#linear-gradient"/><linearGradient id="linear-gradient-35" x1="-2779.11" y1="2005.25" x2="-2778.33" y2="2005.25" gradientTransform="matrix(-0.69, 0.73, 0.73, 0.69, -3351.11, 678.29)" xlink:href="#linear-gradient"/><linearGradient id="linear-gradient-36" x1="-3122.29" y1="-1421.63" x2="-3121.51" y2="-1421.63" gradientTransform="matrix(-0.85, -0.53, -0.53, 0.85, -3386.11, -403.89)" xlink:href="#linear-gradient"/><linearGradient id="linear-gradient-37" x1="-3543.45" y1="752.22" x2="-3542.67" y2="752.22" gradientTransform="matrix(-0.96, 0.27, 0.27, 0.96, -3597.23, 262.19)" xlink:href="#linear-gradient"/><linearGradient id="linear-gradient-38" x1="-3225.1" y1="1576.11" x2="-3224.32" y2="1576.11" gradientTransform="matrix(-0.83, 0.56, 0.56, 0.83, -3536.12, 558.23)" xlink:href="#linear-gradient"/><linearGradient id="linear-gradient-39" x1="-3569.32" y1="491.56" x2="-3568.53" y2="491.56" gradientTransform="matrix(-0.98, 0.17, 0.17, 0.98, -3584.96, 180.25)" xlink:href="#linear-gradient"/><linearGradient id="linear-gradient-40" x1="-3339.89" y1="1381.1" x2="-3339.11" y2="1381.1" gradientTransform="matrix(-0.87, 0.48, 0.48, 0.87, -3577.11, 463.72)" xlink:href="#linear-gradient"/><linearGradient id="linear-gradient-41" x1="-3007.98" y1="-1546.23" x2="-3007.2" y2="-1546.23" gradientTransform="matrix(-0.82, -0.57, -0.57, 0.82, -3339.44, -397.96)" xlink:href="#linear-gradient"/><linearGradient id="linear-gradient-42" x1="1252.61" y1="-1884.82" x2="1253.39" y2="-1884.82" gradientTransform="translate(-2201.56 534.4) rotate(43.78)" xlink:href="#linear-gradient"/><linearGradient id="linear-gradient-43" x1="-364.27" y1="-2657.68" x2="-363.49" y2="-2657.68" gradientTransform="translate(-2551.12 857.13) rotate(80.14)" xlink:href="#linear-gradient"/><linearGradient id="linear-gradient-44" x1="1068.87" y1="-1978.35" x2="1069.66" y2="-1978.35" gradientTransform="translate(-2164.49 609.22) rotate(46.91)" xlink:href="#linear-gradient"/><linearGradient id="linear-gradient-45" x1="1073.58" y1="-1976.62" x2="1074.36" y2="-1976.62" gradientTransform="translate(-2164.49 609.22) rotate(46.91)" xlink:href="#linear-gradient"/><linearGradient id="linear-gradient-46" x1="1857.77" y1="-913.1" x2="1858.55" y2="-913.1" gradientTransform="matrix(0.94, 0.34, -0.34, 0.94, -2048.96, 272.81)" xlink:href="#linear-gradient"/><linearGradient id="linear-gradient-47" x1="1525.85" y1="-1470.3" x2="1526.64" y2="-1470.3" gradientTransform="matrix(0.84, 0.55, -0.55, 0.84, -2072.1, 441.83)" xlink:href="#linear-gradient"/><linearGradient id="linear-gradient-48" x1="-344.43" y1="-2624.28" x2="-343.65" y2="-2624.28" gradientTransform="translate(-2503.33 874.27) rotate(79.15)" xlink:href="#linear-gradient"/><linearGradient id="linear-gradient-49" x1="1311" y1="-1816.11" x2="1311.78" y2="-1816.11" gradientTransform="translate(-2187.87 511.37) rotate(42.21)" xlink:href="#linear-gradient"/><linearGradient id="linear-gradient-50" x1="1728.89" y1="-1320.93" x2="1729.67" y2="-1320.93" gradientTransform="translate(-2149.45 354.82) rotate(29.32)" xlink:href="#linear-gradient"/><linearGradient id="linear-gradient-51" x1="1361.13" y1="-1759.93" x2="1361.91" y2="-1759.93" gradientTransform="matrix(0.76, 0.65, -0.65, 0.76, -2174.37, 490.99)" xlink:href="#linear-gradient"/><linearGradient id="linear-gradient-52" x1="2233.71" y1="464.81" x2="2234.49" y2="464.81" gradientTransform="translate(-2270.45 -42.88) rotate(-9.31)" xlink:href="#linear-gradient"/><linearGradient id="linear-gradient-53" x1="-425.6" y1="-2704.84" x2="-424.82" y2="-2704.84" gradientTransform="translate(-2605.43 839.76) rotate(81.81)" xlink:href="#linear-gradient"/><linearGradient id="linear-gradient-54" x1="1166.04" y1="-1850.86" x2="1166.82" y2="-1850.86" gradientTransform="translate(-2102.55 584.9) rotate(43.16)" xlink:href="#linear-gradient"/><radialGradient id="radial-gradient" cx="40.08" cy="-111.07" r="21.69" gradientTransform="translate(0 100.16) scale(1 0.67)" gradientUnits="userSpaceOnUse"><stop offset="0" stop-color="#fff"/><stop offset="0.07" stop-color="#e1e1e1"/><stop offset="0.21" stop-color="#a6a6a6"/><stop offset="0.36" stop-color="#747474"/><stop offset="0.5" stop-color="#4a4a4a"/><stop offset="0.64" stop-color="#2a2a2a"/><stop offset="0.77" stop-color="#131313"/><stop offset="0.89" stop-color="#050505"/><stop offset="1"/></radialGradient><radialGradient id="radial-gradient-2" cx="25.34" cy="20.26" r="2.95" gradientUnits="userSpaceOnUse"><stop offset="0.56" stop-color="#fff"/><stop offset="0.78" stop-color="#fdfdfd"/><stop offset="0.86" stop-color="#f6f6f6"/><stop offset="0.92" stop-color="#ebebeb"/><stop offset="0.96" stop-color="#dadada"/><stop offset="1" stop-color="#c6c6c6"/></radialGradient><radialGradient id="radial-gradient-3" cx="25.34" cy="20.26" r="1.59" gradientUnits="userSpaceOnUse"><stop offset="0" stop-color="#fff"/><stop offset="0.17" stop-color="#fcfefc"/><stop offset="0.3" stop-color="#f2fbf2"/><stop offset="0.42" stop-color="#e1f5e1"/><stop offset="0.53" stop-color="#caedca"/><stop offset="0.63" stop-color="#abe3ab"/><stop offset="0.74" stop-color="#86d786"/><stop offset="0.84" stop-color="#59c859"/><stop offset="0.93" stop-color="#27b727"/><stop offset="1" stop-color="#0a0"/></radialGradient><linearGradient id="linear-gradient-55" x1="25.34" y1="18.8" x2="25.35" y2="20.12" gradientUnits="userSpaceOnUse"><stop offset="0" stop-color="#fff"/><stop offset="0.1" stop-color="#f3f3f3"/><stop offset="0.27" stop-color="#d3d3d2"/><stop offset="0.51" stop-color="#9e9e9d"/><stop offset="0.79" stop-color="#575755"/><stop offset="1" stop-color="#1d1d1b"/></linearGradient><radialGradient id="radial-gradient-4" cx="54.83" cy="20.26" r="2.95" xlink:href="#radial-gradient-2"/><radialGradient id="radial-gradient-5" cx="54.83" cy="20.26" r="1.59" xlink:href="#radial-gradient-3"/><linearGradient id="linear-gradient-56" x1="54.82" y1="18.8" x2="54.83" y2="20.12" xlink:href="#linear-gradient-55"/><linearGradient id="linear-gradient-57" x1="39.79" y1="40.66" x2="40.19" y2="25.98" xlink:href="#linear-gradient"/><radialGradient id="radial-gradient-6" cx="39.99" cy="35.5" r="8.07" gradientUnits="userSpaceOnUse"><stop offset="0" stop-color="#ff721b"/><stop offset="0.2" stop-color="#f6661c"/><stop offset="0.56" stop-color="#df451e"/><stop offset="1" stop-color="#be1622"/></radialGradient><linearGradient id="linear-gradient-58" x1="-2181.9" y1="-1490.98" x2="-2180.37" y2="-1490.98" gradientTransform="translate(-2597.87 164.54) rotate(142.12)" xlink:href="#linear-gradient"/><linearGradient id="linear-gradient-59" x1="-1850.08" y1="-1647.87" x2="-1849.04" y2="-1647.87" gradientTransform="translate(-2393.6 476.97) rotate(127.24)" xlink:href="#linear-gradient"/><linearGradient id="linear-gradient-60" x1="-1338.16" y1="-1724.19" x2="-1337.39" y2="-1724.19" gradientTransform="translate(-1997.68 791.99) rotate(106.58)" xlink:href="#linear-gradient"/><linearGradient id="linear-gradient-61" x1="-1992.91" y1="-1588.12" x2="-1992.4" y2="-1588.12" gradientTransform="translate(-2487.58 357.92) rotate(133.42)" xlink:href="#linear-gradient"/><linearGradient id="linear-gradient-62" x1="-1783.68" y1="-1682.76" x2="-1782.7" y2="-1682.76" gradientTransform="translate(-2351.6 547.73) rotate(123.85)" xlink:href="#linear-gradient"/><linearGradient id="linear-gradient-63" x1="-1782.34" y1="-1683.91" x2="-1781.17" y2="-1683.91" gradientTransform="translate(-2351.6 547.73) rotate(123.85)" xlink:href="#linear-gradient"/><linearGradient id="linear-gradient-64" x1="533.94" y1="-285.7" x2="535.13" y2="-285.7" gradientTransform="matrix(0.87, 0.49, 0.49, -0.87, -283.5, -510.22)" xlink:href="#linear-gradient"/><linearGradient id="linear-gradient-65" x1="351.06" y1="159" x2="352.25" y2="159" gradientTransform="matrix(0.64, 0.77, 0.77, -0.64, -305.87, -163.79)" xlink:href="#linear-gradient"/><linearGradient id="linear-gradient-66" x1="350.26" y1="160.82" x2="350.94" y2="160.82" gradientTransform="matrix(0.64, 0.77, 0.77, -0.64, -305.87, -163.79)" xlink:href="#linear-gradient"/><linearGradient id="linear-gradient-67" x1="55.52" y1="509.76" x2="56.2" y2="509.76" gradientTransform="matrix(0.34, 0.94, 0.94, -0.34, -454.99, 124.5)" xlink:href="#linear-gradient"/><linearGradient id="linear-gradient-68" x1="252.42" y1="303.98" x2="252.95" y2="303.98" gradientTransform="matrix(0.53, 0.85, 0.85, -0.53, -348.11, -48.7)" xlink:href="#linear-gradient"/><linearGradient id="linear-gradient-69" x1="410.38" y1="42.3" x2="410.75" y2="42.3" gradientTransform="matrix(0.72, 0.7, 0.7, -0.72, -278.62, -253.04)" xlink:href="#linear-gradient"/><linearGradient id="linear-gradient-70" x1="408.57" y1="40.82" x2="408.95" y2="40.82" gradientTransform="matrix(0.72, 0.7, 0.7, -0.72, -278.62, -253.04)" xlink:href="#linear-gradient"/><linearGradient id="linear-gradient-71" x1="102.33" y1="441.69" x2="103.28" y2="441.69" gradientTransform="matrix(0.39, 0.92, 0.92, -0.39, -404.57, 85.97)" xlink:href="#linear-gradient"/><linearGradient id="linear-gradient-72" x1="103.58" y1="440.22" x2="104.2" y2="440.22" gradientTransform="matrix(0.39, 0.92, 0.92, -0.39, -404.57, 85.97)" xlink:href="#linear-gradient"/></defs><g class="cls-1"><g id="Layer_2" data-name="Layer 2"><g id="Layer_2-2" data-name="Layer 2"><path class="cls-2" d="M48.21,59.55a5.06,5.06,0,0,0,6.88-1.95c1.36-2.43,3.58-11.06,1.15-12.42s-8.61,5.06-10,7.5A5.05,5.05,0,0,0,48.21,59.55Z"/><path class="cls-3" d="M48.62,58.5a4.12,4.12,0,0,0,5.61-1.59c1.12-2,2.93-9,.94-10.14s-7,4.13-8.14,6.12A4.12,4.12,0,0,0,48.62,58.5Z"/><path class="cls-4" d="M57.28,49.43A10.51,10.51,0,0,0,57.22,47a22.58,22.58,0,0,1-11.38,9.64,5.15,5.15,0,0,0,.79,1.57A22.25,22.25,0,0,0,57.28,49.43Z"/><path class="cls-2" d="M32,59.55a5,5,0,0,1-6.87-1.95c-1.36-2.43-3.58-11.06-1.15-12.42s8.61,5.06,10,7.5A5,5,0,0,1,32,59.55Z"/><path class="cls-3" d="M31.55,58.5a4.13,4.13,0,0,1-5.62-1.59c-1.11-2-2.92-9-.93-10.14s7,4.13,8.14,6.12A4.12,4.12,0,0,1,31.55,58.5Z"/><path class="cls-4" d="M22.89,49.43A10.51,10.51,0,0,1,23,47a22.54,22.54,0,0,0,11.38,9.64,5.15,5.15,0,0,1-.79,1.57A22.25,22.25,0,0,1,22.89,49.43Z"/><circle class="cls-5" cx="69.38" cy="57.19" r="1.23"/><path class="cls-6" d="M73.69,57.31a1.23,1.23,0,1,1-1.23-1.22A1.23,1.23,0,0,1,73.69,57.31Z"/><path class="cls-7" d="M76.48,56.36a1.23,1.23,0,1,1-1.23-1.23A1.23,1.23,0,0,1,76.48,56.36Z"/><path class="cls-8" d="M78.94,54.41a1.23,1.23,0,1,1-1.23-1.23A1.23,1.23,0,0,1,78.94,54.41Z"/><circle class="cls-9" cx="78.94" cy="51.57" r="1.23"/><path class="cls-2" d="M73.67,57c19.13-6.85-18.92-40.73-24-37.56-3.27,2,7.45,9.57,9.27,19.42C60,44.81,64.48,60.31,73.67,57Z"/><path class="cls-3" d="M72.12,54c16.07-5.76-15.88-34.2-20.18-31.55-2.74,1.7,6.26,8,7.79,16.31C60.65,43.77,64.4,56.8,72.12,54Z"/><path class="cls-10" d="M61.5,46.71c-.16-.7.79-1.58.79-1.58l.52.25A2.28,2.28,0,0,0,61.5,46.71Z"/><path class="cls-11" d="M63.71,45.07c-.4-.6.18-1.77.18-1.77l.57.06A2.31,2.31,0,0,0,63.71,45.07Z"/><path class="cls-12" d="M64.23,37.55c.09-.72,1.29-1.22,1.29-1.22l.4.42A2.29,2.29,0,0,0,64.23,37.55Z"/><path class="cls-13" d="M65.28,41.29c-.69-.24-.94-1.51-.94-1.51l.49-.3A2.25,2.25,0,0,0,65.28,41.29Z"/><path class="cls-14" d="M61.44,44.19c-.29-.66.47-1.71.47-1.71l.56.15A2.28,2.28,0,0,0,61.44,44.19Z"/><path class="cls-15" d="M62.71,49.36c-.06-.72,1-1.46,1-1.46l.48.32A2.29,2.29,0,0,0,62.71,49.36Z"/><path class="cls-16" d="M64.65,50c-.35-.63.31-1.75.31-1.75l.57.1A2.29,2.29,0,0,0,64.65,50Z"/><path class="cls-17" d="M66.21,53.79c-.13-.71.86-1.55.86-1.55l.5.28A2.26,2.26,0,0,0,66.21,53.79Z"/><path class="cls-18" d="M67.57,46.81c-.69-.19-1-1.45-1-1.45L67,45A2.27,2.27,0,0,0,67.57,46.81Z"/><path class="cls-19" d="M73.7,41c0-.72-1.22-1.28-1.22-1.28l-.42.4A2.24,2.24,0,0,1,73.7,41Z"/><path class="cls-20" d="M76.18,43.34c-.47-.55-1.75-.31-1.75-.31l-.1.57A2.29,2.29,0,0,1,76.18,43.34Z"/><path class="cls-21" d="M70.12,39c-.1-.72-1.3-1.22-1.3-1.22l-.39.43A2.26,2.26,0,0,1,70.12,39Z"/><path class="cls-22" d="M68.18,43.59c-.1-.72-1.3-1.21-1.3-1.21l-.39.42A2.27,2.27,0,0,1,68.18,43.59Z"/><path class="cls-23" d="M71.74,46.68C72,46,71.14,45,71.14,45l-.55.2A2.25,2.25,0,0,1,71.74,46.68Z"/><path class="cls-24" d="M70.21,50.15c.07-.72-1-1.49-1-1.49l-.48.32A2.28,2.28,0,0,1,70.21,50.15Z"/><path class="cls-25" d="M71.85,42.48c-.47-.55-1.75-.33-1.75-.33l-.1.57A2.28,2.28,0,0,1,71.85,42.48Z"/><path class="cls-26" d="M77.36,47.7c0-.72-1.19-1.31-1.19-1.31l-.43.39A2.27,2.27,0,0,1,77.36,47.7Z"/><path class="cls-27" d="M75.59,50.61c.13-.71-.87-1.55-.87-1.55l-.5.28A2.3,2.3,0,0,1,75.59,50.61Z"/><path class="cls-28" d="M73.83,52.91c0-.72-1.17-1.34-1.17-1.34l-.43.38A2.28,2.28,0,0,1,73.83,52.91Z"/><path class="cls-29" d="M70.89,55.45c.54-.48.29-1.75.29-1.75l-.57-.09A2.28,2.28,0,0,1,70.89,55.45Z"/><path class="cls-30" d="M69.8,33.65c-.49-.53-1.75-.25-1.75-.25L68,34A2.3,2.3,0,0,1,69.8,33.65Z"/><path class="cls-31" d="M66.49,33.36c0-.72-1.22-1.29-1.22-1.29l-.42.39A2.29,2.29,0,0,1,66.49,33.36Z"/><circle class="cls-32" cx="10.79" cy="57.19" r="1.23"/><path class="cls-33" d="M6.48,57.31A1.23,1.23,0,1,0,7.7,56.09,1.23,1.23,0,0,0,6.48,57.31Z"/><path class="cls-34" d="M3.68,56.36a1.23,1.23,0,1,0,1.23-1.23A1.24,1.24,0,0,0,3.68,56.36Z"/><path class="cls-35" d="M1.23,54.41a1.23,1.23,0,1,0,1.23-1.23A1.23,1.23,0,0,0,1.23,54.41Z"/><circle class="cls-36" cx="1.23" cy="51.57" r="1.23"/><path class="cls-2" d="M6.5,57c-19.13-6.85,18.92-40.73,24-37.56,3.27,2-7.45,9.57-9.27,19.42C20.16,44.81,15.69,60.31,6.5,57Z"/><path class="cls-3" d="M8,54C-8,48.27,23.93,19.83,28.22,22.48c2.75,1.7-6.25,8-7.78,16.31C19.52,43.77,15.77,56.8,8,54Z"/><path class="cls-37" d="M18.67,46.71c.16-.7-.79-1.58-.79-1.58l-.52.25A2.28,2.28,0,0,1,18.67,46.71Z"/><path class="cls-38" d="M16.46,45.07c.4-.6-.18-1.77-.18-1.77l-.58.06A2.3,2.3,0,0,1,16.46,45.07Z"/><path class="cls-39" d="M15.94,37.55c-.1-.72-1.29-1.22-1.29-1.22l-.4.42A2.29,2.29,0,0,1,15.94,37.55Z"/><path class="cls-40" d="M14.89,41.29c.68-.24.94-1.51.94-1.51l-.49-.3A2.29,2.29,0,0,1,14.89,41.29Z"/><path class="cls-41" d="M18.73,44.19c.29-.66-.47-1.71-.47-1.71l-.56.15A2.28,2.28,0,0,1,18.73,44.19Z"/><path class="cls-42" d="M17.46,49.36c.06-.72-1-1.46-1-1.46l-.48.32A2.29,2.29,0,0,1,17.46,49.36Z"/><path class="cls-43" d="M15.52,50c.35-.63-.31-1.75-.31-1.75l-.57.1A2.29,2.29,0,0,1,15.52,50Z"/><path class="cls-44" d="M14,53.79c.13-.71-.86-1.55-.86-1.55l-.5.28A2.26,2.26,0,0,1,14,53.79Z"/><path class="cls-45" d="M12.6,46.81c.69-.19,1-1.45,1-1.45L13.13,45A2.27,2.27,0,0,1,12.6,46.81Z"/><path class="cls-46" d="M6.46,41c.06-.72,1.23-1.28,1.23-1.28l.42.4A2.27,2.27,0,0,0,6.46,41Z"/><path class="cls-47" d="M4,43.34c.47-.55,1.75-.31,1.75-.31l.1.57A2.29,2.29,0,0,0,4,43.34Z"/><path class="cls-48" d="M10.05,39c.09-.72,1.29-1.22,1.29-1.22l.4.43A2.26,2.26,0,0,0,10.05,39Z"/><path class="cls-49" d="M12,43.59c.1-.72,1.3-1.21,1.3-1.21l.39.42A2.26,2.26,0,0,0,12,43.59Z"/><path class="cls-50" d="M8.43,46.68C8.19,46,9,45,9,45l.55.2A2.25,2.25,0,0,0,8.43,46.68Z"/><path class="cls-51" d="M10,50.15c-.08-.72,1-1.49,1-1.49l.49.32A2.28,2.28,0,0,0,10,50.15Z"/><path class="cls-52" d="M8.32,42.48c.46-.55,1.74-.33,1.74-.33l.11.57A2.28,2.28,0,0,0,8.32,42.48Z"/><path class="cls-53" d="M2.81,47.7C2.85,47,4,46.39,4,46.39l.43.39A2.27,2.27,0,0,0,2.81,47.7Z"/><path class="cls-54" d="M4.58,50.61c-.13-.71.86-1.55.86-1.55l.51.28A2.27,2.27,0,0,0,4.58,50.61Z"/><path class="cls-55" d="M6.34,52.91c0-.72,1.16-1.34,1.16-1.34l.44.38A2.28,2.28,0,0,0,6.34,52.91Z"/><path class="cls-56" d="M9.28,55.45C8.74,55,9,53.7,9,53.7l.57-.09A2.28,2.28,0,0,0,9.28,55.45Z"/><path class="cls-57" d="M10.37,33.65c.48-.53,1.75-.25,1.75-.25l.08.57A2.27,2.27,0,0,0,10.37,33.65Z"/><path class="cls-58" d="M13.68,33.36c.05-.72,1.22-1.29,1.22-1.29l.42.39A2.29,2.29,0,0,0,13.68,33.36Z"/><path class="cls-2" d="M63.07,28.26C63.07,42.77,54.49,57.7,40,57.7S16.91,42.77,16.91,28.26,25.49,2,40,2,63.07,13.76,63.07,28.26Z"/><path class="cls-3" d="M60.12,26.45c0,12.64-7.48,22.89-20.13,22.89S19.86,39.09,19.86,26.45,27.34,3.55,40,3.55,60.12,13.8,60.12,26.45Z"/><rect class="cls-59" x="26.77" y="26.37" width="26.43" height="14.48" rx="6.7"/><path class="cls-60" d="M61.77,26.07c0,8-9.71,14.47-21.69,14.47S18.4,34.06,18.4,26.07,28.11,11.6,40.08,11.6,61.77,18.08,61.77,26.07Z"/><path class="cls-2" d="M29,20.26a3.65,3.65,0,1,1-3.65-3.65A3.64,3.64,0,0,1,29,20.26Z"/><path class="cls-61" d="M28.29,20.26a2.95,2.95,0,1,1-2.95-3A2.95,2.95,0,0,1,28.29,20.26Z"/><path class="cls-62" d="M26.93,20.26a1.59,1.59,0,1,1-1.59-1.59A1.59,1.59,0,0,1,26.93,20.26Z"/><path class="cls-63" d="M26.08,20.26a.74.74,0,1,1-.74-.74A.74.74,0,0,1,26.08,20.26Z"/><path class="cls-64" d="M26.23,19.47a.8.8,0,0,1-.89.68.79.79,0,0,1-.88-.68.79.79,0,0,1,.88-.67C25.83,18.8,26.23,19.1,26.23,19.47Z"/><path class="cls-2" d="M58.47,20.26a3.65,3.65,0,1,1-3.64-3.65A3.64,3.64,0,0,1,58.47,20.26Z"/><circle class="cls-65" cx="54.83" cy="20.26" r="2.95"/><path class="cls-66" d="M56.41,20.26a1.59,1.59,0,1,1-1.58-1.59A1.58,1.58,0,0,1,56.41,20.26Z"/><path class="cls-63" d="M55.57,20.26a.74.74,0,0,1-.74.74.74.74,0,1,1,0-1.48A.74.74,0,0,1,55.57,20.26Z"/><ellipse class="cls-67" cx="54.83" cy="19.47" rx="0.88" ry="0.68"/><rect class="cls-68" x="26.77" y="26.07" width="26.43" height="14.48" rx="6.7"/><path class="cls-69" d="M29.75,39.42a6.7,6.7,0,0,0,3.73,1.13h13a6.72,6.72,0,0,0,3.73-1.13,10.33,10.33,0,0,0-20.48,0Z"/><path class="cls-3" d="M44.71,34.84c0,1.61-2.11,2.91-4.72,2.91s-4.72-1.3-4.72-2.91,2.11-2.9,4.72-2.9S44.71,33.24,44.71,34.84Z"/><path class="cls-70" d="M33.54,26.07h0v1.05a1.73,1.73,0,1,0,3.46,0V26.08H33.54Z"/><path class="cls-59" d="M33.81,26.07h0V27a1.46,1.46,0,0,0,2.92,0v-.88H33.81Z"/><rect class="cls-71" x="33.54" y="26.07" width="3.46" height="1.02"/><path class="cls-70" d="M38.35,26.07h0v1.05a1.74,1.74,0,0,0,3.47,0V26.08H38.35Z"/><path class="cls-59" d="M38.62,26.07h0V27a1.46,1.46,0,0,0,2.92,0v-.88H38.62Z"/><rect class="cls-71" x="38.35" y="26.07" width="3.46" height="1.02"/><path class="cls-70" d="M43.17,26.07h0v1.05a1.74,1.74,0,0,0,3.47,0V26.08H43.17Z"/><path class="cls-59" d="M43.44,26.07h0V27a1.46,1.46,0,0,0,2.92,0v-.88H43.44Z"/><rect class="cls-71" x="43.17" y="26.07" width="3.46" height="1.02"/><path class="cls-72" d="M38.38.57C39.75.88,40.5,3.3,40.5,3.3L39.62,4A4.44,4.44,0,0,0,38.38.57Z"/><path class="cls-73" d="M36.84.92c.95,0,1.87,1.42,1.87,1.42L38.25,3A3,3,0,0,0,36.84.92Z"/><path class="cls-74" d="M35.79,1.52c.66-.28,1.68.5,1.68.5l-.16.55A2.24,2.24,0,0,0,35.79,1.52Z"/><path class="cls-75" d="M35.29,1.84c.47,0,.84.8.84.8l-.26.27A1.49,1.49,0,0,0,35.29,1.84Z"/><path class="cls-76" d="M38.38,3.27c.9-.08,1.85,1.24,1.85,1.24l-.41.6A2.86,2.86,0,0,0,38.38,3.27Z"/><path class="cls-77" d="M38.38,5c1.07-.1,2.2,1.47,2.2,1.47l-.48.72A3.41,3.41,0,0,0,38.38,5Z"/><path class="cls-78" d="M42,0C41,.4,40.7,2.35,40.7,2.35l.76.43A3.46,3.46,0,0,1,42,0Z"/><path class="cls-79" d="M42.58,2.78c-1.1,0-2.08,1.74-2.08,1.74l.57.67A3.46,3.46,0,0,1,42.58,2.78Z"/><path class="cls-80" d="M42.92,1.28c-.62,0-1.17,1-1.17,1l.32.38A1.94,1.94,0,0,1,42.92,1.28Z"/><path class="cls-81" d="M44,3.15c-.59-.21-1.44.52-1.44.52l.17.47A1.94,1.94,0,0,1,44,3.15Z"/><path class="cls-82" d="M44.32,2c-.48-.06-1,.64-1,.64l.21.33A1.52,1.52,0,0,1,44.32,2Z"/><path class="cls-83" d="M45.55,2.37C45.21,2.41,45,3,45,3l.2.19A1.11,1.11,0,0,1,45.55,2.37Z"/><path class="cls-84" d="M43.22,2.18c-.34,0-.59.61-.59.61l.2.2A1.1,1.1,0,0,1,43.22,2.18Z"/><path class="cls-85" d="M42.74,5.41c-.84-.24-2,.85-2,.85l.28.65A2.75,2.75,0,0,1,42.74,5.41Z"/><path class="cls-86" d="M41.51,7.21c-.55-.15-1.28.56-1.28.56l.18.41A1.77,1.77,0,0,1,41.51,7.21Z"/></g></g></g></svg>