<svg xmlns="http://www.w3.org/2000/svg" xmlns:xlink="http://www.w3.org/1999/xlink" viewBox="0 0 750 500" xmlns:v="https://vecta.io/nano"><g fill="#fff"><ellipse transform="matrix(.7071 -.7071 .7071 .7071 179.688 520.5334)" cx="718.2" cy="43.4" rx=".6" ry=".7"/><use xlink:href="#B"/><use xlink:href="#C"/><use xlink:href="#D"/><use xlink:href="#E"/><use xlink:href="#C" x="-99.3" y="-42.1"/><use xlink:href="#E" x="-81.3" y="62.1"/><use xlink:href="#E" x="-20.4" y="90.1"/><use xlink:href="#D" x="85" y="77.2"/><use xlink:href="#F"/><use xlink:href="#G"/><use xlink:href="#E" x="179.9" y="38.6"/><use xlink:href="#E" x="208.2" y="113.3"/><use xlink:href="#H"/><use xlink:href="#E" x="219.2" y="107.1"/><use xlink:href="#C" x="121.5" y="200.4"/><ellipse transform="matrix(.7071 -.7071 .7071 .7071 34.2537 550.7382)" cx="681.9" cy="234" rx=".6" ry=".7"/><use xlink:href="#C" x="89.3" y="182.5"/><use xlink:href="#F" x="-84.5" y="93.6"/><use xlink:href="#D" x="50.4" y="122.9"/><use xlink:href="#H" x="-128.8" y="33.2"/><use xlink:href="#E" x="-199.4" y="42.5"/><use xlink:href="#H" x="-516.6" y="-84.1"/><use xlink:href="#C" x="-415.2" y="9.6"/><use xlink:href="#C" x="-413.3" y="40.9"/><use xlink:href="#H" x="-605.7" y="-33.6"/><ellipse transform="matrix(.7071 -.7071 .7071 .7071 -25.9455 118.5844)" cx="130.2" cy="90.6" rx=".6" ry=".7"/><use xlink:href="#E" x="-415.5" y="29.1"/><use xlink:href="#G" x="-609.8" y="-32.9"/><use xlink:href="#C" x="-530.9" y="7.8"/><use xlink:href="#E" x="-514.5" y="105.3"/><use xlink:href="#C" x="-530.6" y="104.7"/><use xlink:href="#E" x="-444.5" y="169.5"/><use xlink:href="#E" x="-439.5" y="185.4"/><use xlink:href="#C" x="-537.1" y="183.3"/><use xlink:href="#B" x="-567.8" y="200.4"/><use xlink:href="#C" x="-450.1" y="127.3"/><use xlink:href="#E" x="-434.4" y="207.5"/><use xlink:href="#B" x="-492.8" y="188.5"/><use xlink:href="#E" x="-467.3" y="245.2"/><use xlink:href="#G" x="-642.9" y="193.8"/><use xlink:href="#H" x="-692.2" y="114.8"/><use xlink:href="#H" x="-722.3" y="80.7"/><use xlink:href="#H" x="-732.3" y="61.2"/><use xlink:href="#E" x="-493.8" y="253"/><use xlink:href="#E" x="-485.3" y="271.9"/><use xlink:href="#C" x="-495.3" y="247.3"/><use xlink:href="#E" x="-495.8" y="312.6"/><use xlink:href="#F" x="-649.9" y="197.5"/><use xlink:href="#C" x="-546.5" y="174.4"/><use xlink:href="#E" x="-525.6" y="167.2"/><use xlink:href="#E" x="-533.9" y="113.5"/><use xlink:href="#E" x="-540.4" y="66.9"/><use xlink:href="#C" x="-536.5" y="-22.5"/><use xlink:href="#C" x="-395.5" y="-17.3"/><use xlink:href="#C" x="-347.6" y="4"/><use xlink:href="#E" x="-235.6" y="30"/><use xlink:href="#E" x="-178.8" y="17.7"/><use xlink:href="#E" x="-150.3" y="16.8"/><use xlink:href="#E" x="-104.8" y="40.2"/><use xlink:href="#E" x="-137.8" y="81.5"/><use xlink:href="#F" x="-264.2" y="-5.4"/><use xlink:href="#C" x="-68.8" y="37.6"/><use xlink:href="#C" x="-46.4" y="48.3"/><use xlink:href="#C" x="117.5" y="127.5"/><use xlink:href="#D" x="151.5" y="136.5"/><use xlink:href="#F" x="80.7" y="57.2"/><use xlink:href="#C" x="185.5" y="49.8"/><use xlink:href="#C" x="185.7" y="2.2"/><use xlink:href="#E" x="220" y="39.5"/><use xlink:href="#E" x="96.1" y="148.9"/><use xlink:href="#E" x="-63.4" y="179.6"/><use xlink:href="#E" x="-129.6" y="183.6"/><use xlink:href="#E" x="-202.2" y="187.4"/><use xlink:href="#B" x="-325.6" y="148.1"/><ellipse transform="matrix(.7071 -.7071 .7071 .7071 -85.5367 230.0034)" cx="234.9" cy="218.3" rx=".6" ry=".7"/><use xlink:href="#E" x="-321.1" y="251.4"/><use xlink:href="#H" x="-519.1" y="148"/><use xlink:href="#H" x="-314.3" y="156.3"/><use xlink:href="#E" x="-49.8" y="276.5"/><use xlink:href="#F" x="-151.3" y="186.3"/><use xlink:href="#H" x="-117.8" y="67.3"/><use xlink:href="#E" x="69.4" y="222.7"/><use xlink:href="#E" x="24.9" y="247.6"/><use xlink:href="#E" x="-21.6" y="258.5"/><use xlink:href="#E" x="-57.1" y="271.4"/><use xlink:href="#C" x="-96.3" y="267.9"/><use xlink:href="#E" x="-92" y="336.3"/><use xlink:href="#E" x="-148.1" y="351.8"/><use xlink:href="#E" x="-169.4" y="362.4"/><use xlink:href="#C" x="-240.7" y="281.9"/><use xlink:href="#C" x="-231.7" y="256.5"/><use xlink:href="#C" x="-235.6" y="236.7"/><use xlink:href="#E" x="-212.7" y="249.9"/><use xlink:href="#C" x="-127.5" y="200.2"/><use xlink:href="#C" x="-162.4" y="285.6"/><use xlink:href="#E" x="-9.4" y="358.3"/><use xlink:href="#B" x="56" y="314.9"/><use xlink:href="#E" x="53" y="237"/><use xlink:href="#F" x="-12.2" y="180"/><use xlink:href="#I"/><use xlink:href="#E" x="149.8" y="341.6"/><use xlink:href="#E" x="147.4" y="350.5"/><use xlink:href="#B" x="66.3" y="255.9"/><use xlink:href="#E" x="162.2" y="371.5"/><use xlink:href="#H" x="-49.6" y="262.5"/><ellipse transform="matrix(.7071 -.7071 .7071 .7071 45.0091 580.2216)" cx="722.9" cy="235.8" rx=".6" ry=".7"/><ellipse transform="matrix(.7071 -.7071 .7071 .7071 64.2342 563.1286)" cx="711.9" cy="204" rx=".6" ry=".7"/><use xlink:href="#F" x="54.5" y="203.4"/><use xlink:href="#C" x="149.2" y="349"/><use xlink:href="#I" x="29.2" y="77.6"/><use xlink:href="#E" x="36.5" y="337.4"/><use xlink:href="#C" x="-1.4" y="272.8"/><use xlink:href="#E" x="71.4" y="411.2"/><use xlink:href="#E" x="126.5" y="435.5"/><use xlink:href="#F" x="32.4" y="360.5"/><ellipse transform="matrix(.7071 -.7071 .7071 .7071 -138.6654 583.1575)" cx="634.6" cy="459" rx=".6" ry=".7"/><use xlink:href="#E" x="-3.3" y="414.4"/><use xlink:href="#E" x="5.6" y="437.6"/><use xlink:href="#C" x="48.1" y="202.2"/><use xlink:href="#E" x="19.5" y="272.9"/><use xlink:href="#E" x="87.4" y="258.5"/><use xlink:href="#E" x="195.9" y="235.7"/><use xlink:href="#F" x="106.8" y="240.6"/><use xlink:href="#C" x="184.8" y="343.6"/><use xlink:href="#H" x="-47.6" y="280.1"/><ellipse transform="matrix(.7071 -.7071 .7071 .7071 -57.9487 585.0594)" cx="677.3" cy="362.5" rx=".6" ry=".7"/><use xlink:href="#C" x="139.9" y="455.9"/><use xlink:href="#I" x="-227.2" y="93.6"/><use xlink:href="#C" x="-183.1" y="358.6"/><use xlink:href="#G" x="-241.3" y="393.1"/><use xlink:href="#E" x="-102.7" y="373.2"/><use xlink:href="#F" x="-300.1" y="335.2"/><use xlink:href="#C" x="-118.5" y="340.7"/><use xlink:href="#E" x="-316.4" y="421"/><use xlink:href="#F" x="-447.7" y="397.7"/><use xlink:href="#E" x="-236.8" y="421.5"/><use xlink:href="#C" x="-421.6" y="404.5"/><use xlink:href="#G" x="-519" y="312.8"/><use xlink:href="#C" x="-399" y="224"/><use xlink:href="#E" x="-483.2" y="361.6"/><ellipse transform="matrix(.7071 -.7071 .7071 .7071 -311.8014 155.9837)" cx="32.4" cy="454.4" rx=".6" ry=".7"/><use xlink:href="#E" x="-522.9" y="462.3"/><use xlink:href="#F" x="-669.3" y="268.3"/><use xlink:href="#F" x="-641.4" y="249.3"/><use xlink:href="#E" x="-461.6" y="444.1"/><use xlink:href="#E" x="-365.4" y="370.1"/><use xlink:href="#G" x="-582.6" y="261.7"/><use xlink:href="#I" x="-536.8" y="-198.1"/><use xlink:href="#I" x="-437.8" y="-246.5"/><use xlink:href="#H" x="-467.8" y="3.6"/><use xlink:href="#F" x="-430" y="68.1"/><use xlink:href="#E" x="-97.3" y="84"/><use xlink:href="#H" x="-214.8" y="40.6"/><use xlink:href="#E" x="-34.4" y="202.7"/><use xlink:href="#F" x="-298.9" y="-11.5"/><use xlink:href="#C" x="-170.6" y="110.9"/><use xlink:href="#H" x="-228.6" y="-3.1"/><use xlink:href="#C" x="-18.7" y="87.3"/><use xlink:href="#F" x="-75.1" y="-47.9"/><use xlink:href="#E" x="24.4" y="60"/><use xlink:href="#E" x="66.5" y="102.2"/><use xlink:href="#E" x="75.5" y="101.2"/><use xlink:href="#E" x="97.6" y="50.9"/><use xlink:href="#E" x="46.7" y="103.5"/><use xlink:href="#H" x="-134.7" y="-22.6"/><use xlink:href="#E" x="48.7" y="94.5"/><use xlink:href="#H" x="-90.5" y="-82.2"/><use xlink:href="#E" x="107.7" y="53"/><use xlink:href="#C" x="152" y="54.4"/><ellipse transform="matrix(.7071 -.7071 .7071 .7071 89.2499 516.9523)" cx="668.6" cy="150.7" rx=".6" ry=".7"/><use xlink:href="#E" x="123.9" y="98"/><use xlink:href="#E" x="134.4" y="86.7"/><use xlink:href="#F" x="4.8" y="33.1"/><use xlink:href="#H" x="-16" y="-6.8"/><use xlink:href="#F" x="43.6" y="-38.2"/><ellipse transform="matrix(.7071 -.7071 .7071 .7071 132.1447 521.3542)" cx="695.4" cy="101.2" rx=".6" ry=".7"/><use xlink:href="#E" x="214.6" y="56.3"/><use xlink:href="#E" x="202.3" y="26.3"/><use xlink:href="#G" x="39.3" y="7"/><ellipse transform="matrix(.7071 -.7071 .7071 .7071 122.3344 579.3163)" cx="760.5" cy="142" rx=".6" ry=".7"/><use xlink:href="#C" x="111.2" y="56.9"/><use xlink:href="#F" x="14.5" y="-102.9"/><use xlink:href="#C" x="66.1" y="-41.5"/><use xlink:href="#G" x="-69.9" y="-37.7"/><use xlink:href="#E" x="128.1" y="-0.6"/><use xlink:href="#C" x="103.8" y="10.8"/><use xlink:href="#J"/><use xlink:href="#E" x="210.8" y="14.1"/><use xlink:href="#E" x="249" y="18.7"/><use xlink:href="#E" x="215.8" y="9.5"/><use xlink:href="#H" x="33.3" y="-65.6"/><use xlink:href="#F" x="123.7" y="89.3"/><use xlink:href="#E" x="248" y="199.2"/><use xlink:href="#F" x="137.6" y="171.6"/><use xlink:href="#E" x="260.4" y="285"/><use xlink:href="#C" x="155.1" y="116.3"/><use xlink:href="#E" x="179.6" y="200.9"/><use xlink:href="#E" x="151.2" y="102"/><use xlink:href="#F" x="-57.5" y="-52"/><use xlink:href="#I" x="-153.8" y="-336.3"/><use xlink:href="#E" x="-27.3" y="32.5"/><use xlink:href="#B" x="-98.9" y="49.9"/><use xlink:href="#E" x="-27.2" y="62.4"/><use xlink:href="#E" x="-48.9" y="43"/><use xlink:href="#H" x="-355.8" y="-98.9"/><use xlink:href="#F" x="-232.2" y="-43.1"/><use xlink:href="#C" x="-233.7" y="21.4"/><use xlink:href="#E" x="-198.5" y="105.2"/><use xlink:href="#H" x="-490.8" y="-26.7"/><use xlink:href="#H" x="-434.6" y="-100.3"/><ellipse transform="matrix(.7071 -.7071 .7071 .7071 18.461 205.5489)" cx="257.4" cy="80.5" rx=".6" ry=".7"/><use xlink:href="#C" x="-296.2" y="33.8"/><use xlink:href="#J" x="-466.9" y="20.8"/><use xlink:href="#C" x="-266.8" y="9"/><use xlink:href="#F" x="-406.3" y="-90.6"/><use xlink:href="#E" x="-358.2" y="24.3"/><use xlink:href="#C" x="-385.1" y="-16.4"/><use xlink:href="#C" x="-425.1" y="-35.2"/><use xlink:href="#E" x="-458.6" y="70.2"/><use xlink:href="#C" x="-431.9" y="48.1"/><use xlink:href="#C" x="-511.8" y="75.2"/><use xlink:href="#G" x="-654.6" y="94"/><use xlink:href="#E" x="-437.2" y="6.5"/><use xlink:href="#E" x="-464.3" y="83.2"/><use xlink:href="#C" x="-488.9" y="57.5"/><use xlink:href="#F" x="-614.8" y="90.5"/><use xlink:href="#H" x="-717.4" y="28.5"/><use xlink:href="#C" x="-583.4" y="0.4"/><use xlink:href="#E" x="-560.2" y="24.6"/><use xlink:href="#E" x="-561.8" y="142.7"/><use xlink:href="#E" x="-559.6" y="134.1"/><use xlink:href="#C" x="-567.3" y="236.6"/><use xlink:href="#E" x="-525.3" y="243.2"/><use xlink:href="#E" x="-539.3" y="260.4"/><use xlink:href="#E" x="-586.9" y="320.9"/><use xlink:href="#C" x="-616.5" y="181.6"/><use xlink:href="#C" x="-611.8" y="342.4"/><use xlink:href="#F" x="-713.4" y="224"/><use xlink:href="#C" x="-581.9" y="386.8"/><use xlink:href="#E" x="-509.8" y="411.1"/><use xlink:href="#E" x="-458.2" y="307.5"/><use xlink:href="#C" x="-502.1" y="249.3"/><use xlink:href="#E" x="-507" y="321.1"/><use xlink:href="#E" x="-468.8" y="390.2"/><use xlink:href="#F" x="-614.8" y="286"/><use xlink:href="#C" x="-519.9" y="278.3"/><use xlink:href="#B" x="-406.3" y="135.3"/><use xlink:href="#C" x="-394.4" y="133.8"/><use xlink:href="#D" x="-361.2" y="113.9"/><use xlink:href="#C" x="-323.7" y="119.7"/><use xlink:href="#I" x="-455.2" y="-111.5"/><use xlink:href="#E" x="-288.6" y="195.1"/><ellipse transform="matrix(.7071 -.7071 .7071 .7071 -83.1905 213.3403)" cx="215.9" cy="207.1" rx=".6" ry=".7"/><use xlink:href="#C" x="-135.8" y="78.8"/><use xlink:href="#F" x="-301" y="61.9"/><use xlink:href="#F" x="-191.5" y="54.3"/><use xlink:href="#E" x="-137.6" y="150.5"/><use xlink:href="#F" x="-56.8" y="108"/><use xlink:href="#E" x="42.4" y="210.3"/><use xlink:href="#C" x="80.8" y="177.4"/><use xlink:href="#C" x="91.4" y="173.1"/><use xlink:href="#C" x="130.2" y="223.3"/><use xlink:href="#H" x="-36.5" y="236.9"/><use xlink:href="#C" x="142.1" y="284.2"/><use xlink:href="#E" x="221.3" y="417.5"/><use xlink:href="#C" x="182.1" y="338"/><use xlink:href="#E" x="213.5" y="431.2"/><use xlink:href="#E" x="209.6" y="430.4"/><use xlink:href="#C" x="29.2" y="359.4"/><use xlink:href="#C" x="28.4" y="353.1"/><use xlink:href="#F" x="-162" y="304.5"/><use xlink:href="#H" x="-257.1" y="318.3"/><use xlink:href="#E" x="38.5" y="442"/><use xlink:href="#E" x="77.2" y="426.7"/><use xlink:href="#E" x="31.7" y="384.9"/><use xlink:href="#F" x="-90.4" y="254.8"/><use xlink:href="#F" x="-137.9" y="261.4"/><use xlink:href="#E" x="50.3" y="398.2"/><use xlink:href="#C" x="74.5" y="322.8"/><use xlink:href="#C" x="14.5" y="333"/><use xlink:href="#C" x="72.5" y="297.3"/><use xlink:href="#E" x="54.2" y="279.6"/><use xlink:href="#E" x="34.1" y="314.1"/><use xlink:href="#C" x="23" y="220.5"/><use xlink:href="#F" x="-36.2" y="247"/><use xlink:href="#E" x="93.7" y="350.8"/><use xlink:href="#I" x="-32" y="-32.2"/><use xlink:href="#E" x="83.1" y="320"/><use xlink:href="#E" x="87.9" y="304.3"/><use xlink:href="#E" x="56.2" y="317.6"/><use xlink:href="#E" x="67.1" y="303.2"/><use xlink:href="#E" x="93.1" y="310.4"/><use xlink:href="#C" x="106" y="286.7"/><use xlink:href="#H" x="-44.9" y="201.9"/><use xlink:href="#C" x="128" y="254.9"/><use xlink:href="#G" x="-17.8" y="248.7"/><use xlink:href="#E" x="169.6" y="300.6"/><use xlink:href="#C" x="176.7" y="224"/><use xlink:href="#E" x="210.4" y="263.7"/><use xlink:href="#E" x="227.7" y="293.8"/><use xlink:href="#E" x="222.3" y="332.2"/><use xlink:href="#F" x="99.5" y="263.6"/><use xlink:href="#C" x="110.3" y="366.1"/><use xlink:href="#E" x="-50" y="354.6"/><use xlink:href="#C" x="-136.6" y="262.5"/><use xlink:href="#H" x="-346.8" y="169.8"/><use xlink:href="#C" x="-190.5" y="204.8"/><use xlink:href="#E" x="-161.8" y="220.4"/><use xlink:href="#F" x="-312.3" y="149.4"/><use xlink:href="#E" x="-106.4" y="229"/><use xlink:href="#F" x="-163" y="128.1"/><use xlink:href="#C" x="-44.4" y="163.8"/><use xlink:href="#H" x="-197.9" y="48.8"/><use xlink:href="#C" x="-53.8" y="166.6"/><use xlink:href="#C" x="-79.1" y="214.5"/><use xlink:href="#C" x="-154.7" y="189.4"/><use xlink:href="#F" x="-324.9" y="109.6"/><use xlink:href="#E" x="-244.3" y="223"/><use xlink:href="#E" x="-245.9" y="216.1"/><use xlink:href="#E" x="-210.1" y="141.9"/><use xlink:href="#E" x="-226.9" y="122"/><use xlink:href="#E" x="-326.1" y="196.7"/><use xlink:href="#H" x="-486" y="151.8"/><use xlink:href="#E" x="-215.3" y="309.2"/><use xlink:href="#G" x="-396.4" y="216.1"/><use xlink:href="#C" x="-301.5" y="245.6"/><use xlink:href="#E" x="-272.7" y="330"/><use xlink:href="#E" x="-252" y="347.6"/><use xlink:href="#B" x="-293.4" y="341.2"/><use xlink:href="#C" x="-310.7" y="346.1"/><use xlink:href="#F" x="-448.7" y="219.5"/><use xlink:href="#F" x="-463.7" y="223.3"/><ellipse transform="matrix(.7071 -.7071 .7071 .7071 -205.3423 209.2461)" cx="149.9" cy="352.5" rx=".6" ry=".7"/><use xlink:href="#C" x="-438.5" y="306.4"/><use xlink:href="#E" x="-370.8" y="363.1"/><use xlink:href="#F" x="-386.1" y="289.5"/><use xlink:href="#E" x="-270.1" y="388.7"/><use xlink:href="#E" x="-336.7" y="340.7"/><use xlink:href="#C" x="-405.8" y="259.3"/><use xlink:href="#F" x="-518.1" y="197.7"/><use xlink:href="#C" x="-382.7" y="182.3"/><use xlink:href="#E" x="-339.2" y="284.8"/><use xlink:href="#E" x="-394.5" y="211.1"/><use xlink:href="#F" x="-530.5" y="125.6"/><use xlink:href="#H" x="-637.4" y="174.8"/><ellipse transform="matrix(.7071 -.7071 .7071 .7071 -187.1497 173.1811)" cx="115.5" cy="312.5" rx=".6" ry=".7"/><use xlink:href="#E" x="-404.6" y="272.6"/><use xlink:href="#C" x="-435.8" y="212.2"/><use xlink:href="#H" x="-632.6" y="133.5"/><use xlink:href="#F" x="-587.3" y="240.7"/><use xlink:href="#E" x="-438.2" y="382.4"/><use xlink:href="#E" x="-424.6" y="391.2"/><use xlink:href="#C" x="-428.6" y="367.7"/><use xlink:href="#E" x="-375" y="416.2"/><use xlink:href="#E" x="-367.9" y="422"/><use xlink:href="#E" x="-360.1" y="442.6"/><use xlink:href="#F" x="-462.1" y="365.8"/><use xlink:href="#E" x="-317.1" y="469.7"/><use xlink:href="#B" x="-298.7" y="434"/><use xlink:href="#E" x="-179.1" y="467.8"/><use xlink:href="#E" x="-129.4" y="477.3"/><use xlink:href="#J" x="-307.7" y="407.9"/><use xlink:href="#I" x="-162.7" y="132.2"/><use xlink:href="#F" x="-115.6" y="392.7"/><use xlink:href="#E" x="61.2" y="486.8"/><use xlink:href="#C" x="120.3" y="438.5"/><use xlink:href="#C" x="159.1" y="439.1"/><use xlink:href="#C" x="186.7" y="438.8"/><ellipse transform="matrix(.7071 -.7071 .7071 .7071 -115.5639 688.2414)" cx="773" cy="483.6" rx=".6" ry=".7"/><use xlink:href="#E" x="262.2" y="406.9"/><use xlink:href="#E" x="262.6" y="382.4"/><use xlink:href="#E" x="151.2" y="346.8"/><use xlink:href="#I" x="-156.5" y="51"/><use xlink:href="#J" x="-314.9" y="346.6"/><use xlink:href="#C" x="-162.5" y="344.6"/><use xlink:href="#F" x="-156.1" y="357.1"/><use xlink:href="#F" x="-131.3" y="296.6"/><use xlink:href="#E" x="-110.3" y="320.8"/><use xlink:href="#F" x="-280.9" y="284.4"/><use xlink:href="#I" x="-166.1" y="-53.4"/><use xlink:href="#I" x="-152.2" y="-22.3"/><use xlink:href="#G" x="-168.1" y="261"/><use xlink:href="#C" x="-93.5" y="226.7"/><use xlink:href="#H" x="-318.5" y="109.1"/><use xlink:href="#F" x="-264.9" y="78.9"/><use xlink:href="#F" x="-248.4" y="90"/><use xlink:href="#F" x="-212.2" y="106.7"/><use xlink:href="#C" x="-106.9" y="169.3"/><use xlink:href="#G" x="-238.7" y="175.3"/><use xlink:href="#C" x="-101" y="140.1"/><use xlink:href="#C" x="-109.1" y="118.9"/><use xlink:href="#C" x="-124.7" y="106.9"/><use xlink:href="#E" x="-106.6" y="133.2"/><use xlink:href="#F" x="-181.1" y="21.9"/><use xlink:href="#C" x="-159.1" y="65.9"/><use xlink:href="#G" x="-309" y="54.4"/><use xlink:href="#C" x="-230.4" y="79.3"/><use xlink:href="#E" x="-231.1" y="173.6"/><use xlink:href="#F" x="-371.5" y="73.7"/><use xlink:href="#H" x="-491.2" y="8.8"/><use xlink:href="#H" x="-551.3" y="-22.2"/><ellipse transform="matrix(.7071 -.7071 .7071 .7071 -1.3155 154.6133)" cx="186" cy="78.9" rx=".6" ry=".7"/><use xlink:href="#C" x="-440.1" y="87.9"/><use xlink:href="#C" x="-453.1" y="97.5"/><use xlink:href="#C" x="-476.7" y="71.6"/><use xlink:href="#C" x="-448.7" y="48.7"/><use xlink:href="#G" x="-608.8" y="-4.2"/><use xlink:href="#C" x="-545" y="23.2"/><ellipse transform="matrix(.7071 -.7071 .7071 .7071 -63.9446 43.4424)" cx="20.5" cy="98.9" rx=".6" ry=".7"/><ellipse transform="matrix(.7071 -.7071 .7071 .7071 -156.7355 28.465)" cx="-44" cy="203.4" rx=".6" ry=".7"/><use xlink:href="#F" x="-691" y="137.1"/><use xlink:href="#E" x="-542.9" y="208.1"/><use xlink:href="#F" x="-694.5" y="193.5"/><use xlink:href="#C" x="-603.2" y="292.5"/><use xlink:href="#E" x="-556.4" y="359.6"/><use xlink:href="#F" x="-668.7" y="235.4"/><use xlink:href="#E" x="-537.5" y="322.7"/><use xlink:href="#E" x="-495.3" y="410.3"/><use xlink:href="#E" x="-530.3" y="427"/><use xlink:href="#C" x="-566.8" y="358.4"/><use xlink:href="#F" x="-537.4" y="345.9"/><use xlink:href="#E" x="-420.3" y="419.3"/><use xlink:href="#D" x="-488.5" y="387.7"/><use xlink:href="#C" x="-487" y="375.8"/><use xlink:href="#E" x="-324.8" y="391.7"/><use xlink:href="#C" x="-319.1" y="316.5"/><use xlink:href="#E" x="-274.7" y="354.5"/><ellipse transform="matrix(.7071 -.7071 .7071 .7071 -180.8619 286.1696)" cx="255" cy="361.4" rx=".6" ry=".7"/><use xlink:href="#E" x="-209.8" y="362.6"/><use xlink:href="#C" x="-234.2" y="351.4"/><use xlink:href="#E" x="-203" y="419"/><use xlink:href="#E" x="-180.3" y="407.7"/><use xlink:href="#H" x="-349.4" y="201"/><use xlink:href="#F" x="-275.3" y="211.3"/></g><g opacity=".28" fill="#fff"><use xlink:href="#K"/><use xlink:href="#L"/><use xlink:href="#M"/><use xlink:href="#N"/><use xlink:href="#O"/><use xlink:href="#M" x="99.3" y="-42.1"/><use xlink:href="#O" x="81.3" y="62.1"/><use xlink:href="#P"/><use xlink:href="#N" x="-85" y="77.2"/><use xlink:href="#Q"/><use xlink:href="#R"/><use xlink:href="#M" x="-149.9" y="-6.6"/><use xlink:href="#O" x="-208.2" y="113.3"/><use xlink:href="#K" x="-17.7" y="89.3"/><use xlink:href="#P" x="-239.6" y="17"/><use xlink:href="#M" x="-121.5" y="200.4"/><use xlink:href="#P" x="-168" y="129.5"/><use xlink:href="#M" x="-89.3" y="182.5"/><use xlink:href="#N" x="-20.2" y="154.6"/><use xlink:href="#N" x="-50.4" y="122.9"/><ellipse transform="matrix(.7071 -.7071 .7071 .7071 -75.2159 150.1841)" cx="143.7" cy="165.9" rx=".7" ry=".6"/><use xlink:href="#O" x="199.4" y="42.5"/><use xlink:href="#K" x="498.9" y="5.2"/><use xlink:href="#M" x="415.2" y="9.6"/><use xlink:href="#M" x="413.3" y="40.9"/><use xlink:href="#K" x="588" y="55.7"/><ellipse transform="matrix(.7071 -.7071 .7071 .7071 117.6885 465.3476)" cx="620.6" cy="90.6" rx=".7" ry=".6"/><ellipse transform="matrix(.7071 -.7071 .7071 .7071 154.3055 459.6025)" cx="631.9" cy="43.5" rx=".7" ry=".6"/><use xlink:href="#R" x="609.8" y="-32.9"/><use xlink:href="#M" x="530.9" y="7.8"/><use xlink:href="#O" x="514.5" y="105.3"/><use xlink:href="#M" x="530.6" y="104.7"/><use xlink:href="#O" x="444.5" y="169.5"/><use xlink:href="#M" x="469.5" y="140.2"/><use xlink:href="#M" x="537.1" y="183.3"/><use xlink:href="#L" x="567.8" y="200.4"/><use xlink:href="#M" x="450.1" y="127.3"/><use xlink:href="#P" x="414" y="117.4"/><use xlink:href="#L" x="492.8" y="188.5"/><use xlink:href="#M" x="497.3" y="200"/><use xlink:href="#R" x="642.9" y="193.8"/><use xlink:href="#K" x="674.5" y="204.1"/><use xlink:href="#K" x="704.6" y="170"/><use xlink:href="#K" x="714.6" y="150.5"/><use xlink:href="#O" x="493.8" y="253"/><ellipse transform="matrix(.7071 -.7071 .7071 .7071 3.0928 580.0533)" cx="701.7" cy="286.3" rx=".7" ry=".6"/><use xlink:href="#M" x="495.3" y="247.3"/><use xlink:href="#M" x="525.8" y="267.4"/><use xlink:href="#K" x="702.3" y="260.4"/><use xlink:href="#M" x="546.5" y="174.4"/><use xlink:href="#O" x="525.6" y="167.2"/><use xlink:href="#O" x="533.9" y="113.5"/><use xlink:href="#M" x="570.4" y="21.7"/><use xlink:href="#M" x="536.5" y="-22.5"/><use xlink:href="#M" x="395.5" y="-17.3"/><use xlink:href="#M" x="347.6" y="4"/><use xlink:href="#O" x="235.6" y="30"/><use xlink:href="#O" x="178.8" y="17.7"/><use xlink:href="#O" x="150.3" y="16.8"/><use xlink:href="#M" x="134.8" y="-5"/><use xlink:href="#M" x="167.8" y="36.3"/><use xlink:href="#K" x="316.6" y="57.5"/><use xlink:href="#M" x="68.8" y="37.6"/><use xlink:href="#M" x="46.4" y="48.3"/><use xlink:href="#M" x="-117.5" y="127.5"/><use xlink:href="#N" x="-151.5" y="136.5"/><use xlink:href="#K" x="-28.3" y="120.1"/><use xlink:href="#M" x="-185.5" y="49.8"/><use xlink:href="#M" x="-185.7" y="2.2"/><use xlink:href="#O" x="-220" y="39.5"/><use xlink:href="#O" x="-96.1" y="148.9"/><use xlink:href="#O" x="63.4" y="179.6"/><use xlink:href="#O" x="129.6" y="183.6"/><use xlink:href="#O" x="202.2" y="187.4"/><use xlink:href="#L" x="325.6" y="148.1"/><use xlink:href="#M" x="329.5" y="158.6"/><use xlink:href="#M" x="351.1" y="206.2"/><use xlink:href="#K" x="501.4" y="237.3"/><use xlink:href="#K" x="296.6" y="245.6"/><use xlink:href="#O" x="49.8" y="276.5"/><use xlink:href="#N" x="46.6" y="247.3"/><use xlink:href="#K" x="100.1" y="156.6"/><use xlink:href="#O" x="-69.4" y="222.7"/><use xlink:href="#O" x="-24.9" y="247.6"/><use xlink:href="#O" x="21.6" y="258.5"/><use xlink:href="#O" x="57.1" y="271.4"/><use xlink:href="#M" x="96.3" y="267.9"/><use xlink:href="#M" x="122" y="291.1"/><use xlink:href="#O" x="148.1" y="351.8"/><use xlink:href="#M" x="199.4" y="317.2"/><use xlink:href="#M" x="240.7" y="281.9"/><use xlink:href="#M" x="231.7" y="256.5"/><use xlink:href="#M" x="235.6" y="236.7"/><use xlink:href="#M" x="242.7" y="204.7"/><use xlink:href="#M" x="127.5" y="200.2"/><use xlink:href="#M" x="162.4" y="285.6"/><use xlink:href="#P" x="-11" y="268.2"/><use xlink:href="#L" x="-56" y="314.9"/><use xlink:href="#M" x="-23" y="191.8"/><use xlink:href="#N" x="-92.5" y="241"/><use xlink:href="#M" x="-89" y="307.2"/><use xlink:href="#M" x="-119.8" y="296.4"/><use xlink:href="#P" x="-167.8" y="260.4"/><use xlink:href="#L" x="-66.3" y="255.9"/><use xlink:href="#M" x="-132.2" y="326.3"/><use xlink:href="#K" x="31.9" y="351.8"/><use xlink:href="#N" x="-161.9" y="190.5"/><use xlink:href="#M" x="-147.5" y="144.4"/><use xlink:href="#N" x="-159.2" y="264.4"/><use xlink:href="#M" x="-149.2" y="349"/><use xlink:href="#M" x="-118.2" y="384.8"/><use xlink:href="#O" x="-36.5" y="337.4"/><use xlink:href="#M" x="1.4" y="272.8"/><use xlink:href="#O" x="-71.4" y="411.2"/><use xlink:href="#M" x="-96.5" y="390.3"/><use xlink:href="#N" x="-137.1" y="421.5"/><use xlink:href="#N" x="-73.6" y="413.7"/><use xlink:href="#O" x="3.3" y="414.4"/><use xlink:href="#O" x="-5.6" y="437.6"/><use xlink:href="#M" x="-48.1" y="202.2"/><use xlink:href="#M" x="10.5" y="227.7"/><use xlink:href="#M" x="-57.4" y="213.3"/><use xlink:href="#O" x="-195.9" y="235.7"/><use xlink:href="#K" x="-54.4" y="303.5"/><use xlink:href="#M" x="-184.8" y="343.6"/><use xlink:href="#K" x="29.9" y="369.4"/><ellipse transform="matrix(.7071 -.7071 .7071 .7071 -234.7887 158.1296)" cx="73.5" cy="362.5" rx=".7" ry=".6"/><use xlink:href="#M" x="-139.9" y="455.9"/><use xlink:href="#O" x="108.1" y="446"/><use xlink:href="#M" x="183.1" y="358.6"/><use xlink:href="#R" x="241.3" y="393.1"/><use xlink:href="#M" x="132.7" y="328"/><use xlink:href="#N" x="195.4" y="396.2"/><use xlink:href="#M" x="118.5" y="340.7"/><use xlink:href="#M" x="346.4" y="375.8"/><use xlink:href="#N" x="343" y="458.7"/><use xlink:href="#M" x="266.8" y="376.3"/><use xlink:href="#M" x="421.6" y="404.5"/><use xlink:href="#R" x="519" y="312.8"/><use xlink:href="#M" x="399" y="224"/><use xlink:href="#M" x="513.2" y="316.4"/><ellipse transform="matrix(.7071 -.7071 .7071 .7071 -110.8874 641.033)" cx="718.4" cy="454.4" rx=".7" ry=".6"/><use xlink:href="#M" x="552.9" y="417.1"/><ellipse transform="matrix(.7071 -.7071 .7071 .7071 -43.9319 643.1058)" cx="754.3" cy="374.6" rx=".7" ry=".6"/><use xlink:href="#K" x="693.8" y="312.2"/><use xlink:href="#P" x="441.2" y="354"/><use xlink:href="#O" x="365.4" y="370.1"/><use xlink:href="#L" x="465.5" y="282.3"/><use xlink:href="#M" x="447.8" y="109.1"/><use xlink:href="#O" x="318.7" y="105.9"/><use xlink:href="#K" x="450.1" y="92.9"/><use xlink:href="#N" x="325.3" y="129.1"/><use xlink:href="#K" x="281.1" y="55.1"/><ellipse transform="matrix(.7071 -.7071 .7071 .7071 -55.2552 213.1592)" cx="229.7" cy="173.3" rx=".7" ry=".6"/><use xlink:href="#P" x="14" y="112.6"/><use xlink:href="#K" x="351.3" y="51.4"/><use xlink:href="#M" x="170.6" y="110.9"/><use xlink:href="#K" x="210.9" y="86.2"/><use xlink:href="#M" x="18.7" y="87.3"/><use xlink:href="#N" x="-29.6" y="13.1"/><use xlink:href="#M" x="5.6" y="14.8"/><use xlink:href="#M" x="-36.5" y="57"/><ellipse transform="matrix(.7071 -.7071 .7071 .7071 -40.4805 133.5172)" cx="140.9" cy="115.6" rx=".7" ry=".6"/><use xlink:href="#O" x="-97.6" y="50.9"/><use xlink:href="#M" x="-16.7" y="58.3"/><use xlink:href="#K" x="117" y="66.7"/><use xlink:href="#O" x="-48.7" y="94.5"/><use xlink:href="#K" x="72.8" y="7.1"/><use xlink:href="#O" x="-107.7" y="53"/><use xlink:href="#M" x="-152" y="54.4"/><ellipse transform="matrix(.7071 -.7071 .7071 .7071 -82.5447 102.2036)" cx="82.1" cy="150.7" rx=".7" ry=".6"/><use xlink:href="#M" x="-93.9" y="52.8"/><use xlink:href="#M" x="-104.4" y="41.5"/><use xlink:href="#N" x="-109.5" y="94.1"/><use xlink:href="#K" x="-1.7" y="82.5"/><use xlink:href="#K" x="8.8" y="24.7"/><use xlink:href="#N" x="-134.4" y="55.9"/><use xlink:href="#O" x="-214.6" y="56.3"/><use xlink:href="#P" x="-222.7" y="-63.8"/><use xlink:href="#L" x="-156.4" y="27.6"/><use xlink:href="#L" x="-175.1" y="95.2"/><use xlink:href="#M" x="-111.2" y="56.9"/><use xlink:href="#N" x="-119.2" y="-41.9"/><use xlink:href="#M" x="-66.1" y="-41.5"/><use xlink:href="#R" x="69.9" y="-37.7"/><use xlink:href="#O" x="-128.1" y="-0.6"/><path d="M83.2 70.1a.66.66 0 0 1-.9.9c-.2 0-.3-.1-.3-.3a.66.66 0 0 1 .9-.9l.3.3z"/><use xlink:href="#L" x="-165.4" y="41.9"/><use xlink:href="#O" x="-249" y="18.7"/><use xlink:href="#K" x="-51" y="23.7"/><use xlink:href="#K" x="-71.3" y="152.2"/><use xlink:href="#O" x="-248" y="199.2"/><use xlink:href="#N" x="-242.3" y="232.6"/><use xlink:href="#O" x="-260.4" y="285"/><use xlink:href="#M" x="-155.1" y="116.3"/><use xlink:href="#M" x="-149.6" y="155.7"/><use xlink:href="#O" x="-151.2" y="102"/><use xlink:href="#N" x="-47.2" y="9"/><use xlink:href="#M" x="64.8" y="-29.1"/><use xlink:href="#O" x="27.3" y="32.5"/><use xlink:href="#L" x="98.9" y="49.9"/><use xlink:href="#O" x="27.2" y="62.4"/><use xlink:href="#O" x="48.9" y="43"/><use xlink:href="#K" x="338.1" y="-9.6"/><use xlink:href="#N" x="127.5" y="17.9"/><use xlink:href="#M" x="233.7" y="21.4"/><use xlink:href="#O" x="198.5" y="105.2"/><use xlink:href="#K" x="473.1" y="62.6"/><use xlink:href="#K" x="416.9" y="-11"/><use xlink:href="#L" x="328" y="33.7"/><use xlink:href="#M" x="296.2" y="33.8"/><use xlink:href="#L" x="301.5" y="62.7"/><use xlink:href="#M" x="266.8" y="9"/><use xlink:href="#K" x="458.7" y="-27.7"/><use xlink:href="#P" x="337.8" y="-65.8"/><use xlink:href="#M" x="385.1" y="-16.4"/><use xlink:href="#M" x="425.1" y="-35.2"/><use xlink:href="#O" x="458.6" y="70.2"/><use xlink:href="#M" x="431.9" y="48.1"/><use xlink:href="#M" x="511.8" y="75.2"/><use xlink:href="#L" x="537.5" y="114.6"/><use xlink:href="#M" x="467.2" y="-38.7"/><use xlink:href="#M" x="494.3" y="38"/><use xlink:href="#M" x="488.9" y="57.5"/><use xlink:href="#N" x="510.1" y="151.5"/><use xlink:href="#K" x="699.7" y="117.8"/><use xlink:href="#O" x="527.3" y="-31.5"/><use xlink:href="#M" x="578.9" y="-33.5"/><use xlink:href="#M" x="583.4" y="0.4"/><use xlink:href="#M" x="590.2" y="-20.6"/><ellipse transform="matrix(.7071 -.7071 .7071 .7071 116.8031 596.3069)" cx="778.2" cy="157.2" rx=".7" ry=".6"/><use xlink:href="#O" x="559.6" y="134.1"/><use xlink:href="#M" x="567.3" y="236.6"/><use xlink:href="#M" x="555.3" y="198"/><use xlink:href="#M" x="569.3" y="215.2"/><use xlink:href="#O" x="586.9" y="320.9"/><use xlink:href="#M" x="616.5" y="181.6"/><use xlink:href="#M" x="611.8" y="342.4"/><ellipse transform="matrix(.7071 -.7071 .7071 .7071 .3006 661.2914)" cx="798.4" cy="330.3" rx=".7" ry=".6"/><use xlink:href="#M" x="581.9" y="386.8"/><use xlink:href="#M" x="539.8" y="365.9"/><use xlink:href="#M" x="488.2" y="262.3"/><ellipse transform="matrix(.7071 -.7071 .7071 .7071 -16.8004 577.2979)" cx="688.5" cy="308.9" rx=".7" ry=".6"/><use xlink:href="#O" x="507" y="321.1"/><use xlink:href="#P" x="448.4" y="300.1"/><use xlink:href="#Q" x="614.8" y="286"/><use xlink:href="#M" x="519.9" y="278.3"/><use xlink:href="#L" x="406.3" y="135.3"/><use xlink:href="#M" x="394.4" y="133.8"/><use xlink:href="#N" x="361.2" y="113.9"/><use xlink:href="#M" x="323.7" y="119.7"/><use xlink:href="#M" x="366.2" y="195.7"/><use xlink:href="#M" x="318.6" y="149.9"/><path d="M535.4 206.8a.66.66 0 0 1-.9.9l-.3-.3a.66.66 0 0 1 .9-.9c.1 0 .3.2.3.3z"/><use xlink:href="#M" x="135.8" y="78.8"/><use xlink:href="#K" x="353.4" y="124.8"/><use xlink:href="#Q" x="191.5" y="54.3"/><use xlink:href="#M" x="167.6" y="105.3"/><use xlink:href="#N" x="-47.9" y="169"/><use xlink:href="#P" x="-62.8" y="120.2"/><use xlink:href="#M" x="-80.8" y="177.4"/><use xlink:href="#M" x="-91.4" y="173.1"/><use xlink:href="#M" x="-130.2" y="223.3"/><use xlink:href="#K" x="18.8" y="326.2"/><use xlink:href="#M" x="-142.1" y="284.2"/><use xlink:href="#O" x="-221.3" y="417.5"/><use xlink:href="#M" x="-182.1" y="338"/><use xlink:href="#O" x="-213.5" y="431.2"/><use xlink:href="#O" x="-209.6" y="430.4"/><use xlink:href="#M" x="-29.2" y="359.4"/><use xlink:href="#M" x="-28.4" y="353.1"/><use xlink:href="#N" x="57.3" y="365.5"/><use xlink:href="#K" x="239.4" y="407.6"/><use xlink:href="#M" x="-8.5" y="396.8"/><use xlink:href="#M" x="-47.2" y="381.5"/><use xlink:href="#O" x="-31.7" y="384.9"/><use xlink:href="#N" x="-14.3" y="315.8"/><use xlink:href="#Q" x="137.9" y="261.4"/><use xlink:href="#M" x="-20.3" y="353"/><use xlink:href="#M" x="-74.5" y="322.8"/><use xlink:href="#M" x="-14.5" y="333"/><use xlink:href="#M" x="-72.5" y="297.3"/><use xlink:href="#O" x="-54.2" y="279.6"/><use xlink:href="#O" x="-34.1" y="314.1"/><use xlink:href="#M" x="-23" y="220.5"/><use xlink:href="#K" x="88.6" y="309.9"/><use xlink:href="#M" x="-63.7" y="305.6"/><use xlink:href="#O" x="-87.1" y="320.2"/><use xlink:href="#O" x="-83.1" y="320"/><use xlink:href="#P" x="-108.3" y="214.2"/><use xlink:href="#M" x="-26.2" y="272.4"/><use xlink:href="#O" x="-67.1" y="303.2"/><use xlink:href="#O" x="-93.1" y="310.4"/><use xlink:href="#M" x="-106" y="286.7"/><use xlink:href="#K" x="27.2" y="291.2"/><use xlink:href="#M" x="-128" y="254.9"/><use xlink:href="#L" x="-99.3" y="269.3"/><use xlink:href="#O" x="-169.6" y="300.6"/><use xlink:href="#M" x="-176.7" y="224"/><use xlink:href="#M" x="-180.4" y="218.5"/><use xlink:href="#O" x="-227.7" y="293.8"/><use xlink:href="#M" x="-192.3" y="287"/><use xlink:href="#K" x="-47.1" y="326.5"/><use xlink:href="#M" x="-110.3" y="366.1"/><use xlink:href="#M" x="80" y="309.4"/><use xlink:href="#M" x="136.6" y="262.5"/><use xlink:href="#K" x="329.1" y="259.1"/><use xlink:href="#M" x="190.5" y="204.8"/><use xlink:href="#M" x="191.8" y="175.2"/><use xlink:href="#K" x="364.7" y="212.3"/><use xlink:href="#O" x="106.4" y="229"/><use xlink:href="#N" x="58.3" y="189.1"/><use xlink:href="#M" x="44.4" y="163.8"/><use xlink:href="#K" x="180.2" y="138.1"/><use xlink:href="#M" x="53.8" y="166.6"/><use xlink:href="#M" x="79.1" y="214.5"/><use xlink:href="#M" x="154.7" y="189.4"/><use xlink:href="#N" x="220.2" y="170.6"/><use xlink:href="#M" x="274.3" y="177.8"/><use xlink:href="#M" x="275.9" y="170.9"/><use xlink:href="#O" x="210.1" y="141.9"/><use xlink:href="#P" x="206.5" y="31.9"/><use xlink:href="#O" x="326.1" y="196.7"/><use xlink:href="#K" x="468.3" y="241.1"/><use xlink:href="#O" x="215.3" y="309.2"/><use xlink:href="#N" x="255" y="238.2"/><use xlink:href="#M" x="301.5" y="245.6"/><use xlink:href="#O" x="272.7" y="330"/><use xlink:href="#O" x="252" y="347.6"/><use xlink:href="#L" x="293.4" y="341.2"/><use xlink:href="#M" x="310.7" y="346.1"/><use xlink:href="#N" x="344" y="280.5"/><use xlink:href="#N" x="359" y="284.3"/><use xlink:href="#O" x="384.4" y="338.1"/><use xlink:href="#M" x="438.5" y="306.4"/><use xlink:href="#M" x="400.8" y="317.9"/><use xlink:href="#K" x="438.5" y="352.4"/><use xlink:href="#M" x="300.1" y="343.5"/><use xlink:href="#P" x="316.3" y="250.6"/><use xlink:href="#M" x="405.8" y="259.3"/><use xlink:href="#K" x="570.5" y="260.6"/><use xlink:href="#M" x="382.7" y="182.3"/><use xlink:href="#O" x="339.2" y="284.8"/><use xlink:href="#M" x="424.5" y="165.9"/><use xlink:href="#N" x="425.8" y="186.6"/><use xlink:href="#K" x="619.7" y="264.1"/><ellipse transform="matrix(.7071 -.7071 .7071 .7071 -34.9058 540.7305)" cx="635.3" cy="312.5" rx=".7" ry=".6"/><use xlink:href="#O" x="404.6" y="272.6"/><use xlink:href="#M" x="435.8" y="212.2"/><ellipse transform="matrix(.7071 -.7071 .7071 .7071 1.4276 535.8052)" cx="647.5" cy="266.2" rx=".7" ry=".6"/><use xlink:href="#Q" x="587.3" y="240.7"/><use xlink:href="#O" x="438.2" y="382.4"/><use xlink:href="#M" x="454.6" y="346"/><use xlink:href="#M" x="428.6" y="367.7"/><use xlink:href="#O" x="375" y="416.2"/><use xlink:href="#O" x="367.9" y="422"/><use xlink:href="#O" x="360.1" y="442.6"/><use xlink:href="#Q" x="462.1" y="365.8"/><use xlink:href="#O" x="317.1" y="469.7"/><use xlink:href="#L" x="298.7" y="434"/><use xlink:href="#O" x="179.1" y="467.8"/><use xlink:href="#O" x="129.4" y="477.3"/><use xlink:href="#L" x="142.3" y="449.8"/><use xlink:href="#M" x="73.7" y="439.4"/><use xlink:href="#K" x="168" y="455.6"/><use xlink:href="#M" x="-31.2" y="441.6"/><use xlink:href="#M" x="-120.3" y="438.5"/><use xlink:href="#M" x="-159.1" y="439.1"/><use xlink:href="#M" x="-186.7" y="438.8"/><use xlink:href="#O" x="-238.7" y="469.2"/><use xlink:href="#M" x="-232.2" y="361.7"/><ellipse transform="matrix(.7071 -.7071 .7071 .7071 -294.1276 83.5928)" cx="-46.2" cy="396.8" rx=".7" ry=".6"/><use xlink:href="#M" x="-121.2" y="301.6"/><use xlink:href="#M" x="67.5" y="358.2"/><use xlink:href="#L" x="149.5" y="388.5"/><use xlink:href="#M" x="162.5" y="344.6"/><use xlink:href="#K" x="208.5" y="420"/><ellipse transform="matrix(.7071 -.7071 .7071 .7071 -221.5134 270.9495)" cx="216.3" cy="402.9" rx=".7" ry=".6"/><use xlink:href="#M" x="140.3" y="275.6"/><use xlink:href="#K" x="333.3" y="347.3"/><use xlink:href="#O" x="47" y="299"/><use xlink:href="#M" x="63.2" y="284.9"/><use xlink:href="#L" x="51" y="281.6"/><use xlink:href="#M" x="93.5" y="226.7"/><use xlink:href="#K" x="300.8" y="198.4"/><use xlink:href="#K" x="317.3" y="141.8"/><use xlink:href="#N" x="143.7" y="151"/><use xlink:href="#K" x="264.6" y="169.6"/><use xlink:href="#M" x="106.9" y="169.3"/><use xlink:href="#R" x="238.7" y="175.3"/><use xlink:href="#M" x="101" y="140.1"/><use xlink:href="#M" x="109.1" y="118.9"/><use xlink:href="#M" x="124.7" y="106.9"/><use xlink:href="#O" x="106.6" y="133.2"/><use xlink:href="#K" x="233.5" y="84.8"/><use xlink:href="#M" x="159.1" y="65.9"/><use xlink:href="#R" x="309" y="54.4"/><use xlink:href="#M" x="230.4" y="79.3"/><use xlink:href="#M" x="261.1" y="128.4"/><use xlink:href="#N" x="266.8" y="134.7"/><use xlink:href="#K" x="473.5" y="98.1"/><use xlink:href="#K" x="533.6" y="67.1"/><use xlink:href="#M" x="378.4" y="19.3"/><use xlink:href="#M" x="440.1" y="87.9"/><use xlink:href="#M" x="453.1" y="97.5"/><use xlink:href="#M" x="476.7" y="71.6"/><use xlink:href="#M" x="448.7" y="48.7"/><use xlink:href="#L" x="491.7" y="16.4"/><use xlink:href="#M" x="545" y="23.2"/><ellipse transform="matrix(.7071 -.7071 .7071 .7071 143.9525 545.3505)" cx="730.3" cy="98.9" rx=".7" ry=".6"/><use xlink:href="#O" x="578.3" y="189"/><use xlink:href="#N" x="586.3" y="198.1"/><use xlink:href="#M" x="572.9" y="162.9"/><use xlink:href="#N" x="589.8" y="254.5"/><use xlink:href="#M" x="603.2" y="292.5"/><use xlink:href="#O" x="556.4" y="359.6"/><use xlink:href="#N" x="564" y="296.4"/><use xlink:href="#O" x="537.5" y="322.7"/><use xlink:href="#M" x="525.3" y="365.1"/><use xlink:href="#O" x="530.3" y="427"/><use xlink:href="#M" x="566.8" y="358.4"/><use xlink:href="#K" x="589.8" y="408.8"/><use xlink:href="#O" x="420.3" y="419.3"/><use xlink:href="#K" x="645.7" y="389.6"/><use xlink:href="#M" x="487" y="375.8"/><use xlink:href="#P" x="304.4" y="301.6"/><use xlink:href="#M" x="319.1" y="316.5"/><use xlink:href="#O" x="274.7" y="354.5"/><use xlink:href="#O" x="279.3" y="347"/><use xlink:href="#O" x="209.8" y="362.6"/><use xlink:href="#M" x="234.2" y="351.4"/><use xlink:href="#O" x="203" y="419"/><use xlink:href="#M" x="210.3" y="362.5"/><use xlink:href="#K" x="331.7" y="290.3"/><use xlink:href="#N" x="170.6" y="272.3"/></g><defs ><path id="B" d="M584.8 46.5a.66.66 0 0 0 .9.9l.3-.3a.66.66 0 0 0-.9-.9c-.2 0-.3.2-.3.3z"/><path id="C" d="M563.8 59.3a.66.66 0 0 0 .9.9l.3-.3a.66.66 0 0 0-.9-.9c-.2.1-.3.2-.3.3z"/><path id="D" d="M560.4 45a.66.66 0 0 0 .9.9l.3-.3a.66.66 0 0 0-.9-.9c-.1 0-.3.1-.3.3z"/><path id="E" d="M533.7 14.1a.66.66 0 0 0 .9.9l.3-.3a.66.66 0 0 0-.9-.9l-.3.3z"/><path id="F" d="M665.1 106a.66.66 0 0 0 .9.9l.3-.3a.66.66 0 0 0-.9-.9c-.1 0-.2.1-.3.3z"/><path id="G" d="M701.8 67.1a.66.66 0 0 0 .9.9l.3-.3a.66.66 0 0 0-.9-.9c-.1 0-.2.2-.3.3z"/><path id="H" d="M735.3 132.4a.66.66 0 0 0 .9.9l.3-.3a.66.66 0 0 0-.9-.9c-.2 0-.3.1-.3.3z"/><path id="I" d="M652.8 366.5a.66.66 0 0 0 .9.9l.3-.3a.66.66 0 0 0-.9-.9c-.1.1-.3.2-.3.3z"/><path id="J" d="M750.2 88.4a.66.66 0 0 0 .9.9l.3-.3a.66.66 0 0 0-.9-.9c-.1 0-.3.2-.3.3z"/><path id="K" d="M33.2 43.1a.66.66 0 0 1-.9.9l-.3-.3a.66.66 0 0 1 .9-.9c.1 0 .2.1.3.3z"/><path id="L" d="M166 46.5a.66.66 0 0 1-.9.9l-.3-.3a.66.66 0 0 1 .9-.9c.1 0 .2.2.3.3z"/><path id="M" d="M187 59.3a.66.66 0 0 1-.9.9l-.3-.3a.66.66 0 0 1 .9-.9l.3.3z"/><path id="N" d="M190.3 45a.66.66 0 0 1-.9.9l-.3-.3a.66.66 0 0 1 .9-.9c.2 0 .3.1.3.3z"/><path id="O" d="M217 14.1a.66.66 0 0 1-.9.9l-.3-.3a.66.66 0 0 1 .9-.9c.2.1.3.2.3.3z"/><path id="P" d="M237.4 104.2a.66.66 0 0 1-.9.9l-.3-.3a.66.66 0 0 1 .9-.9c.1.1.3.2.3.3z"/><path id="Q" d="M85.6 106a.66.66 0 0 1-.9.9l-.3-.3a.66.66 0 0 1 .9-.9c.1 0 .3.1.3.3z"/><path id="R" d="M48.9 67.1a.66.66 0 0 1-.9.9l-.3-.3a.66.66 0 0 1 .9-.9c.2 0 .3.2.3.3z"/></defs></svg>